<?xml version="1.0" encoding="utf-8"?>
<!-- Generator: Adobe Illustrator 22.0.1, SVG Export Plug-In . SVG Version: 6.00 Build 0)  -->
<svg version="1.1" id="Layer_2" xmlns="http://www.w3.org/2000/svg" xmlns:xlink="http://www.w3.org/1999/xlink" x="0px" y="0px"
	 viewBox="0 0 102.965 133.979" style="enable-background:new 0 0 102.965 133.979;" xml:space="preserve">
<style type="text/css">
	.st0{fill:#DCBA9B;}
	.st1{fill:#868C90;}
	.st2{fill:#4A5147;}
	.st3{fill:#4C5741;}
	.st4{fill:#BC966A;}
	.st5{fill:#505D50;}
	.st6{fill:#8A6B54;}
	.st7{fill:#858387;}
	.st8{fill:#DDCFC0;}
	.st9{fill:#F8F1EB;}
	.st10{fill:#443527;}
	.st11{fill:#566253;}
	.st12{fill:#DCCFC0;}
	.st13{fill:#A68D7E;}
	.st14{fill:#A5897B;}
	.st15{fill:#897566;}
	.st16{fill:#9092A1;}
	.st17{fill:#685E5E;}
	.st18{fill:#93A0CE;}
	.st19{fill:#8C8CA7;}
	.st20{fill:#908584;}
	.st21{fill:#F2EFE8;}
	.st22{fill:#AA8F7D;}
	.st23{fill:#D1CAC6;}
	.st24{fill:#AB8568;}
	.st25{fill:#443323;}
	.st26{fill:#364165;}
	.st27{fill:#57638E;}
	.st28{fill:#958B84;}
	.st29{fill:#283032;}
	.st30{fill:#6F6C6F;}
	.st31{fill:#757B8A;}
	.st32{fill:#EEEEF3;}
	.st33{fill:#F8F9FB;}
	.st34{fill:#5A69AC;}
	.st35{fill:#8E8ABF;}
	.st36{fill:#F5F6FA;}
	.st37{fill:#A1A3BE;}
	.st38{fill:#D8D6E5;}
	.st39{fill:#9D9697;}
	.st40{fill:#BAA798;}
	.st41{fill:#CCBDAA;}
	.st42{fill:#E0D9DB;}
	.st43{fill:#DDC8BE;}
	.st44{fill:#F4F3F6;}
	.st45{fill:#B6BCD7;}
	.st46{fill:#796B69;}
	.st47{fill:#A38C82;}
	.st48{fill:#8B7871;}
	.st49{fill:#505660;}
	.st50{fill:#B4A9A2;}
	.st51{fill:#E0DCDB;}
	.st52{fill:#B8B1AC;}
	.st53{fill:#9F95A0;}
	.st54{fill:#AF998B;}
	.st55{fill:#E8DED3;}
	.st56{fill:#998A8E;}
	.st57{fill:#1B2236;}
	.st58{fill:#62605F;}
	.st59{fill:#6572A5;}
	.st60{fill:#878593;}
	.st61{fill:#64402F;}
	.st62{fill:#8F9BBB;}
	.st63{fill:#CAD9EF;}
	.st64{fill:#8190AD;}
	.st65{fill:#335688;}
	.st66{fill:#3B5378;}
	.st67{fill:#B8C4D5;}
	.st68{fill:#DADADF;}
	.st69{fill:#BDBDC3;}
	.st70{fill:#878596;}
	.st71{fill:#8A9493;}
	.st72{fill:#BC8B85;}
	.st73{fill:#2A3A7B;}
	.st74{fill:#6E4739;}
	.st75{fill:#BFBED1;}
	.st76{fill:#D6D5E4;}
	.st77{fill:#E6D6CF;}
	.st78{fill:#F2E1DC;}
	.st79{fill:#EEE6D7;}
	.st80{fill:#B8B2AF;}
	.st81{fill:#B0B1B5;}
	.st82{fill:#303037;}
	.st83{fill:#5D423E;}
	.st84{fill:#C8C9E2;}
	.st85{fill:#3E2F31;}
	.st86{fill:#ADA9B1;}
	.st87{fill:#332C2B;}
	.st88{fill:#7E7174;}
	.st89{fill:#DFE8F3;}
	.st90{fill:#B0B2C2;}
	.st91{fill:#6B4E5A;}
	.st92{fill:#E9EAE4;}
	.st93{fill:#B7B3C9;}
	.st94{fill:#535956;}
</style>
<g>
	<path class="st0" d="M72.791,130.955c1.101-0.062,2.216,0.692,3.304-0.06c-0.127,0.247-0.295,0.941-0.422,1.188
		C74.657,132.033,73.626,131.781,72.791,130.955z"/>
	<path class="st1" d="M32.542,25.698c-0.769-0.72-1.658-1.284-2.749-0.679c-1.085,0.601-1.794,0.433-2.095-0.838
		c-0.245-0.151-0.51-0.187-0.789-0.131c-0.776,0.486-1.827,0.79-1.366,2.086c0.036,0.093,0.054,0.189,0.053,0.288
		c0.461,0.798,1.498,1.197,1.894,2.041c0.061,0.068,0.111,0.151,0.141,0.258c0.23,0.828,0.835,1.404,1.538,1.84
		c0.139-1.02,0.454-2.014,1.146-2.951c0.882-0.307,1.796-0.049,2.691-0.155C33.736,26.642,33.027,26.152,32.542,25.698z"/>
	<path class="st2" d="M24.077,14.892c0.46,0.305,5.727-0.555,6.185-0.696c4.778-1.466,12.072,8.761-5.742,5.121
		C23.228,16.797,24.37,18.106,24.077,14.892z"/>
	<path class="st3" d="M-103.523-52.367c0.661-1.115,1.478-2.153,2.434-3.087c-0.053-0.2,0.038-0.384,0.148-0.577
		c0.388-0.681,0.145-1.16-0.501-1.478c-0.801-0.394-1.166,0.184-1.646,0.683c-0.811,0.842-0.134,1.892-0.509,2.771
		C-103.941-53.25-103.853-52.686-103.523-52.367z"/>
	<path class="st4" d="M5.419,132.689c1.781,0.502,3.117,0.214,4.208-0.502c-0.478,0.024-0.958,0.03-1.442-0.014
		c-1.004-0.091-1.867-0.281-1.441-1.63c-0.222-0.855-0.867-0.619-1.447-0.575c-1.695,0.13-1.978-0.164-1.916-1.841
		c0.028-0.744,0.523-1.512-0.075-2.233c-0.185-0.128-0.827,1.628-1.249,2.53c0.009,0.379-0.026,0.756-0.077,1.131
		C2.648,131.041,3.737,132.215,5.419,132.689z"/>
	<path class="st5" d="M133.728-18.598c-1.547-0.13-3.094-0.259-4.64-0.398c1.494,1.448,2.923,2.956,4.311,4.505
		c0.073-1.031,0.142-2.063,0.216-3.093C133.639-17.926,133.684-18.262,133.728-18.598z"/>
	<path class="st6" d="M16.679,120.147c-0.475,0.019-0.926-0.013-1.213-0.375c-0.239-0.301-0.79-0.091-1.155,0.162
		c-0.098,0.068-0.221,0.137-0.259,0.24c-0.756,2.041-1.868,1.13-2.962,0.369c-0.643-0.162-1.294-0.032-1.93,0.024
		c-1.333,0.119-1.739,0.84-1.187,2.047c0.144,0.315,0.339,0.617,0.509,0.93c0.56,1.693,1.143,3.382,0.371,5.171
		c-0.366,1.034-1.5,0.747-2.168,1.266c-0.037,0.072-0.075,0.143-0.113,0.214c-0.129,0.202-0.266,0.4-0.386,0.608
		c-0.293,0.505-1.298,0.654-1.056,1.301c0.292,0.78,1.22,0.594,1.931,0.623c0.363,0.014,0.728,0.014,1.091-0.007
		c0.155-0.009,0.311-0.025,0.466-0.035c4.669-2.531,1.33-6.645,2.515-8.614C12.319,121.747,14.573,121.471,16.679,120.147z"/>
	<path class="st7" d="M75.765,124.341c0.094,1.208,2.013,2.739,2.84,3.362c1.024,0.772,1.794,2.743,1.672,3.887
		c-0.398,0.042-1.345-1.047-1.638-0.693c-0.327,1.618-1.668,2.032-2.966,2.497c-0.545-0.6-0.163-1.177,0.042-1.759
		c-0.059-0.351-0.064-0.696,0.123-1.017c0.173-0.404,0.972-0.815-0.079-1.175c-1.308-0.448-2.59-0.969-3.789-1.669
		c-0.986-0.577-1.686,0.267-2.513,0.492c-0.943-0.164-2.19,0.224-2.343-1.344c-0.18-1.837,0.557-3.25,2.019-3.653
		c0.46-0.127,0.707-0.425,0.983-0.739c1.535-0.848,3.427-0.326,4.851,1.398"/>
	<path class="st8" d="M69.546,127.976c0.474-1.468,1.525-1.886,2.863-0.857c1.034,0.794,2.213,1.127,3.351,1.595
		c0.562,0.231,1.348,0.348,1.45,0.894c0.11,0.59-0.668,0.903-1.114,1.288c-1.08,1.218-2.198,0.286-3.304,0.06
		c-0.216-0.001-0.432-0.003-0.648-0.004c-0.717,0.008-1.518-0.541-1.994,0.617c-1.016-0.21-3.481-1.246-4.014-1.8
		c-1.058-0.872,1.758-0.04,2.221-1.038C68.617,128.265,69.044,128.061,69.546,127.976z"/>
	<path class="st9" d="M3.175,126.173c0.454-0.791,0.814-1.617,0.929-2.533c0.978-0.739,1.661-0.433,1.704,0.711
		c0.036,0.958,0.227,1.33,1.258,1.498c1.443,0.235,1.753,1.455,1.051,3.328c-0.33,0.533-0.87,0.758-1.423,0.963
		c0,0-0.122,0.057-0.122,0.057c-1.163,0.281-2.425,1.484-3.485,0.26c-0.988-1.14-0.56-2.614,0.015-3.931
		C3.149,126.418,3.152,126.291,3.175,126.173z"/>
	<path class="st0" d="M68.575,130.446c0.588,0.289,0.972,0.115,0.948-0.546c-0.022-0.598-0.292-1.135,0.7-1.263
		c1.02-0.132,5.151,0.825,5.451,1.535c0.074,0.889-0.158,2.236,0,3.222c-1.49-0.133-5.338-1.375-6.807-2.174
		c-0.11-0.131-0.22-0.263-0.33-0.395c-0.119-0.097-0.153-0.186-0.102-0.266C68.482,130.484,68.529,130.446,68.575,130.446z"/>
	<path class="st10" d="M75.673,133.395c0.887-0.953,2.052-2.753,3.24-3.011c1.682,0.657,1.72,1.89,0.818,3.029
		C78.379,133.406,77.026,133.401,75.673,133.395z"/>
	<path class="st11" d="M133.729-18.598c-1.547-0.13-3.094-0.259-4.64-0.398c1.493,1.447,2.922,2.955,4.308,4.502
		c0.073-1.03,0.144-2.061,0.218-3.091C133.639-17.926,133.683-18.263,133.729-18.598z"/>
	<path class="st12" d="M96.519,7.591c-0.357-0.376-0.747-0.317-1.108,0.029c-0.961,0.727-1.922,1.453-2.884,2.18
		c-1.284,0.904-2.597,1.773-3.695,2.914c-0.104,0.113-0.209,0.227-0.313,0.34c-2.604,2.756-5.555,5.126-8.428,7.581
		c-0.019-0.01-0.037-0.011-0.057-0.019c-0.337,0.325-0.698,0.634-1.076,0.929c-0.443,0.414-0.886,0.823-1.341,1.218
		c-0.299,0.292-0.608,0.573-0.913,0.859c-0.031,0.078-0.079,0.152-0.157,0.214c-0.138,0.11-0.276,0.221-0.414,0.331
		c-0.045,0.064-0.098,0.124-0.173,0.175c-0.137,0.089-0.266,0.182-0.401,0.272c-0.017,0.015-0.034,0.03-0.051,0.046
		c-0.277,0.302-0.571,0.585-0.904,0.823c-0.991,0.907-1.986,1.809-2.954,2.742c-0.037,0.036-0.077,0.051-0.117,0.073
		c-0.147,0.166-0.304,0.323-0.464,0.478c-0.031,0.045-0.055,0.092-0.104,0.133c-0.257,0.218-0.53,0.416-0.786,0.634
		c-0.02,0.017-0.042,0.02-0.062,0.035c-0.183,0.244-0.384,0.476-0.581,0.71c-0.43,0.513-0.988,1.119-0.312,1.712
		c0.664,0.583,1.235-0.027,1.688-0.507c2.109-2.232,4.651-4.002,6.702-6.293c0.572-0.638,1.241-1.132,2.004-1.509
		c0.224-0.151,0.423-0.329,0.589-0.543c1.201-1.751,3.296-2.412,4.723-3.916c3.337-3.517,7.087-6.586,10.808-9.682
		c0.328-0.273,0.649-0.55,0.832-0.945C96.731,8.264,96.805,7.892,96.519,7.591z"/>
	<path class="st13" d="M76.474,77.431c0.634,2.787,1.216,5.588,1.92,8.358c0.52,2.048-0.496,3.977-0.298,5.983
		c0.107,1.083-0.322,1.873-1.267,2.394c-1.565,2.18-3.937,2.617-6.359,2.899c-1.019,0.119-2.059-0.032-3.082,0.117
		c-0.568,0.083-1.058,0.333-1.261,0.903c-0.224,0.629,0.329,0.841,0.702,1.111c1.075,0.779,1.276,1.84,1.464,3.123
		c0.549,3.746,0,7.481,0.041,11.211c0.029,2.637-0.401,5.377-0.945,8.031c-0.12,0.182-0.281,0.31-0.484,0.389
		c-0.223,0.019-0.426-0.035-0.61-0.162c-0.773-0.465-0.924-1.203-0.92-2.028c0.008-1.508,0.004-3.016,0.002-4.523
		c-0.226-2.644,0.416-5.248,0.377-7.879c0.403-1.388,0.384-2.813,0.339-4.241c-0.013,0.243-0.056,0.479-0.161,0.704
		c-0.097,0.164-0.228,0.291-0.391,0.388c-1.107,0.302-1.512-0.277-1.598-1.266c-0.086-0.991,0.13-2.004-0.216-2.974
		c-0.222-1.446-1.333-2.844,0.005-4.374c0.374-0.427-0.602-0.929-0.754-1.504c-0.122-0.451-0.15-0.918-0.48-1.311
		c-0.525-0.627-0.812-1.355-0.294-2.109c0.511-0.744,1.286-0.737,2.079-0.547c2.14,0.654,4.3,0.48,6.451,0.109
		c0.601-0.104,1.171-0.306,1.772-0.073c0.868-0.092-0.089,1.291,0.855,1.086c0.816-0.177,1.653-0.401,1.838-1.426
		c0.242-0.435,0.698-0.663,1.003-1.032c0.44-0.531,0.894-1.187,0.126-1.692c-0.551-0.362-1.428-0.387-1.737,0.36
		c-0.907,2.198-2.265,2.344-4.361,1.572c-1.325-0.488-2.894,0.259-4.437-0.141c-2.527-0.655-2.586-0.538-2.597-3.184
		c-0.002-0.362-0.001-0.724-0.001-1.088c-0.154-1.197,0.638-2.144,0.846-3.246c0.353-0.575,0.673-1.18,1.333-1.476
		c1.721-0.647,3.311-1.669,5.228-1.767c0.679-0.034,1.072-0.491,1.142-1.184c0.056-0.555,0.218-1.06,0.646-1.451
		C74.659,75.012,75.902,75.603,76.474,77.431z"/>
	<path class="st14" d="M67.021,121.816c0.098-2.398,0.41-4.825,0.489-7.163c0.122-3.635,0.657-7.333,0.047-10.988
		c-0.091-0.543-0.261-1.081-0.062-1.607c0.454-1.203-0.209-1.887-1.153-2.299c-0.725-0.316-1.696-0.37-1.412-1.465
		c0.253-0.977,0.991-1.661,2.01-1.89c0.464-0.104,0.97-0.095,1.448-0.045c3.091,0.32,5.787-0.848,8.442-2.191
		c-0.011,0.181-0.01,0.363-0.035,0.542c-0.192,1.386-2.811,1.835-1.192,4.117c0.836,1.179-0.112,3.304,0.378,4.959
		c0.384,1.296-0.029,2.548-0.28,3.751c-0.585,2.8,0.079,5.68-0.69,8.447c-0.223,0.223-0.702-0.199-0.752,0.166
		c-0.21,1.529-1.398,1.853-2.573,2.094c-1.273,0.261-1.976,0.731-1.936,2.232C69.79,122.034,68.591,122.54,67.021,121.816z"/>
	<path class="st15" d="M67.021,121.816c1.261-0.094,2.631,0.104,1.954-2.063c-0.257-0.824,0.165-2.034,1.68-2.003
		c0.753,0.015,1.534-0.303,2.265-0.57c0.482-0.176,1.101-0.432,0.615-1.176c-0.287-0.44-0.84-0.935-0.044-1.32
		c0.76-0.368,1.079,0.165,1.231,0.847c0.036,0.164,0.188,0.302,0.286,0.452c-0.089,2.459,0.511,4.813,1.175,7.142
		c0.179,0.629-0.13,0.867-0.42,1.218c-0.97,0.101-0.878-0.772-1.14-1.284c-0.641-1.251-3.259-2.018-4.297-1.169
		c-0.344,0.281,0.13,0.463,0.317,0.647c0.012,0.829-0.285,1.576-1.206,1.379c-1.341-0.286-1.391,0.428-1.348,1.365
		c0.003,0.06,0.012,0.129-0.013,0.178c-0.822,1.606-0.083,2.298,1.468,2.519c-0.246,0.253-0.491,0.507-0.737,0.76
		c-0.797,1.521-1.219,1.431-2.674,1.033c-2.093-0.573-2.389-4.193-1.779-4.66c0.116-0.467-0.19-1.863,0.271-2.17
		c1.96,0.171,1.011,0.046,2.389-1.12L67.021,121.816z"/>
	<path class="st16" d="M72.163,74.989"/>
	<path class="st16" d="M71.791,73.812c-0.071-0.393-0.157-0.781-0.245-1.169c-0.207-0.835-0.457-1.658-0.6-2.509
		c-0.074-0.438-0.116-0.878-0.161-1.316c-0.189-0.62-0.367-1.241-0.488-1.872c-0.037,0.003-0.077,0.02-0.113,0.018
		c-0.653,0.512-0.577,1.283-0.635,2.009c-0.145,1.828,0.275,3.572,0.646,5.347c0.356,1.706-0.033,2.033-1.584,1.62
		c-1.963-0.523-3.685,0.188-5.412,0.904c-0.447,0.185-0.851,0.539-0.661,1.128c0.155,0.482,0.606,0.533,1.035,0.566
		c0.792,0.061,1.537-0.275,2.362-0.312c-0.106,0.723-1.127,1.276-0.366,2.106c1.321-0.47,2.611-1.078,3.969-1.382
		c2.895-0.649,2.909-0.584,2.938-3.327"/>
	<path class="st17" d="M70.645,122.535c-0.395,0.338-0.701,0.874-1.363,0.616c-0.255-0.099-0.38-0.306-0.328-0.563
		c0.128-0.643,0.599-1.056,1.128-1.32c2.73-1.364,4.735-0.365,5.39,2.634c0.035,0.16,0.193,0.294,0.294,0.44
		c0.223,0.253,0.446,0.505,0.669,0.758c-0.414,0.813-0.849,0.432-1.223-0.011C74.007,123.659,72.581,122.647,70.645,122.535z"/>
	<path class="st18" d="M70.303,66.869c-0.299,2.837,0.395,5.585,0.675,8.375c0.235,2.343-0.024,2.445-2.21,1.496
		c-2.186-0.949-3.901,0.492-5.81,1.001c1.287,0.277,2.482-0.519,3.757-0.305c0.386,0.065,0.967-0.17,1.066,0.386
		c0.079,0.441-0.379,0.789-0.754,0.903c-0.84,0.255-1.388,0.693-1.46,1.607c-0.329,0.367-0.659,0.734-0.989,1.101
		c-0.906,0.646-0.921,2.447-2.644,2.042c-1.299-0.779-1.187-2.046-1.145-3.29c0.04-0.175,0.216-0.428,0.166-0.496
		c-1.105-1.496,0.126-2.549,0.742-3.655c0.703-1.262-0.654-1.794-0.806-2.734c0.958-1.995,0.269-4.13,0.52-6.188
		c1.027-0.731,1.89-1.519,2.291-2.837c0.371-1.221,1.442-1.856,2.74-2.017c1.368-0.169,2.085,0.608,2.609,1.723
		c0.124,0.263,0.342,0.489,0.527,0.725c0.117,0.118,0.233,0.237,0.35,0.355C70.054,65.663,70.179,66.266,70.303,66.869z"/>
	<path class="st19" d="M69.58,64.705c-0.429-0.319-1.02-0.549-1.256-0.975c-0.579-1.043-1.473-0.978-2.325-0.742
		c-0.949,0.262-1.744,0.877-1.853,1.964c-0.161,1.6-1.014,2.343-2.595,2.309c-2.006,0.299-3.962,0.82-6.058,0.285
		c-1.305-0.333-2.576,0.489-3.802,0.982c-2.325,0.935-2.588,0.891-4.201-0.933c-1.482-1.676-2.967-3.321-5.024-4.374
		c-0.876-0.448-1.782-1.143-1.429-2.438c0.532-0.519,1.002-0.126,1.482,0.102c1.932,0.634,4.032,0.65,5.883,1.609
		c0.643,0.333,1.42,0.508,1.865,1.084c1.203,1.557,2.467,1.073,3.785,0.238c2.78-1.119,5.289-2.792,8.057-3.929
		c0.614-0.228,1.204-0.557,1.875-0.58c1.03-0.036,1.684-0.365,1.7-1.571c0.012-0.847,0.518-1.18,1.338-0.694l0.009,0.01
		c0.434,1.164-0.087,2.408,0.298,3.576C69.273,61.329,69.082,63.207,69.58,64.705z"/>
	<path class="st20" d="M67.329,60.629c-0.67-1.145-0.18-2.386-0.298-3.577c0.674,0.908,0.058,1.982,0.376,2.936
		C67.381,60.202,67.355,60.416,67.329,60.629z"/>
	<path class="st21" d="M10.321,108.753c2.123-3.147,4.602-6.121,5.314-9.996c0.227-1.235,1.773-1.73,1.551-3.129
		c0.579-0.49,0.774-1.195,1.056-1.855c0.359-0.841,0.757-1.617,1.798-1.844c0.679-0.148,1.032-0.774,1.446-1.292
		c1.048-1.31,2-2.697,4.001-2.702c1.06-0.003,0.827-1.345,1.45-1.876c0.754,0.488,1.44,1.095,2.348,1.311
		c0.51,0.564,0.509,1.06-0.238,1.39c-0.426,0.188-0.942,0.129-1.319,0.461c-0.39,0.546-0.895,0.99-1.31,1.513
		c-1.545,1.648-2.833,3.528-4.528,5.042c-1.848,1.203-2.75,3.087-3.269,5.079c-0.271,1.04-1.512,1.044-1.602,2.049
		c-1.988,4.779-5.219,8.811-7.906,13.169c-0.791,1.283-1.737,2.471-2.368,3.852c-0.327,0.813-0.808,1.459-1.746,1.605
		c-2.103-0.803-2.447-2.024-0.967-3.435C6.669,115.345,8.499,112.052,10.321,108.753z"/>
	<path class="st22" d="M4.848,121.123c0.905-0.089,0.904-1.031,1.408-1.498c0.389-0.431,0.899-0.634,1.435-0.47
		c1.214,0.371,1.734-0.302,2.101-1.275c2.357-2.951,3.881-6.395,5.678-9.673c0.549-1.001,1.277-1.906,1.66-2.999
		c0.597-0.606,0.55-1.762,1.65-1.94c0.824,0.153,0.955-0.493,1.223-1.027c0.699-1.393,1.669-2.371,3.412-2.048
		c0.181,0.024,0.352,0.072,0.519,0.143c0.779,0.38,1.473,0.829,1.489,1.828c-1.293,1.264-2.395,2.762-3.99,3.667
		c-0.577,0.327-0.578,0.688-0.56,1.153c0.088,2.357-0.78,4.289-2.327,6.066c-1.012,1.163-1.908,2.49-2.376,4.016
		c-0.494,1.61-1.856,2.628-2.718,3.992c-0.509,0.806-1.384,0.485-2.102,0.05c-0.178-0.008-0.355-0.019-0.533-0.022
		c-2.933-0.057-2.933-0.057-1.669,2.558c-0.822,0.859-1.854,0.527-2.703,0.253c-0.784-0.254-1.619-0.319-2.369-0.67
		c-0.233-0.365-0.465-0.73-0.698-1.095C3.568,121.359,4.242,121.291,4.848,121.123z"/>
	<path class="st23" d="M4.076,123.226c1.702-0.001,3.407-0.027,5.072,0.417c0.966,1.468,0.641,3.197,0.931,4.8
		c0.072,0.4-0.521,0.579-0.93,0.692c-0.492,0.329-0.977,0.426-1.448-0.039c0.498-2.139,0.269-2.523-1.662-2.525
		c-1.431-0.001-1.215-1.206-0.956-1.722c0.704-1.408-0.211-1.175-0.979-1.209C4.095,123.502,4.085,123.364,4.076,123.226z"/>
	<path class="st24" d="M8.391,121.408c0.759-1.151,4.607-0.674,5.307-1.529c1.549-1.89,2.005-4.337,3.513-6.228
		c0.518-0.65,0.986-1.347,1.539-1.985c1.479-1.708,1.845-3.657,0.983-5.758c-0.261-0.636,0.022-0.68,0.49-0.826
		c0.687-0.215,2.56,1.122,1.692-1.231c1.344,0.421,1.259-1.846,2.642-1.408c0.163,0.051,0.415-0.179,0.625-0.278
		c1.203-1.332,2.204,0.316,3.216,0.211c-0.81-0.223-1.968-0.344-2.105-1.45c-0.1-0.808,0.882-0.466,1.372-0.609
		c-0.77-0.025-1.026-0.521-1.004-1.202c0.026-0.776,0.321-1.643,1.092-1.701c1.947-0.147,3.146-1.294,4.271-2.668
		c0.189-0.231,0.537-0.26,0.847-0.274c1.264,0.5,2.669,0.138,3.936,0.631c0.533,0.685,0.342,1.442-0.024,2.041
		c-1.863,3.054-3.188,6.506-6.398,8.576c-1.158,0.747,0.422-0.743-0.53,0.306c-1.081,0.701-0.696,0.974-2.727,2.562
		c-0.009,0.059-1.077,1.588-1.888,2.5c-1.874,2.027-3.074,3.199-4.267,5.344c-0.119,0.213-0.522,0.885-0.522,0.885
		c-1.153,1.225-5.235,6.865-7.945,6.878"/>
	<path class="st25" d="M7.596,132.361c0.595-0.038,1.203,0.024,1.806-0.026c0.276-0.161,0.534-0.354,0.781-0.565
		c-0.748-0.299-1.407-0.704-2.104-1.016c-0.615-0.275-1.181-0.087-1.576,0.46c-0.165,0.228-0.408,0.594-0.329,0.767
		C6.459,132.609,7.109,132.392,7.596,132.361z"/>
	<path class="st4" d="M7.701,129.096c0.483,0.013,0.966,0.026,1.448,0.039c-0.448,1.243-1.505,0.998-2.457,1.005
		C7.057,129.819,7.088,129.176,7.701,129.096z"/>
	<path class="st26" d="M45.521,6.003c-0.092-0.099-0.167-0.211-0.226-0.331c-1.34-1.272-3.362-2.364-5.59-3.122
		c-0.395,1.288-1.322,1.967-2.543,2.483c-3.207,1.355-6.674,2.123-9.571,4.193c-0.231,0.028-0.34,0.001-0.571,0.025
		c-0.08,0.334-0.414,0.659-0.783,0.892c-0.287,0.181-0.563,0.367-0.834,0.555c-0.23,0.198-0.47,0.317-0.768,0.573
		c-0.49,0.39-1.261,1.199-1.668,1.664c0.015,0.084,0.355-0.219,0.395-0.126c0.392,0.349,0.876,0.405,1.356,0.345
		c1.2-0.149,1.873,0.492,2.49,1.616c-1.126,0.17-2.138,0.03-3.13,0.123c-0.748,0.07-1.616-0.048-1.954,0.914
		c0.02,0.195,0.095,0.371,0.226,0.517c0.493,0.498,1.113,0.694,1.797,0.726c1.508,0.07,3.006-0.006,4.512-0.152
		c1.124-0.109,1.97-0.479,2.472-1.515c-0.122-1.104-0.218-2.197,0.721-3.042c-0.329-1.047,0.264-1.506,1.021-2.155
		c1.412-1.209,3.183-1.134,4.753-1.543c2.688-0.699,4.941-2.781,7.919-2.468c0.012-0.012,0.018-0.02,0.027-0.031
		C45.55,6.098,45.539,6.049,45.521,6.003z"/>
	<path class="st27" d="M38.067,2.066c-3.608-0.334-7.081,0.242-9.654,2.817c-0.043,0.07-0.093,0.132-0.131,0.208
		c-1.809,1.519-1.5,3.427-0.984,5.373c0.865-0.631,1.674-1.313,2.641-1.832c2.762-1.481,5.822-2.192,8.668-3.471
		c1.538-0.691,1.857-1.268,1.13-2.602C39.19,2.373,38.631,2.211,38.067,2.066z"/>
	<path class="st28" d="M101.286,16.174c0,0.767-5.675,4.989-5.923,5.227c-1.508,1.245-0.72,0.369-2.709,2.291
		c-0.889,1.153-4.02,3.711-5.118,4.628c-1.025,0.856-1.831,0.675-2.399-0.581c-0.37-0.819-0.774-1.61-1.19-2.404
		c-0.826-1.577-1.692-2.929-3.821-2.217c-0.144,0.048-0.321-0.13-0.43-0.28c5.346-4.53,10.194-9.626,15.792-13.868
		c0.38-0.288,0.918-0.5,0.733-1.098c-0.105-0.338-0.527-0.193-0.81-0.252c0.353-0.844,1.05-0.82,1.782-0.708
		c1.262,2.225,2.659,4.352,3.311,6.912"/>
	<path class="st29" d="M47.627,17.021c-0.024-0.116-0.06-0.229-0.076-0.347c-0.491,0.446-0.915,0.962-1.28,1.52
		c-0.79,1.209-1.621,1.16-2.706,0.486c-0.55-0.342-1.084-1.078-1.882-0.421c-0.189,0.329-0.214,0.678-0.114,1.039
		c1.513,2.298,4.538,2.992,6.134,1.397c0.052-0.035,0.104-0.056,0.157-0.076C47.321,19.52,47.237,18.187,47.627,17.021z"/>
	<path class="st30" d="M87.768,28.084c-1.068,0.89-0.073-0.74-1.156,0.131c-0.711,0.572-0.807,0.387-0.872-0.554
		c-0.119-1.728-1.512-2.692-2.069-4.135c-0.596-1.546-1.674-1.939-3.127-0.955c-0.235,0.159-0.563,0.182-0.848,0.268
		c-0.112,0.129-0.225,0.258-0.337,0.388c-0.195,0.307-0.327,0.627-0.216,1.001c0.593,0.722,1.424,1.184,2.033,1.889
		c0.439,0.508-0.411,0.302-0.313,0.605c-0.616,1.434,0.506,1.939,1.387,2.571c1.135,0.753,0.319,1.266-0.222,1.814
		c-2.851,2.889-6.184,5.248-8.985,8.189c-0.223,0.363-0.512,0.638-0.878,0.882c-0.904,0.602-1.024,1.291-0.064,1.975
		c0.024-0.025,0.026-0.054,0.057-0.078c1.794-1.407,3.634-2.756,5.431-4.16c0.117-0.109,0.236-0.217,0.352-0.326
		c0.351-0.391,0.708-0.776,1.104-1.119c0.077-0.081,0.155-0.161,0.233-0.241c0.033-0.085,0.084-0.155,0.101-0.253
		c1.088-0.977,2.177-1.954,3.265-2.93"/>
	<path class="st31" d="M79.358,23.225c0.004,0.35,0.009,0.701,0.013,1.051c0.016,1.131-0.836,1.711-1.567,2.302
		c-3.006,2.431-5.725,5.184-8.667,7.68c-0.251,0.272-0.471,0.54-0.146,0.914c0.37,0.425,0.654,0.926,0.287,1.441
		c-0.432,0.606-1.046,0.373-1.616,0.161c-1.066-0.442-2.392-0.237-3.209-1.298c-0.372-1.087-0.784-2.187,0.728-2.779
		c0.199,0.727-0.243,1.546,0.29,2.248c1.861-1.847,3.176-4.169,5.437-5.566c-0.161,0.972-1.51,1.174-1.545,2.584
		C73.068,29.227,75.807,25.748,79.358,23.225z"/>
	<path class="st32" d="M33.167,49.907c-1.326-1.822-1.491-4.029-1.999-6.117c-0.228-0.937-0.284-1.919-0.833-2.757
		c-0.604-1.35,0.011-2.841-0.537-4.24c-0.257-0.656-0.432-1.361-0.768-2c-0.325-2.455-0.987-4.942,0.698-7.201
		c0.551-0.5,1.22-0.402,1.882-0.363c0.979,0.057,1.225,0.599,1.006,1.475c-0.358,1.441-0.714,2.881-0.908,4.358
		c-0.047,0.357-0.268,0.766-0.019,1.037c1.218,1.322,0.945,3.273,2.03,4.654c0.57,0.725,0.524,1.412-0.428,1.817
		c0.927,0.327,1.581,1.155,2.309,1.879c0.429,0.427,0.523,0.945,0.011,1.424c-0.418,0.505-1.269,0.081-1.592,0.747
		c0.487,0.361,1.049,0.212,1.569,0.287c0.78,0.112,1.182,0.511,1.007,1.343c-0.329,0.822-0.927,1.501-1.227,2.337
		c-0.282,0.371-0.451,0.805-0.675,1.206C34.273,50.546,33.723,50.512,33.167,49.907z"/>
	<path class="st33" d="M34.651,60.732c1.05-0.883,1.262-2.037,1.075-3.321c-0.168-0.19-0.173-0.421-0.179-0.658
		c-0.044-1.825,0.073-1.905,1.653-1.097c0.211,0.108,0.441,0.164,0.66,0.247c0.494,0.252,1.086,0.35,1.414,0.872
		c0.645,1.053-0.683,2.235,0.215,3.274c0.167,0.932-0.655,2.206,0.931,2.657c0.141,0.04,0.204,0.286,0.217,0.47
		c0.058,0.827-1.887,2.64-2.748,2.552c-1.499-0.154-2.949,0.453-4.46,0.246c-1.114-0.153-1.853-0.527-1.604-1.827
		C32.377,62.685,33.8,61.945,34.651,60.732z"/>
	<path class="st34" d="M33.167,49.907c0.448,0.147,0.915,0.362,0.962-0.425c0.034-0.57,0.434-0.913,0.838-1.244
		c0.146-0.076,0.298-0.089,0.457-0.044c0.625,0.359,1.208,0.399,1.841-0.056c0.59-0.424,1.256-0.777,1.946-0.114
		c0.507,1.86-1.181,2.468-2.024,3.558c-0.891,0.102-1.33,1.034-2.187,1.201c-0.119-0.018-0.237-0.041-0.353-0.071
		c-0.155-0.954-0.687-1.656-1.465-2.194C33.177,50.314,33.172,50.11,33.167,49.907z"/>
	<path class="st35" d="M35,52.782c0.169-1.118,0.867-1.577,1.946-1.56c0.649,0.778,0.397,1.82,0.79,2.673
		c0.128,0.737,0.271,1.475,0.148,2.23c-0.06,0.182-0.163,0.336-0.305,0.465c-0.529-0.335-1.058-0.67-1.613-1.022
		c-0.549,0.58-0.042,1.26-0.24,1.843c-0.568-0.662-0.594-1.466-0.38-2.214C35.601,54.303,35.412,53.544,35,52.782z"/>
	<path class="st36" d="M29.197,87.642c-1.103-0.028-2.375,0.186-2.259-1.582c1.23-3.636,1.301-7.543,2.616-11.158
		c0.317-1.502,1.324-2.766,1.499-4.318c0.149-0.449-0.178-0.972,0.213-1.383c0.467-0.417,1.01-0.747,1.641-0.596
		c2.156,0.517,4.342,0.161,6.51,0.289c0.68,0.04,1.709-0.229,1.752,0.769c0.036,0.816-0.908,1.017-1.625,1.176
		c-0.351,0.078-0.721,0.038-1.309,0.09c1.878,0.02,3.4-0.643,4.998-0.904c0.733-0.12,1.441-0.079,2.163-0.062
		c0.644,0.015,1.29,0.118,1.375,0.87c0.085,0.751-0.573,1.013-1.146,1.204c-2.651,0.885-5.451,1.078-8.157,1.716
		c-0.686,0.162-1.372,0.275-1.882,0.848c2.158-0.563,4.34-0.972,6.496-1.496c0.705-0.171,1.4-0.382,2.129-0.445
		c0.612-0.052,1.338-0.181,1.644,0.432c0.396,0.792-0.382,1.143-0.876,1.56c-2.911,0.937-5.831,1.846-8.787,2.632
		c-0.872,0.232-1.752,0.416-2.662,0.343c-0.978,0.018-1.412,0.677-1.484,1.499c-0.236,2.712-1.514,5.08-2.383,7.584
		c-0.101,0.29,0.052,0.596-0.039,0.889C29.493,87.74,29.352,87.76,29.197,87.642z"/>
	<path class="st37" d="M31.718,67.574c-0.483-0.189-0.65-0.595-0.726-1.063c0.008-0.599,0.015-1.198,0.023-1.797
		c0.094-0.032,0.189-0.039,0.286-0.023c1.238,1.411,2.927,1.029,4.394,0.845c1.552-0.194,3.11,0.349,4.645-0.225
		c0.473-0.177,1.066,0.123,1.528,0.43c0.466,0.309,0.903,0.702,0.786,1.311c-0.13,0.675-0.749,0.702-1.29,0.725
		c-0.964,0.041-1.929,0.015-2.894,0.015c-0.612,0-1.226-0.026-1.545,0.653C35.094,69.63,33.198,69.313,31.718,67.574z"/>
	<path class="st38" d="M36.456,68.34c-0.459-1.157,0.478-1.019,1.052-1.038c1.561-0.054,3.124-0.018,5.001-0.018
		c-0.984-1.457-2.257-1.397-3.352-1.454c-2.048-0.108-4.108-0.025-6.162,0.009c-0.857,0.014-1.59-0.081-1.694-1.146
		c0.126-0.271,0.252-0.542,0.378-0.813c0.124,0.018,0.248,0.035,0.372,0.053c0.001,1.191,0.684,1.495,1.764,1.523
		c1.737,0.046,3.433-0.748,5.157-0.096c0.33-0.889-1.372-0.707-0.682-1.541c0.426-0.514,1.308,0.055,2.01-0.616
		c-2.376-0.333-1.356-1.927-1.324-3.179c0.579-0.269,1.003,0.073,1.173,0.505c0.698,1.776,2.222,2.763,3.571,3.928
		c0.684,0.591,1.315,1.249,1.763,2.033c0.649,1.135,0.276,1.955-0.98,2.006c-2.33,0.094-4.636,0.628-6.983,0.373
		C37.083,68.857,36.703,68.732,36.456,68.34z"/>
	<path class="st39" d="M72.827,90.54c-2.152,0.571-4.324,0.899-6.565,0.729c-0.803-0.061-1.564-0.124-2.184-0.698
		c-0.017-0.257-0.139-0.455-0.343-0.61c-1.717-1.484-1.724-4.083-0.018-5.256c0.01,0.723-0.012,1.449,0.039,2.17
		c0.064,0.891,0.344,1.64,1.449,1.072c0.59-0.303,0.896,0.088,1.297,0.306c0.484,0.263,0.971,0.522,1.539,0.286
		c1.286-0.534,2.426-0.687,3.693,0.317c0.71,0.563,1.874,0.004,1.891-0.966c0.034-1.905,1.22-1.756,2.455-1.729
		c0.674,0.015,1.396-0.025,1.462,0.926c0.092,1.324-0.242,2.396-1.703,2.783c-0.164,0.044-0.302,0.188-0.452,0.286
		C74.648,91.045,73.816,91.316,72.827,90.54z"/>
	<path class="st40" d="M63.028,122.879c-1.057-1.802,0.231-3.619-0.033-5.427c-0.233-0.816,0.059-1.591,0.176-2.384
		c1.144-3.49,0.911-7.037,0.452-10.592c-0.215-1.666-0.492-3.337,0.504-4.878c0.952,0.863,0.17,1.936,0.329,2.902
		c0.123,0.746,0.032,1.502,1.102,1.487c0.858,0.709,0.503,1.653,0.469,2.521c-0.134,3.439-0.556,6.861-0.656,10.202
		c0.257-0.403-0.461-1.198,0.546-1.449c0.001,1.333,0.074,2.671-0.022,3.997c-0.071,0.98,0.347,1.743,0.743,2.547
		c-0.296,0.878-0.921,1.247-1.826,1.187c-0.344-0.316-0.315-0.698-0.188-1.098c-0.153,0.261-0.16,0.59-0.379,0.823
		C63.872,123.014,63.481,123.18,63.028,122.879z"/>
	<path class="st41" d="M64.127,99.598c-0.153,3.954,0.56,7.881,0.359,11.84c-0.073,1.436-0.248,2.834-0.739,4.187
		c-0.683-0.465-0.835-1.162-0.681-1.891c0.192-0.907,0.014-1.773-0.118-2.651c0.121-2.6-0.016-5.156-0.951-7.642
		c-0.605-1.607-0.59-3.306-0.278-4.992c0.065-0.689-0.047-1.385,0.071-2.07c0.054-0.17,0.14-0.328,0.243-0.472
		c0.682-0.344,0.925-1.013,1.197-1.66c0.066-0.043,0.133-0.085,0.201-0.127c0.414,0.354,0.826,0.711,1.242,1.062
		c0.318,0.268,0.529,0.753,0.103,0.866c-1.993,0.526-0.913,1.789-0.763,2.833C64.046,99.12,64.088,99.359,64.127,99.598z"/>
	<path class="st42" d="M63.717,84.705c-0.615,1.107-0.325,2.366-0.576,3.544c-0.246,1.155,1.401,1.001,1.664,1.912
		c-1.144,0.197-2.284,0.456-3.454,0.221c-0.164-0.09-0.306-0.211-0.427-0.355c-0.839-1.913-1.232-3.765,0.7-5.33
		c0.171-0.138,0.046-0.46,0.059-0.697c0.036-0.382,0.261-0.611,0.6-0.749c0.62-0.365,1.154-0.817,1.396-1.521
		c0.178-0.519,0.445-0.661,0.899-0.298C64.292,82.524,64.005,83.614,63.717,84.705z"/>
	<path class="st14" d="M66.744,95.225c1.233-1.56,3.008-1.398,4.569-1.625c1.867-0.272,3.448-0.973,4.96-1.989
		c0.316-0.212,0.623-0.776,1.035-0.25c0.339,0.433-0.086,0.791-0.386,1.066c-1.573,1.439-3.303,2.633-5.502,2.778
		C69.868,95.308,68.303,95.225,66.744,95.225z"/>
	<path class="st43" d="M65.917,115.26c-0.721,1.076,0.016,2.379-0.615,3.727c-0.513-5.174,0.505-10.079,0.257-15.001
		c0.01-0.113,0.016-0.226,0.018-0.34c0.675-0.372,0.889,0.023,0.874,0.591c-0.023,0.888,0.182,1.791-0.142,2.662
		C66.178,109.687,66.047,112.474,65.917,115.26z"/>
	<path class="st41" d="M61.192,89.801c1.153,0.638,2.407,0.265,3.614,0.361c-0.243,0.136-0.485,0.273-0.727,0.409
		c-0.595-0.021-1.259-0.171-1.61,0.491c-0.368,0.695,0.268,0.974,0.679,1.261c0.752,0.526,0.328,1.179,0.28,1.798
		c0,0-0.14,0.113-0.14,0.113c-0.853,0.267-0.381,1.278-0.956,1.701l-0.115,0.097c-0.397,0.036-0.704-0.143-0.933-0.44
		C60.503,94.578,60.451,90.952,61.192,89.801z"/>
	<path class="st14" d="M63.028,122.879c0.359-0.114,0.719-0.228,1.078-0.342c0.274-0.012,0.48,0.121,0.662,0.307
		c0.719-0.173,1.062-1.026,1.87-1.039c0.126,0.005,0.252,0.01,0.378,0.015c0.021,0.743-0.255,1.242-1.013,1.501
		c-0.44,0.15-1.013,0.403-1.184,0.77c-0.859,1.844-1.489,0.786-2.166-0.099C62.779,123.62,62.904,123.249,63.028,122.879z"/>
	<path class="st14" d="M72.827,90.54c0.853-0.128,1.706-0.256,2.559-0.384c0.602,0.172,0.646,0.438,0.162,0.835
		c-1.07,0.875-2.411,0.978-3.676,1.284c-0.169,0.041-0.501-0.11-0.578-0.262c-0.176-0.349,0.131-0.553,0.405-0.66
		C72.151,91.176,72.595,91.012,72.827,90.54z"/>
	<path class="st40" d="M66.308,106.901c-0.348-1.061,0.687-2.434-0.732-3.254c-0.002-0.662-0.019-1.324-0.001-1.985
		c0.01-0.367,0.091-0.776,0.562-0.761c0.347,0.011,0.493,0.349,0.477,0.66C66.521,103.341,67.036,105.157,66.308,106.901z"/>
	<path class="st14" d="M69.816,92.206c-0.933,1.105-1.853,0.945-2.778,0.66c-0.065-0.02-0.127-0.385-0.061-0.443
		C67.796,91.702,68.693,91.956,69.816,92.206z"/>
	<path class="st20" d="M67.022,57.043c-0.504,0.031-0.976,0.019-0.719,0.807c0.491,1.502-0.246,2.072-1.682,2.133
		c-0.764,0.033-1.522,0.218-2.283,0.335c-1.296-0.905-1.371-1.404-0.351-2.426c0.448-0.449,1.085-0.728,1.242-1.429
		c0.33-0.725,0.891-1.282,1.382-1.889c0.526-0.65,0.747-1.321,0.238-2.256c-1.141,1.193-1.736,2.692-3.179,3.478
		c-1.177,0.641-2.121,0.77-3.04-0.309c-0.268-0.382-0.425-0.798-0.396-1.271c0.46-1.465,0.565-2.863-0.544-4.15
		c-0.38-0.44-0.576-1.033-0.347-1.659c1.467-1.719,2.791-3.576,5.041-4.442c0.716-0.276,1.372-0.771,0.713-1.817
		c-0.52-0.826,0.095-1.233,0.838-1.628c0.974-0.517,2.502-0.37,2.655-1.996c1.328-1.093,2.213-0.918,4.083,0.797
		c0.256,1.423-0.686,1.372-1.78,1.314c0.946,0.662,2.294,0.679,2.497,2.028c0.12,0.515,0.352,1.019,0.154,1.564
		c-0.278,0.791-0.871,1.207-1.633,1.523c-3.351,1.393-4.05,3.229-2.576,6.623c0.134,0.773,0.079,1.518-0.337,2.207
		C66.499,55.406,66.459,56.227,67.022,57.043z"/>
	<path class="st37" d="M37.594,68.385c2.226-0.131,4.452-0.261,6.678-0.395c0.353-0.021,0.779,0.061,0.989-0.296
		c0.307-0.521-0.266-0.708-0.476-1.033c-0.976-1.509-2.513-2.505-3.822-3.61c-1.076-0.909-0.822-2.389-1.986-3.029
		c-1.181-0.995,0.005-1.94,0.061-2.909c1.27,0.876,1.858,2.159,2.158,3.614c0.101,0.878,0.72,1.511,1.385,1.803
		c2.648,1.165,4.426,3.211,6.033,5.493c0.421,0.598,1.071,0.839,1.743,0.365c1.117-0.787,2.455-0.993,3.681-1.492
		c0.769-0.313,1.502-0.326,2.279-0.013c1.042,0.421,2.074,0.567,3.111-0.126c0.831-0.556,1.477,0.07,2.124,0.503
		c0.842,2.107,1.329,4.192-0.361,6.15c-2.05,0.616-3.956,1.491-5.572,2.945c-0.354,0.319-0.871,0.382-1.349,0.127
		c-1.389-2.11-3.348-2.906-5.806-2.327c-0.827,0.195-1.638,0.426-2.29-0.379c0.092-1.038,1.045-1.048,1.699-1.381
		c0.676-0.344,0.729-0.732,0.257-1.268c-0.615-0.7-1.302-1.307-2.309-1.217c-2.604,0.234-5.081-0.899-7.685-0.683
		C37.606,69.272,37.141,69.072,37.594,68.385z"/>
	<path class="st44" d="M62.283,83.252c-0.124,0.238-0.247,0.475-0.371,0.713c-0.518,1.237-1.55,2.132-2.365,3.12
		c-0.687,0.834-1.376-0.2-1.641-0.93c-0.286-0.786-0.187-1.676-0.478-2.479c-0.045-0.171-0.059-0.349-0.054-0.525
		c0.157-1.466,0.522-3.023-1.763-3.178c-0.37-0.025-0.729-0.393-0.862-0.837c0.348-1.445,2.734-3.788,4.048-3.963
		c0.889-0.118,1.817,0.201,1.758,1.088c-0.089,1.337,0.198,2.518,0.653,3.714C61.813,80.988,61.039,82.451,62.283,83.252z"/>
	<path class="st45" d="M61.209,79.977c-0.248-0.396-0.364-0.936-0.91-1.037c-0.862-0.16-0.616-0.499-0.353-1.093
		c0.3-0.676,0.567-1.637-0.272-2.084c-0.763-0.406-1.732,0.102-2.009,0.747c-0.563,1.305-2.383,1.223-2.674,2.688
		c-0.116,0.138-0.262,0.214-0.444,0.219c-0.275-0.058-0.464-0.225-0.598-0.465c-0.193-0.667-0.407-1.331-0.386-2.041
		c0.113-0.352,0.238-0.691,0.721-0.59c1.209-0.231,1.892-1.231,2.748-1.948c1.253-1.05,2.591-1.424,4.159-0.961
		c0.457,0.598,1.982,0.298,1.657,1.289c-0.407,1.244-0.209,2.998-2.066,3.389c0.377,0.835,1.549,0.027,1.608,0.909
		C62.429,79.597,61.658,79.703,61.209,79.977z"/>
	<path class="st46" d="M58.674,54.215c0.113,0.34,0.226,0.679,0.339,1.019c-0.078,1.804,1.343,1.287,2.277,1.411
		c0.796,0.106,1.619-0.499,2.427,0.035c0.004,0.431-0.015,0.859-0.487,1.065c-1.232,0.537-1.842,1.283-0.893,2.574
		c-2.58,1.57-5.196,3.07-8.084,4.025c-1.599-0.256-3.151-0.72-4.635-1.334c-0.831-0.344-0.868-1.067-0.198-1.73
		c0.131-0.129,0.286-0.226,0.455-0.295c1.243-0.252,2.416-0.722,3.554-1.208c-1.583-0.272-2.677-1.058-3.255-2.697
		c-0.454-1.286-1.075-2.542-1.865-3.689c0.717-1.68,1.909-2.42,3.737-2.327c0.998,1.333-0.768,1.965-0.77,3.044
		c0.184,1.497,0.917,1.569,1.899,0.672C54.885,53.219,56.77,53.702,58.674,54.215z"/>
	<path class="st47" d="M41.195,60.728c-1.251-0.888-1.958-2.1-2.158-3.615c-0.331-0.606-0.998-0.275-1.458-0.522
		c0.02-0.106,0.044-0.212,0.071-0.316c1.177-1.112,2.827-0.492,4.133-1.137c1.053-0.046,1.812,0.618,2.518,1.215
		c1.351,1.142,2.785,1.968,4.547,2.363c1.665,0.373,1.927,1.273,1.066,2.711l0,0c-1.706,1.223-3.434,0.216-5.153,0.046
		c-0.821-0.081-1.632-0.433-2.466-0.077C41.929,61.173,41.562,60.95,41.195,60.728z"/>
	<path class="st48" d="M42.296,61.396c0.281-0.918,0.978-0.661,1.615-0.57c1.993,0.284,3.976,0.668,6.004,0.601
		c-1.271,1.446,0.426,1.359,0.875,1.342c1.474-0.057,2.588,0.434,3.464,1.575c-0.6,0.683-1.485,0.763-2.265,1.054
		c-0.709,0.264-1.076,0.548-1.601-0.655c-0.782-1.792-3.084-1.851-4.779-2.536C44.565,61.784,43.404,61.656,42.296,61.396z"/>
	<path class="st49" d="M72.106,42.144c-0.824-1.58,1.165-1.556,1.446-2.507c-0.654-0.95-1.554-0.592-2.413-0.454
		c-0.204,0.096-0.365,0.241-0.483,0.433c-1.194,1.734-1.804-0.431-2.772-0.437c-0.432,1.365,0.412,1.988,1.417,2.475
		c0.58,0.281,1.271,0.329,1.744,0.837c0.23,0.011,0.461,0.021,0.691,0.032c0.104-0.1,0.208-0.2,0.312-0.3
		C72.066,42.197,72.081,42.17,72.106,42.144z"/>
	<path class="st50" d="M23.726,100.714c-0.12-0.004-0.24-0.007-0.36-0.008c-2.31-0.854-2.073-0.129-3.387,1.513
		c-0.347,0.433-0.291,1.178-0.985,1.396c-1.054,0.17-0.538,1.537-1.407,1.848c-1.314,0.198-1.403,1.51-1.86,2.322
		c-1.812,3.219-3.173,6.692-5.506,9.618c-0.156,0.195-0.119,0.453-0.013,0.684c-0.331,2.25-0.364,2.259-2.714,1.618
		c-0.39-0.107-0.824-0.056-1.237-0.078c1.112-2.541,2.823-4.721,4.294-7.042c1.508-2.38,3.176-4.66,4.673-7.047
		c0.561-0.896,0.837-1.971,1.243-2.964c1.018-0.536,1.897-1.09,2.507-2.231c1.061-1.983,3.312-2.594,5.103-3.726
		C24.542,97.846,24.345,100.156,23.726,100.714z"/>
	<path class="st51" d="M24.102,96.745c-1.054,0.869-1.566,2.327-3.372,2.404c-0.691,0.029-1.452,1.412-1.81,2.176
		c-0.6,1.281-1.44,1.233-2.454,1.247c0.181-0.446,0.345-0.934,0.873-1.063c0.71-0.175,0.782-0.447,0.486-1.137
		c-0.426-0.994-0.337-1.048,0.763-1.107c0.235-0.013,0.356-0.079,0.337-0.278c-0.192-2.007,1.512-2.656,2.644-3.716
		c0.302,0.121,0.343,0.913,0.713,0.55c1.543-1.517,3.113-3.043,3.863-5.159c0.051-0.143-0.128-0.327-0.226-0.479
		c0.695-0.234,0.734-0.997,1.165-1.443c1.491,0.246,2.711-0.476,3.955-1.114c0.286-0.01,0.544,0.068,0.766,0.252
		c0.628,1.199-0.44,1.667-1.022,2.33c-0.597,0.68-1.456,0.977-2.209,1.425c-0.876,1.347-1.776,2.678-2.788,3.928
		C25.34,96.109,24.934,96.736,24.102,96.745z"/>
	<path class="st52" d="M25.918,90.182c1.208-0.084,1.592,0.225,0.782,1.371c-1.148,1.625-2.325,3.223-3.752,4.61
		c-0.458,0.445-0.843,1.481-1.707,0.833c-0.796-0.598,0.445-1.093,0.327-1.726C23.018,93.574,24.468,91.878,25.918,90.182z"/>
	<path class="st53" d="M31.069,88.036c-1.222,0.841-2.512,1.298-3.987,0.703c0.487-0.786,1.979,0.365,2.115-1.097
		c0.111,0.012,0.218-0.002,0.322-0.043c0.298-0.332,0.661-0.383,1.068-0.249C30.864,87.496,31.034,87.718,31.069,88.036z"/>
	<path class="st54" d="M24.102,96.745c1.33-1.829,2.659-3.658,3.989-5.487c0.638,0.302,1.341-0.114,1.982,0.174
		c0.264,0.047,0.52,0.114,0.751,0.257c0.662,1.062,2.414,1.444,1.996,3.183c-0.485,0.083-0.622,0.478-0.843,0.847
		c-0.759,1.266-1.597,2.419-3.382,2.102c-0.962-0.17-1.211,0.525-1.362,1.299c-0.142,0.731,0.173,0.878,0.792,0.688
		c0.489-0.15,0.994-0.612,1.43,0.067c0.162,0.251,0.326,0.569,0.096,0.837c-0.499,0.581-1.089,0.265-1.668,0.123
		c-0.339-0.083-0.699-0.079-1.475-0.157c1.335,1.508,3.149,1.151,4.556,2.318c-2.223,0.629-3.889-1.108-5.782-0.833
		c-0.289-0.68-0.997-0.94-1.456-1.449c0.038-0.044,0.117-0.118,0.109-0.128C22.812,99.227,23.657,98,24.102,96.745z"/>
	<path class="st55" d="M10.208,118.085c-0.873-0.201-0.706-0.74-0.298-1.187c3.148-3.448,4.124-8.112,6.699-11.874
		c0.293-0.429,0.037-1.538,0.933-1.198c0.706,0.268-0.056,1.072,0.044,1.635C15.258,109.746,13.299,114.247,10.208,118.085z"/>
	<path class="st54" d="M18.994,103.614c0.269-0.911,0.489-1.777,1.155-2.587c1.075-1.308,2.034-1.32,3.217-0.321
		c-1.674,0.068-2.951,1.077-3.031,2.394C20.257,104.379,20.257,104.379,18.994,103.614z"/>
	<path class="st56" d="M37.201,94.54c-0.127,0.243-0.254,0.485-0.38,0.728c-1.382,0.356-2.766,0.726-4.002-0.396
		c-0.449-1.149-2.003-1.442-2.171-2.808c0.472-1.071,1.428-1.693,2.248-2.442c0.14-0.217,0.887-0.381,0.229-0.664
		c-0.568-0.244-1.011-0.596-1.488-0.935c-0.189,0.004-0.379,0.008-0.568,0.012c-0.144-0.145-0.288-0.291-0.432-0.436
		c0.09-0.167,0.217-0.3,0.377-0.402c0.379-0.212,0.81-0.339,1.221-0.277c2.237,0.341,4.09-0.673,6.009-1.565
		c2.237-1.04,3.668-2.676,4.199-5.088c0.078-0.356,0.152-0.71,0.39-1.002c0.105-0.147,0.229-0.278,0.366-0.395
		c0.723-0.533,1.444-1.066,2.283-1.423c0.961-0.41,1.682-1.067,2.245-1.982c1.112-1.805,2.142-1.92,3.811-0.586
		c0.843,0.674,1.61,1.426,2.351,2.207c0.492,0.513,0.77,1.066,0.328,1.753c-0.514,0.613-1.142,0.354-1.653,0.099
		c-1.938-0.967-3.378-0.099-4.692,1.207c-3.31,3.29-5.993,7.039-8.181,11.161C39.052,92.507,38.533,93.851,37.201,94.54z"/>
	<path class="st57" d="M48.828,13.154c-0.214-2.573-1.232-4.765-2.956-6.627C45.809,6.47,45.751,6.408,45.7,6.341
		c-0.053-0.055-0.1-0.113-0.154-0.168c-1.018-0.86-2.516-1.332-3.275-0.437c-0.963,1.136-2.166,1.167-3.273,1.657
		c-2.329,1.03-5.083,0.876-7.171,2.626c-0.43,0.36-1.235,0.344-1.278,1.091c-0.046,0.787,0.81,0.787,1.221,1.184
		c0.205,0.429,0.601,0.637,1.019,0.65c2.517,0.081,5.01,0.82,7.548,0.275c0.834-0.179,1.678-0.228,2.511-0.053
		c0.513,0.108,0.838,0.412,0.547,1.074c-1.296-0.446-2.504-0.486-2.862,1.126c-0.264,1.19-0.344,2.456,1.342,2.783
		c0.76,0.468,1.218,1.348,2.151,1.582c0.618,0.155,1.558,0.818,1.81,0.252c0.781-1.754,2.673-2.59,3.339-4.372
		C48.598,14.859,48.897,13.979,48.828,13.154z"/>
	<path class="st58" d="M31.77,12.293c3.483,0.029,6.943,0.599,10.458,0.083c2.03-0.298,2.611,0.626,2.156,2.581
		c-0.085,0.366-0.159,0.722-0.595,0.803c-0.358,0.066-0.537-0.192-0.718-0.441c-0.339-0.468-0.59-1.236-1.356-0.826
		c-0.804,0.43-0.797,1.338-0.678,2.077c0.089,0.557,0.546,1.055,0.838,1.579c0.005,0.349,0.01,0.698,0.015,1.047
		c-1.178,2.025-2.404,4.013-4.214,5.56c-0.585,0.5-1.224,0.783-1.997,0.496c-0.526-0.196-0.608,0.16-0.687,0.53
		c-0.104,0.546-0.698,1.131,0.154,1.577c0.676,0.285,1.093-0.022,1.539-0.524c1.105-1.244,1.656-1.203,2.57,0.183
		c0.361,0.547,0.744,1.078,1.103,1.629c0.788,1.565,1.687,3.111,0.793,4.942c-0.999,0.095-0.999,0.095-1.692-1.654
		c-0.908,0.532-1.893,1.146-2.682-0.148c-0.175-0.298-0.408-0.561-0.542-0.884c-0.242-0.885-0.88-1.107-1.73-1.235
		c-1.743-0.262-1.926-0.66-1.364-2.391c-0.986-0.961-1.618-2.875-3.554-1.272c-0.227,0.188-0.69,0.135-1.04,0.119
		c-0.522-0.025-1.216,0.182-1.504-0.326c-0.399-0.703,0.523-0.933,0.752-1.435c-0.058-0.335-0.263-0.524-0.593-0.558
		c-0.692-0.071-1.618,0.112-1.788-0.785c-0.168-0.881,0.612-1.316,1.309-1.662c-1.345,0.012-2.571-0.243-3.109-1.734
		c-0.071-1.013,0.722-1.33,1.415-1.656c0.987-0.465,2.052-0.736,3.108-1.006c0.81-0.207,1.564-0.066,2.183,0.553
		c0.213,0.213,0.376,0.485,0.65,0.629c0.828,0.436,1.619,1.251,2.626,0.424c0.867-0.712,0.644-1.614,0.319-2.502
		c-0.392-1.068-1.043-1.602-2.224-1.093c-0.221,0.095-0.477,0.039-0.682-0.124c-0.991-0.259-0.741-1.057-0.699-1.713
		C30.371,12.184,31.181,12.402,31.77,12.293z"/>
	<path class="st59" d="M28.118,14.352c-1.164-1.773-2.713-2.424-4.76-1.668c-0.13,0.084-0.261,0.167-0.391,0.251
		c-0.372,0.479-0.7,1.004-0.969,1.597c-0.046,0.35-0.006,0.697,0.302,1.036c1.754,0.003,3.508,0.012,5.262,0.001
		c0.345-0.002,0.781,0.095,0.969-0.305C28.725,14.851,28.307,14.641,28.118,14.352z"/>
	<path class="st60" d="M65.18,32.698c-0.634,0.894-0.272,1.907-0.343,2.868c-0.036,1.032-0.561,1.543-1.598,1.434
		c-1.401-0.146-2.679,1.192-4.133,0.334c-0.951-1.328,0.216-2.375,0.421-3.824c-1.125,1.789-3.268,2.441-3.746,4.583
		c-0.08,0.36-0.425,0.72-0.783,0.658c-1.72-0.295-1.869,0.977-2.297,2.102c-0.544,1.429-1.549,1.693-2.896,1.019
		c-2.135-1.068-3.455-2.604-3.176-5.134c0.079-0.715-0.354-1.265-0.512-1.904c-0.158-1.071,0.436-2.046,0.377-3.104
		c0.029-4.166,0.608-8.294,0.82-12.446c0.383,0.216,0.766,0.433,1.149,0.649c0.332,0.724,0.664,1.396,1.616,1.518
		c0.937,0.12,1.373,0.93,1.852,1.626c0.654,0.95,1.24,1.944,1.69,3.007c0.47,1.111,1.039,1.834,2.463,1.397
		c1.094-0.336,2.08,0.046,2.461,1.253c0.278,0.882,0.637,0.859,1.451,0.553c1.222-0.459,2.644-0.35,3.723-1.27
		C65.242,29.253,65.031,31.032,65.18,32.698z"/>
	<path class="st61" d="M47.314,19.283c0.86,3.546,0.153,7.089-0.02,10.633c-0.032,0.657-0.007,1.318-0.008,1.977
		c-1.443,0.564-2.51-0.196-3.571-1.002c-1.227-0.932-2.383-1.999-4.017-2.183c-0.337-0.418-0.732-0.802-1.001-1.26
		c-0.712-1.215-1.107-1.746-1.627,0.183c-0.333,1.236-1.549,0.649-2.442,0.411c0.894-0.77,1.064-1.541,0.004-2.314
		c-0.301-0.561-0.548-1.164,0.162-1.566c0.515-0.291,0.957-0.284,1.227,0.487c0.253,0.719,0.665,0.141,0.925-0.114
		c0.892-0.874,1.934-1.585,2.478-2.81c0.492-1.109,1.375-1.948,2.467-2.527c1.108,1.564,2.888,1.516,4.487,1.742
		C47.677,21.122,46.507,19.573,47.314,19.283z"/>
	<path class="st62" d="M63.717,28.017c-0.003,1.872-1.526,1.627-2.634,1.745c-0.425,0.045-0.938-0.355-1.205,0.245
		c-0.893,2.005-1.543,0.574-1.706-0.252c-0.391-1.979-1.273-2.209-2.895-1.297c-0.858,0.482-1.355-0.222-1.708-0.874
		c-0.633-1.167-1.105-2.435-1.834-3.534c-0.601-0.905-0.947-2.077-2.594-2.027c-1.134,0.034-1.187-1.135-0.678-2.092
		c3.233,0.879,6.487,1.7,9.48,3.275c-0.129,0.22-0.326,0.339-0.568,0.399c-0.373,0.091-0.71-0.03-0.754-0.049
		c1.47-0.043,2.469,1.739,4.2,1.883c0.245,0.068,0.475,0.164,0.663,0.343C62.113,26.642,63.307,26.938,63.717,28.017z"/>
	<path class="st63" d="M60.767,25.812c-0.215,0.077-0.5,0.285-0.636,0.213c-1.886-1.001-3.751-2.04-5.932-3.241
		c1.601-0.524,2.591,0.613,3.745,0.423c0.471,0.263,0.942,0.527,1.413,0.79C59.961,24.498,60.803,24.814,60.767,25.812z"/>
	<path class="st60" d="M60.767,25.812c-0.47-0.605-0.94-1.21-1.41-1.815c1.035,0.207,1.559,1.023,2.128,1.785
		C61.245,25.792,61.006,25.802,60.767,25.812z"/>
	<path class="st64" d="M71.025,39.586c-0.123,0.01-0.246,0.02-0.369,0.03c-0.809-0.088-1.377-0.697-2.088-0.968
		c-0.497-0.189-1.232-0.876-1.565,0.263c-0.968-0.234-0.733-0.868-0.503-1.502c0.323-0.623,0.875-0.905,1.536-1.022
		c0.283,0.038,0.64,0.201,0.833,0.088c0.328-0.193,0.112-0.521-0.094-0.724c-0.487-0.48-0.845-1.042-0.628-1.716
		c0.182-0.567,0.403,0.024,0.61,0.078c2.746-0.115,4.828-1.265,6.014-3.833c0.158-0.341,0.465-0.599,0.817-0.677
		c1.43-0.316,2.199-1.383,2.978-2.479c0.68-0.957,1.559-1.281,2.636-0.593c-0.475,1.382,0.978,1.653,1.437,2.497
		c-0.644,1.879-2.313,2.87-3.645,4.133C76.514,35.515,74.098,37.963,71.025,39.586z"/>
	<path class="st65" d="M81.202,26.532c-1.145,0.232-2.017,0.727-2.686,1.81c-0.587,0.95-1.453,1.66-2.761,1.955
		c-0.82,0.185-0.969,1.645-1.737,2.405c-1.204,1.191-2.603,1.816-4.161,2.212c-0.593,0.151-0.665-0.617-1.098-0.8
		c0.422-1.402,1.787-1.897,2.735-2.778c2.583-2.399,5.247-4.712,7.878-7.06c0.508,0.114,1.311-0.233,1.484,0.335
		c0.332,1.085,1.344,1.723,1.609,2.798c0.027,0.109-0.135,0.352-0.252,0.386c-0.133,0.038-0.391-0.04-0.46-0.152
		C81.535,27.295,81.381,26.905,81.202,26.532z"/>
	<path class="st66" d="M71.025,39.586c0.508-0.773,1.034-1.421,1.845-2.027c2.134-1.594,4.039-3.523,6.005-5.324
		c1.167-1.069,2.052-2.71,3.764-3.207c0.501,0.081,1.204-0.165,1.337,0.584c0.103,0.578-0.338,0.977-0.758,1.352
		c-3.229,2.883-6.446,5.78-9.666,8.673C72.71,39.62,71.867,39.603,71.025,39.586z"/>
	<path class="st67" d="M68.037,36.388c-0.187,0.486-0.558,0.797-0.998,1.04c-0.584,0.181-0.479,0.813-0.774,1.184
		c-1.236-0.138-2.486-0.447-3.407,0.839c-0.347,0.485-0.972,0.298-1.266-0.073c-0.699-0.884-1.769-1.186-2.607-1.839
		c-0.078-0.166-0.07-0.328,0.023-0.486c1.658,0.309,3.103-1.185,4.836-0.575c0.2,0.07,0.656-0.59,0.994-0.911
		C65.953,35.647,67.123,35.518,68.037,36.388z"/>
	<path class="st68" d="M33.144,27.278c0.076,0.888,0.003,2.025,1.402,1.647c1.805-0.487,2.231,0.452,2.297,1.925
		c0.233,0.429,0.231,0.92,0.354,1.378c0.245,0.912,0.092,1.795-0.893,2.044c-1.039,0.263-0.972-0.781-1.246-1.394
		c-0.278-0.622-0.409-1.568-1.45-1.064c-0.9,0.436-0.802,1.201-0.485,2.012c0.277,0.709,0.855,1.173,1.358,1.652
		c0.979,0.934,1.461,1.999,1.385,3.334c0.198,2.116,1.528,3.228,3.415,3.846c1.45,1.155,1.457,1.718,0.024,2.698
		c-0.299,0.205-0.636,0.354-0.91,0.597c-0.137,0.126-0.294,0.22-0.466,0.288c-0.602,0.039-1.217,0.521-1.804-0.046
		c0.222-0.899-0.43-0.734-0.937-0.793c-0.906-0.105-1.884,0.308-2.713-0.366c0.997-0.988,2.196-0.692,3.399-0.504
		c0.145,0.147,0.302-0.223,0.153-0.031c-0.006,0.008-0.044-0.04-0.141-0.1c-0.301-0.184-0.656-0.325-0.526-0.793
		c-0.625-1.387-1.552-2.437-3.102-2.805c-0.297-0.07-0.863,0.192-0.78-0.41c0.068-0.489,0.528-0.64,0.992-0.497
		c0.422,0.131,0.921,0.671,1.142-0.138c0.129-0.471-0.29-0.751-0.734-0.876c-0.371-0.104-0.71-0.269-0.735-0.695
		c-0.169-2.854-1.612-5.591-0.728-8.554c0.183-0.613,0.695-0.974,0.925-1.69c-0.708-0.116-1.368-0.225-2.027-0.333
		C31.199,27.007,32.175,27.176,33.144,27.278z"/>
	<path class="st69" d="M35.36,43.61c0.611,0.619,1.537,0.067,2.328,0.67c-1.655,1.303-3.512,0.562-5.214,0.757
		C32.778,43.232,34.197,43.68,35.36,43.61z"/>
	<path class="st70" d="M36.124,46.197c0.574-0.136,1.147-0.271,1.721-0.407c-0.378,2.021-1.004,2.685-2.402,2.549
		c-0.159-0.033-0.318-0.067-0.476-0.101C35.167,47.452,35.505,46.745,36.124,46.197z"/>
	<path class="st71" d="M23.423,19.636c0.098-0.017,0.195-0.038,0.291-0.064c1.395,1.621,3.425,0.93,5.545,1.309
		c-1.079,0.812-2.014,0.958-2.869,1.278c-0.33,0.123-0.723,0.282-0.585,0.748c0.104,0.349,0.473,0.317,0.761,0.337
		c0.42,0.029,0.842,0.011,1.263,0.036c0.305,0.018,0.653,0.096,0.689,0.443c0.049,0.476-0.382,0.534-0.722,0.639
		c-0.281-0.004-0.563-0.009-0.846-0.013c-0.739,0.018-1.472,0.004-2.143-0.37c-0.341-1.028,0.337-2.499-1.334-2.991
		C23.336,20.948,23.434,20.106,23.423,19.636z"/>
	<path class="st72" d="M37.017,54.12c-0.279-0.959-0.21-1.927-0.072-2.897c0.537-1.173,1.935-1.797,2.057-3.232
		c-0.116-0.576,0.295-0.734,0.706-0.892c3.182-0.158,6.391,0.138,9.499-1.019c1.195-0.445,2.267,0.148,2.522,1.606
		c-0.047,0.714-0.527,1.041-1.138,1.235c-2.464,0.782-4.813,1.913-7.332,2.518c-1.738,0.418-3.063,1.97-5.054,1.729
		C37.729,53.11,37.702,54.136,37.017,54.12z"/>
	<path class="st73" d="M39.762,47.555c-0.253,0.145-0.507,0.29-0.76,0.435c-1.312,0.466-2.489,1.365-3.994,1.231
		c-0.123-0.418,0.295-0.584,0.434-0.883c1.361-0.324,1.029-2.241,2.403-2.55c-0.001,0,0.091-0.056,0.091-0.056
		c1.286-0.558,2.546-1.409,3.971-0.343c0.752,1.519,0.635,1.678-1.386,1.885C40.258,47.336,40.003,47.426,39.762,47.555z"/>
	<path class="st74" d="M37.017,54.12c0.221-0.862,0.295-1.783,1.069-2.565c0.336,1.108,0.965,1.483,1.887,0.684
		c1.422-1.233,3.217-1.626,4.937-2.073c2.22-0.577,4.196-1.832,6.475-2.198c1.177-1.534,1.877-1.669,3.495-0.673
		c0.229,0.365,0.285,0.764,0.216,1.184c-0.123,0.57-0.586,0.971-0.757,1.52c-0.54,0.786-1.142,1.463-2.241,1.237
		c-1.417,0.38-2.498,1.317-3.622,2.183c-1.056,1.627-3.366,2.585-5.385,2.228c-0.389-0.069-0.766-0.383-1.169-0.043
		c-1.278,1.157-2.82,0.629-4.273,0.67C37.027,55.677,37.199,54.847,37.017,54.12z"/>
	<path class="st53" d="M53.889,77.086c-1.507,0.376-1.975-1.086-2.843-1.732c-1.539-1.145-1.897-1.182-2.756,0.559
		c-1.01,2.047-3.175,2.389-4.934,3.33c-1.275,0.064-2.193,1.074-3.414,1.287c-1.296,0.481-2.643,0.826-3.865,1.496
		c-1.408,0.771-1.964,0.487-2.502-1.262c0.135-0.674,0.649-1.006,1.217-1.229c2.512-0.986,5.032-1.953,7.051-2.715
		c-1.414,0.432-3.239,1.317-5.157,1.949c-1.328,0.437-2.627,0.488-3.797-0.383c-0.833-0.62-0.551-1.057,0.332-1.289
		c3.952-0.612,7.697-2.014,11.549-3.011c0.516-0.024,0.952-0.465,1.507-0.29c0.654-0.079,1.345-0.049,1.956-0.256
		c2.248-0.765,4.145,0.237,6.023,1.171c0.712,0.354,0.243,1.062,0.028,1.611C54.152,76.575,54.02,76.831,53.889,77.086z"/>
	<path class="st75" d="M46.276,73.795c-0.476,0.233-0.96,0.424-1.507,0.291c0.276-0.219,0.552-0.438,0.829-0.656
		c-0.032-0.113-0.064-0.227-0.095-0.34c-2.686,0.634-5.376,1.256-8.058,1.909c-0.703,0.171-1.377,0.456-2.075,0.654
		c-0.431,0.123-0.956,0.518-1.286-0.078c-0.27-0.488,0.127-0.928,0.375-1.327c0.537-0.866,1.477-0.971,2.358-1.167
		c3.167-0.704,6.431-0.97,9.743-2.084c-0.966-0.771-1.847-0.49-2.67-0.336c-2.077,0.389-4.139,0.854-6.216,1.246
		c-0.438,0.083-1.106,0.302-1.295-0.249c-0.22-0.642,0.408-0.966,0.921-1.098c1.127-0.289,2.279-0.485,3.396-0.908
		c-3.111-0.08-6.188-0.573-9.281-0.175c0.1-0.633,0.201-1.266,0.301-1.9c0.105-0.367,0.343-0.562,0.58-0.172
		c1.074,1.77,2.573,1.515,4.158,0.937c0.379,0.015,0.758,0.03,1.137,0.045c0.221,0.838,0.92,0.642,1.489,0.66
		c2.109,0.065,4.217,0.044,6.329,0.166c1.517,0.088,2.598,0.601,3.629,1.654c1.142,1.166,0.711,1.71-0.572,2.14
		C47.733,73.251,47.007,73.53,46.276,73.795z"/>
	<path class="st76" d="M40.098,79.986c0.799-0.406,1.596-0.817,2.398-1.217c0.502-0.25,0.799-0.094,0.86,0.473
		c0,0,0.008-0.003,0.008-0.003c-2.413,2.705-5.8,3.848-8.863,5.506c-0.69,0.373-1.403,0.728-2.132,1.007
		c-0.885,0.338-1.319,0.944-1.468,1.827l-0.133-0.005c0,0-0.131,0.025-0.131,0.025c-0.372-0.001-0.744-0.001-1.117-0.001
		c-0.594-0.373-1.914-0.577-0.339-1.458c0.154-0.086,0.417-0.231,0.406-0.32c-0.298-2.352,2.02-3.994,1.685-6.384
		c-0.189-1.35,0.379-2.326,1.948-2.34c-0.086,0.263-0.749,0.483-0.11,0.799c0.871,0.43,1.764,0.752,2.778,0.413
		c2.285-0.763,4.58-1.495,6.876-2.224c0.549-0.174,1.117-0.286,1.735-0.25c-3.35,2.041-7.092,3.184-10.582,4.873
		c-0.496,0.66-1.038,1.293-1.339,2.286C35.387,82.536,37.621,80.942,40.098,79.986z"/>
	<path class="st77" d="M64.768,122.843c-0.221-0.102-0.441-0.204-0.662-0.307c0.099-0.814,0.019-1.696,0.818-2.263
		C65.977,121.227,65.119,122.017,64.768,122.843z"/>
	<path class="st78" d="M62.957,97.612c0.588,1.344,0.894,2.273,0.783,3.303c-0.033,0.304-0.097,0.64-0.478,0.64
		c-0.344,0-0.528-0.293-0.559-0.598C62.606,100.004,62.558,99.047,62.957,97.612z"/>
	<path class="st79" d="M62.332,95.935c-0.088-0.65-0.723-1.31-0.117-1.94c0.345-0.358,0.738,0.033,1.074,0.239
		C64.05,95.408,64.216,96.247,62.332,95.935z"/>
	<path class="st80" d="M61.176,89.79c-0.629-0.547-1.178-1.155-1.924-1.603c-1.955-1.174-1.223-3.183-1.339-4.919
		c0.77,1.094-0.078,2.677,1.198,3.812c0.533-1.479,1.457-2.503,2.801-3.116c0.62,0.122,0.971,0.717,0.472,0.979
		C60.092,86.152,61.054,88.054,61.176,89.79z"/>
	<path class="st81" d="M66.27,38.529c0.05-0.511,0.081-1.034,0.768-1.101c-0.271,0.488-0.527,0.976-0.035,1.483
		c0.427,0.932-0.275,1.142-0.898,1.392c-0.922,0.369-1.848,0.727-2.754,1.082c0.05,0.587,0.526,0.71,0.814,0.981
		c0.66,0.62,0.677,1.18-0.199,1.491c-1.173,0.416-1.861,1.717-3.306,1.664c-0.614-0.023-0.721,0.702-0.952,1.189
		c-0.45,0.947-1.038,1.752-2.246,1.735c-0.12,0.103-0.239,0.208-0.356,0.317c-0.518,0.553-1.025,1.142-1.879,0.554
		c-0.165-1.861,0.646-3.138,2.196-4.16c0.748-0.494,2.32-0.665,1.587-2.282c0.639-0.816,0.639-0.816,1.966-0.463
		c-1.555-0.729-1.774-0.665-1.883,0.558c-0.622,1.059-1.487,1.724-2.773,1.708c-0.682-1.567,0.329-3.128,0.014-4.694
		c1.205-0.687,2.67-0.392,3.907-1.037c0.355-0.185,0.835,0.135,1.098,0.479c0.729,0.955,1.509,0.866,2.297,0.132
		C64.386,38.854,65.317,38.68,66.27,38.529z"/>
	<path class="st82" d="M57.163,48.325c0.093,0.056,0.193,0.096,0.299,0.119c0.363,0.552,0.68,1.142,1.098,1.649
		c1.121,1.36,1.151,2.719,0.114,4.123c-1.024,0.185-1.956,0.779-3.107,0.085c-0.855-0.516-1.345,0.54-1.89,1.04
		c-0.594,0.545-1.137,1.182-2.037,0.811c-0.847-0.349-1.074-1.088-0.982-1.949c1.623-1.59,3.551-2.821,5.166-4.439
		C56.285,49.301,56.349,48.435,57.163,48.325z"/>
	<path class="st83" d="M63.717,56.68c-1.432,0.812-2.944,0.953-4.46,0.353c-1-0.396-1.636-1.002-0.243-1.798
		c1.097,0.724,2.748,0.236,3.764-1.184c0.416-0.581,0.712-1.251,1.034-1.895c0.254-0.507,0.51-0.978,1.198-0.851
		c0.742,0.137,0.888,0.695,0.962,1.332c0.11,0.946-0.046,1.779-0.777,2.469C64.671,55.597,64.207,56.152,63.717,56.68z"/>
	<path class="st80" d="M57.904,83.249c-0.156-2.094-1.501-3.212-3.269-3.983c0.118-0.023,0.237-0.046,0.355-0.068
		c0.17,0.062,0.343,0.116,0.51,0.187C58.083,80.476,58.095,80.495,57.904,83.249z"/>
	<path class="st48" d="M41.923,55.604c2.194-0.7,4.538-0.948,6.553-2.185c0.637,0.021,1.21,0.135,1.382,0.886
		c0.632,2.77,1.734,5.069,5.098,5.15c0.18,0.004,0.354,0.26,0.547,0.602c-2.036-0.109-3.517,1.711-5.587,1.369
		c0.148-0.931,0.267-2.006-1.017-2.044c-2.472-0.073-4.066-1.618-5.738-3.083C42.79,55.974,42.431,55.666,41.923,55.604z"/>
	<path class="st48" d="M57.163,48.325c-1.098,2.271-3.1,3.756-4.794,5.509c-0.482,0.498-1.138,0.257-1.711,0.368
		c-0.437-1.434,1.387-1.77,1.44-2.966c0.555-0.526,1.34-0.785,1.734-1.498c0.485,0.137,0.921,0.012,1.33-0.252
		c0.078-0.015,0.157-0.029,0.235-0.043C56.306,49.575,56.022,47.826,57.163,48.325z"/>
	<path class="st53" d="M31.637,88.024c0.465,0.096,0.932,0.185,1.395,0.29c0.549,0.125,1.475-0.218,1.552,0.471
		c0.074,0.662-0.577,1.252-1.378,1.386c-0.497-0.552-0.835-0.13-1.144,0.215c-0.597,0.664-1.287,1.192-2.092,1.573
		c-0.689-0.067-1.554,0.339-1.879-0.701c0.885-0.596,1.79-1.165,2.647-1.799C31.203,89.114,31.765,88.768,31.637,88.024z"/>
	<path class="st84" d="M29.97,91.959c0.581-1.086,1.637-1.73,2.445-2.605c0.309-0.334,0.745-0.859,1.196-0.405
		c0.461,0.464-0.337,0.779-0.405,1.221c-0.91,0.554-1.487,1.557-2.558,1.893C30.422,92.029,30.196,91.994,29.97,91.959z"/>
	<path class="st53" d="M30.9,87.579c-0.508-0.532-1.968-0.963-0.216-1.754c4.348-1.963,8.514-4.273,12.679-6.586
		c-0.574,1.282-0.25,2.801-1.367,4.002c-0.858,0.923-1.62,1.788-2.761,2.446C36.617,87.199,33.93,88.049,30.9,87.579z"/>
	<path class="st70" d="M41.916,45.736c-1.326-0.501-2.654-0.145-3.98-0.003c0.25-0.617,0.91-0.689,1.373-1.018
		c1.072-0.76,0.682-1.168-0.311-1.468c-1.246-1.196-2.387-2.474-3.2-4.017c0.211-1.179,0.041-2.223-0.937-3.062
		c-0.362-0.311-0.562-0.793-0.651-1.277c-0.102-0.555-0.111-1.165,0.446-1.455c0.499-0.26,0.684,0.239,0.937,0.589
		c0.506,0.701,0.86,0.351,1.2-0.22c0.421-0.706-0.066-1.568,0.434-2.246c0.909,1.132,1.358,0.412,1.761-0.444
		c0.124-0.264,0.154-0.639,0.518-0.652c0.467-0.018,0.47,0.439,0.64,0.734c0.458,0.793,0.041,1.817,0.695,2.55
		c0.744-0.027,1.217,0.376,1.563,0.981c0.572,1.16-0.107,2.345,0.087,3.553c0.224,1.4,0.319,2.73,1.614,3.631
		c0.391,0.272,0.623,0.733,0.617,1.256c-0.073,0.556-0.458,0.918-0.944,0.946C42.692,44.175,42.276,44.899,41.916,45.736z"/>
	<path class="st85" d="M41.961,34.885c-0.373-0.379-0.746-0.758-1.119-1.137c0.317-1.839-0.511-3.417-1.143-5.041
		c0.053-0.705,0.208-1.301,1.059-0.657c1.099,0.832,2.55,1.216,3.376,2.358c0.818,1.13,2.255,0.686,3.154,1.485
		c0.364,1.125-0.751,1.897-0.707,2.946c-0.099,1.032-0.165,2.163-1.412,2.436c-1.263,0.277-1.998-0.549-2.503-1.595
		C42.503,35.344,42.271,35.084,41.961,34.885z"/>
	<path class="st86" d="M37.228,31.56c-0.023,0.422-0.057,0.843-0.067,1.265c-0.02,0.795,0.008,1.724-0.771,2.097
		c-0.955,0.457-0.765-1.061-1.639-1.167c-0.092,1.236,0.199,2.336,1.179,3.007c1.2,0.821,1.091,1.564,0.198,2.461
		c-0.414,0.235-0.568-0.114-0.775-0.345c0.019-1.783-1.058-2.811-2.357-3.851c-0.812-0.65-1.268-1.803-0.819-2.932
		c0.403-1.015,1.393-1.432,2.369-1.375c1.006,0.058,0.899,1.129,1.108,1.84c0.128,0.437-0.081,0.963,0.461,1.489
		c0.978-0.949,0.527-2.163,0.728-3.196C36.97,31.087,37.099,31.323,37.228,31.56z"/>
	<path class="st87" d="M34.632,25.727c1.32-0.333,2.007,0.58,1.986,1.539c-0.026,1.215-1.32,0.467-1.99,0.775
		C33.199,27.268,33.514,26.497,34.632,25.727z"/>
	<path class="st88" d="M41.961,34.885c0.778,0.106,1.249,0.677,1.717,1.202c1.017,1.139,1.747,1.08,2.289-0.409
		c0.114-0.313,0.405-0.561,0.614-0.839c0.865,0.863,0.817,1.955,0.799,3.056c-0.019,1.175,2.308,3.72,3.465,3.831
		c0.632,0.06,1.047-0.219,1.206-0.844c0.193-0.762,0.36-1.532,0.576-2.288c0.192-0.674,0.378-1.352,1.326-0.667
		c1.142,0.825,1.452,0.248,1.419-0.903c-0.025-0.865-0.265-2.016,1.341-1.371c0.126,0.051,0.609-0.334,0.628-0.544
		c0.137-1.491,2.197-1.513,2.278-3.029c0.004-0.081,0.31-0.238,0.435-0.206c0.476,0.122,0.4,0.558,0.38,0.895
		c-0.09,1.552-0.952,2.854-1.428,4.282c-0.035,0.104-0.056,0.211-0.061,0.321c-0.524,1.113-1.616,1.689-2.413,2.544
		c1.247,1.596,0.141,3.138-0.108,4.699c0.082,1.388-0.333,2.486-1.752,2.996c-1.199-0.835-2.216,0.024-3.289,0.355
		c-0.268-1.135-1.027-1.881-2.082-1.268c-2.552,1.483-5.264,0.75-7.915,0.875c-0.541,0.025-1.085-0.011-1.627-0.019
		c0.134-0.128,0.268-0.256,0.402-0.384c1.194-0.118,2.348-0.225,3.316-1.144c0.558-0.53,1.456-0.517,2.224-0.686
		c0.943-0.208,1.927-0.221,2.835-0.582c0.538-0.214,1.331-0.323,1.085-1.148c-0.206-0.69-0.878-0.415-1.408-0.375
		c-2.015,0.153-2.4-0.239-2.496-2.304c-0.135,0.774,0.432,2.088-1.239,2.302c-0.068-0.1-0.112-0.235-0.206-0.295
		c-2.926-1.874-2.923-4.591-2.194-7.53C42.119,35.254,42.005,35.061,41.961,34.885z"/>
	<path class="st89" d="M56.534,39.917c-0.029-1.638,1.06-2.217,2.413-2.544c1.615-0.26,2.638,0.587,3.198,1.969
		c0.891-0.474,0.165-1.835,0.978-1.636c1.041,0.254,2.596-1.175,3.148,0.823c-1.176,0.994-2.511,2.737-3.906,2.01
		c-1.65-0.86-2.947-0.444-4.445-0.262C57.479,40.33,56.997,40.046,56.534,39.917z"/>
	<path class="st90" d="M35.353,38.877c0.258,0.115,0.516,0.23,0.775,0.345c1.496,0.957,2.259,2.437,2.87,4.025
		C36.859,42.561,35.219,41.458,35.353,38.877z"/>
	<path class="st91" d="M44.48,43.234c0.824-0.831,0.849-1.818,0.54-2.859c-0.221-0.742-0.076-1.526,0.695-1.559
		c0.926-0.04,0.439,0.898,0.546,1.41c0.06,0.289,0.018,0.601,0.016,0.903c-0.01,1.441,0.444,2.014,1.986,1.347
		c1.414-0.611,2.371,0.042,2.402,1.363c0.016,0.706-0.26,1.078-0.923,1.346c-1.136,0.46-2.328,0.679-3.514,0.77
		c-2.081,0.159-3.835,1.882-6.065,1.217c0.387-0.72,2.213,0.319,1.754-1.435c-0.875-1.99-0.875-1.993,1.39-2.143
		C43.73,43.566,44.16,43.588,44.48,43.234z"/>
	<path class="st92" d="M54.674,47.613c0.748-0.903,1.278-1.933,1.752-2.996c0.559-1.028,1.895-0.905,2.582-1.742l0.002-0.001
		c1.404,0.074,1.312,0.837,0.648,1.638c-0.402,0.485-0.999,0.92-1.594,1.114c-1.893,0.615-2.247,2.221-2.666,3.818
		c0,0-0.005,0-0.005,0c-0.178,0.234-0.412,0.499-0.698,0.308c-0.422-0.281-0.296-0.684-0.063-1.053
		C54.646,48.337,54.66,47.975,54.674,47.613z"/>
	<path class="st81" d="M54.632,48.699c0.096,0.41-0.031,1.046,0.761,0.744c-0.146,0.622-0.417,1.208-1.134,1.188
		c-0.452-0.013-0.314-0.572-0.426-0.892C53.923,49.257,54.158,48.886,54.632,48.699z"/>
	<path class="st93" d="M40.098,79.986c-2.006,1.663-4.575,2.306-6.728,3.706c-0.493,0.32-1.223,0.407-1.466-0.086
		c-0.387-0.787,0.187-1.574,0.585-2.247c0.266-0.449,0.873-0.601,1.428-0.653c0.44,1.184,0.942,1.514,2.209,0.691
		C37.276,80.651,38.658,80.132,40.098,79.986z"/>
	<path class="st94" d="M59.008,42.875c-0.395-0.036-0.912,0.099-0.85-0.588c0.034-0.386,0.194-0.74,0.601-0.796
		c1.077-0.147,2.163-0.25,3.101,0.497c0.274,0.218,0.679,0.456,0.433,0.85c-0.212,0.339-0.568,0.63-0.923,0.828
		c-0.473,0.263-0.617-0.181-0.736-0.505c-0.383-1.046-0.963-0.868-1.623-0.288C59.01,42.874,59.008,42.875,59.008,42.875z"/>
</g>
</svg>
