<svg xmlns="http://www.w3.org/2000/svg" viewBox="0 0 4037 3016.2"><style>.st0{fill:#8d673c}.st1{fill:#ad8551}.st2{fill:#e1c4a1}.st3{fill:#e4d4c5}.st4{fill:#cba67c}.st5{fill:#957250}.st6{fill:#bf8e5a}.st7{fill:#a57839}.st8{fill:#bf9a6d}.st9{fill:#c7b097}.st10{fill:#e0e0dc}.st11{fill:#a0a094}.st12{fill:#d1c5b9}.st13{fill:#b1b5bc}.st14{fill:#85785f}.st15{fill:#968c78}.st16{fill:#676d57}.st17{fill:#72553b}.st18{fill:#ecebe7}.st19{fill:#ced1d3}.st20{fill:#747f72}.st21{fill:#524732}.st22{fill:#51574d}.st26{fill:#e5fafb}.st27{fill:#03f8fe}.st28{fill:#80584d}.st29{fill:#c58162}.st30{fill:#c8a699}.st31{fill:#694c44}.st32{fill:#4d6f98}.st33{fill:#007ac4}.st34{fill:#00bbfd}.st35{fill:#6c89a6}.st36{fill:#877265}.st37{fill:#a7624a}.st38{fill:#f8dee1}.st39{fill:#eebba9}.st40{fill:#f3cbc2}.st41{fill:#00aafc}.st42{fill:#c9e7f6}.st43{fill:#89b6d8}.st44{fill:#0093e2}.st45{fill:#6f97c3}.st46{fill:#87878a}.st47{fill:#2d425d}.st48{fill:#e59264}.st49{fill:#00edff}.st50{fill:#00cdfd}.st51{fill:#e09e7c}.st52{fill:#e5ab95}.st53{fill:#af7057}</style><g id="Layer_4"><path class="st0" d="M208.3 2220c65.9 157.7 131.6 315.2-151.7 399.2 211.2-168 213-279.8 8-343.8"/><path class="st1" d="M4331.1 3364.7l-18.8-70.6"/><path class="st2" d="M1988 3565.7c-43.6-60.9-36.8-112.6-19.4-158.8 19.3-51.3 47-137.5 73.3-138.7 84.2-3.9 210-33.4 170.7 159.8a69448 69448 0 00-99-32.6"/><path class="st3" d="M2542.7 3569.8l30.3-51.4 145.1-65 174.5-4.7"/><path class="st5" d="M64.5 2275.4c205 64 203.3 175.8-7.9 343.8 283.3-84 217.6-241.5 151.7-399.1M754 1929l75 231.5c-21.8 46-70.3 101.8-61.2 136.5 54.7 209.2-42 287.8-186.7 334.6L367 2745.4l25.3 63.8 237.8-31.5 199.6 58.2-50 146-65.8 63.9-77.1-109.7-121 184.2 47-166.3-155.8 29.2c-24.1-11.9-60.6-42-70.3-32.8-78.5 75-152 157.2-227 237.2L-4 3062.6l-46.4 42.8L55 3301.5"/><path class="st6" d="M55.2 3301.6l54.4-114c75-80 148.5-162.3 227-237.2 9.7-9.2 46.2 21 70.3 32.8 2.7 28.2-3.6 66.3 9.5 83.1 75.8 97.2 156.1 189.4 209.4 252.9l154.7-12.3-1.4 56.7-174.8 117.7-46-30c-16-43.5-32-87.1-48.2-130.7l-48.8-130.3-152.3 83-97.1 175.5"/><path class="st1" d="M356.9 3515.2c7-3.6 14.3-5.4 22-5.5l179.5-58.4 45.9 30 2 57.6"/><path class="st7" d="M211.9 3448.8l145 66.4"/><path class="st2" d="M4210 2438.8c-22.8-49-35-104.9-52-157.7l-119.8-116.8-81 144.9-175.4-59.8-73.3-29.4c32.6-22 65.3-44 100.9-67.8l-79.5-149.2"/><path class="st2" d="M3924.4 1842.7c-17.3 77.3-51.5 149.4-78.5 223.8 147.6-214.8 238-200.7 289.2 17.6"/><path class="st8" d="M4312.3 3294l18.8 70.7-127.1-89.4-37.6-364.8-159-15.8-175.8-235.7 100.8-90.6 72.9-55.8 45 111.7c24.2 3.8 51.9 14.1 78.4 11"/><path class="st4" d="M4204 3275.3l127 89.4M1791.2 3512.8c166.2-85.7 105.6-221.3 55.8-354.5l-24.4-145 98.8-1.4c8.1.6 16.3.7 24.4.5l25.3 65.6 30-65.7c6.4-19.4 13-38.7 19.5-58.1l143.5 119.3 58.9-151.8 34.8 58.1 45.5-50.7-135-151.3 1.1.6-23.1-28.6-53.7-116.4-71.5-191.6 130.2-120.6L1901 2367l-6.2-58.4c8.7-30.7 22.7-60.9 25-92.2 4-57.4 1.2-115.5 1.2-173.3"/><path class="st4" d="M2275.8 2102.6c31 19.3 55.8 72.4 65.2 115.7 16.4 76.3 18.8 157 27 235.7l1.3 60.9 25.4 110.8 47.4 120.7 25 148.8 24.4 262 4.7 55 47.4 92c7.6-.5 15 .7 22.2 3.3L2474 3381l99 137.5-30.4 51.4-100.1-60.4-201.5-54-28.5-27.4c39.3-193.2-86.5-163.7-170.7-159.8-26.3 1.2-54 87.4-73.3 138.7-17.4 46.2-24.2 98 19.4 158.8M1920.9 2043l149.8 199.2v-227.4"/><path class="st4" d="M2361.9 3031.7l-30.7-2.9v99.7l23 1.2 7.7-98z"/><path class="st9" d="M2291.7 3571.7l16.1-84.8 62.7 92.5"/><path class="st10" d="M2113.5 3395.4l99.1 32.6 28.6 27.4 11.7 111.7 16.7 14.7c7.9-2 15.3-5.4 22.1-10.3"/><path class="st8" d="M2573 3518.4l-99-137.5 91.8-73.4h76.4l62.4-215.5-114-79.1-123.5-117.7-25-148.7-.5 1 51 .3 24.3-.1 39.7 53.9 9.9-54.5-24.9-205.3 196.6-27 52.6 290.8-140-9.9-18 40.7 181.6 116.8 98.5-56 1 156-195.8 400.3-145 65z"/><path class="st11" d="M2892.6 3448.7c30-38.2 91.8-97.1 85.1-111.4-87.4-187.6 40-230.5 134.4-296.9l50.5 177.2-.4-.4-23.1 90.7-123.9 291.7"/><path class="st12" d="M2370.5 3579.3l72-69.9 100.2 60.4"/><path class="st13" d="M3112 3040.4c-94.3 66.4-221.7 109.3-134.3 296.9 6.7 14.3-55.1 73.2-85.1 111.4l-174.5 4.7 195.9-400.2a473498 473498 0 01200.2-134.4l-2.1 121.6z"/><path class="st4" d="M877.8 3538.6l-1.7-84-49.2-88.3-47.8-2.7 1.3-56.7-.8-325 50-146 49.2 58.6c-43.7 137.6-43.7 257 95 318.4"/><path class="st5" d="M606.3 3539l-2-57.7L779 3363.6l47.8 2.7 49.2 88.3 1.7 84-187.1 18"/><path class="st6" d="M690.7 3556.6l187.1-18"/><path class="st8" d="M1400.3 3451.8l-.4.6c1.7-60 25.5-142.1 1.2-175.8-91.1-126.3-198-236.8-298.9-353.3l-.2-175.7.5.5 174-32 173 384.5 24 59 51.8 146.3 96.2 30.7 25.5 28 53.3 256.3"/><path class="st1" d="M978.2 3159l-24.5-235.9 48.3-28.1 49.4 27.6 50.8.7c101 116.5 207.8 227 299 353.3 24.2 33.7.4 115.9-1.3 175.8l-7.6-5.4 8 4.8"/><path class="st1" d="M1348.7 3600l-37-247-82.4 24"/><path class="st8" d="M974 3212.9l4.3-53.8"/><path class="st5" d="M1700.3 3620.9l-53.3-256.2c7.5 0 15 .1 22.4.4l121.8 147.7"/><path class="st8" d="M1229.3 3377l82.3-24 37.1 247"/><path class="st1" d="M3608.4 3625.5l223.4-57 1.3 1.3c57 17.7 132.2 70.3 167 45 53-38.5 105.5-128.7 109.1-200.5 5.2-103.3-33.7-209.7-53.8-314.7.6-9.4.9-18.8.8-28.2l.5-.9-1.9-58.4L3907 2952l100.4-57.3 159 15.8 37.6 364.8m-82.5-307.4l16.7 1c-2.3-2.5-4.5-6.7-7-7-2.6-.3-5.5 3.2-9.7 6z"/><path class="st8" d="M3607.6 3540.1l.8 85.4"/><path class="st1" d="M3263.3 3480.2c6.1-.3 12.3-.3 18.4 0l47 64.6M3015.2 3599.6l123.9-291.7 72.3-59.1.8 231.7"/><path class="st6" d="M2696.5 2014.5l-142.2 381.2 44.3 25.4 77.4-103.3 62.2 197-196.6 27-173.5-87.8c-8.3-78.8-10.7-159.4-27.1-235.7-9.4-43.3-34.3-96.4-65.2-115.7"/><path class="st1" d="M1201.2 1896l-123 147.7c-58.2 26-116.5 51.4-174.5 78.1-25.3 11.7-49.8 25.7-74.7 38.7L754 1929"/><path class="st6" d="M829 2160.5c24.9-13 49.4-27 74.7-38.7 58-26.7 116.3-52.1 174.5-78-49 73.6-94.7 150.7-148.3 219.3-23.8 30.5-87 38.8-91.3 66.1-12.5 80.1-4.5 164.7-4.5 252.8l33.6-16 134 298 2.3 2.7c-.1 9.5-.8 19-2 28.3l-48.3 28.2-75-28.7a637712 637712 0 01-49.1-58.6L630 2777.7l-48.9-146.1c144.7-46.8 241.4-125.4 186.6-334.6-9-34.7 39.5-90.5 61.3-136.5z"/><path class="st1" d="M779.6 2982l.8 325c-52.4 4-104.8 8.2-154.6 12.2-53.3-63.5-133.6-155.7-209.4-252.9-13.1-16.8-6.8-54.9-9.5-83.1l155.9-29.2-47 166.3 120.9-184.2 77 109.7 65.9-63.8zM581.1 2631.6l49 146-237.9 31.6-25.3-63.8L581 2631.6z"/><path class="st0" d="M109.6 3187.6l-54.4 114-105.6-196.2 46.4-42.9 113.6 125.1z"/><path class="st7" d="M558.4 3451.3l-179.5 58.4-69.9-236.4 152.3-83 48.8 130.3 48.3 130.7z"/><path class="st2" d="M309 3273.3l70 236.4c-7.7 0-15 1.9-22 5.5l-145.1-66.4 97.1-175.5z"/><path class="st4" d="M4135.1 2084.1c-51.2-218.3-141.6-232.4-289.2-17.7 27-74.3 61.2-146.4 78.5-223.7"/><path class="st9" d="M3932.4 2568.4l-100.7 90.6-93.9 91-12.1-98.3c-145 60.4-166 116.7-117.7 300.2l-91.3 2.4-55-89 92.4-377.7 70.7-5.3c233.3 92.7 91-168.2 157-232.9l175.5 59.8-25 259.2z"/><path class="st12" d="M3729.9 2003l79.5 149.2-101 67.8-83.6 262.3-70.7 5.3c-34.8 11.6-82.6 10-102.2 37-85.4 117.1-162.5 242.5-242.6 365l-47.8 4.9 2.2-207.9 268.7-295.2 180.7-257c38.9-43.9 77.8-87.7 116.8-131.4"/><path class="st14" d="M3729.9 2003L3613 2134.3l-53.6-2.5-127.2 32-67.7-36.5c-2.1-7.6-4.7-14.9-7.7-22"/><path class="st4" d="M4128.7 2635.2c-26.5 3.2-54.2-7.1-78.4-10.9l-45-111.7 152.7-231.5c17 52.8 29.2 108.6 52 157.7"/><path class="st8" d="M3624.8 2482.3c28-87.4 55.8-174.9 83.6-262.3l73.4 29.4c-66 64.7 76.3 325.6-157 233z"/><path class="st3" d="M4158 2281.1l-152.7 231.5-73 55.8 25-259.2 80.9-145 119.8 116.9z"/><path class="st4" d="M3737.8 2750l93.9-91c58.5 78.6 117 157.2 175.7 235.7L3907 2952l-121 181.9-5-33.8c-24-97.7-48-195.4-71.8-293.2l28.6-57z"/><path class="st6" d="M1920.9 2043c0 57.9 2.8 116-1.2 173.4-2.3 31.3-16.3 61.5-25 92.2h-119l-30.6-224.3-39.2-7-59.7 229.4-244.2 2c-15.7-37-29.3-75.4-47.5-110.6-32.5-62.9-67.8-123.8-101.9-185.5l271.9-59"/><path class="st8" d="M1900.9 2367l250.4-45.8-130.2 120.6 71.5 191.6-168.2 203.1 17.9 88.4-95.8-92c.9-142.4 53.7-327.5-168.7-286l-5.3-153.5L1901 2367z"/><path class="st2" d="M1924.4 2836.5l168.2-203 53.6 116.3 23.2 28.6-1-.6c18.1 48 36.4 95.9 54.6 143.9l-58.9 151.8-143.5-119.3-96.2-117.7z"/><path class="st6" d="M1846.5 2832.9l95.8 92c1.5 8 1.9 16.2 1.2 24.4l-22 62.7-98.9 1.2-76.4 59.3c-7.6-.8-15.3-1.2-23-1.2l-1-1-73.7-86.5 21-320.4 177 169.5z"/><path class="st8" d="M2070.7 2014.7v227.5L1921 2043"/><path class="st6" d="M1791.2 3512.8L1669.5 3365l42.2-102 60.6 11.8v-57l-.5-30 75.2-29.5c49.8 133.2 110.4 268.8-55.8 354.5z"/><path class="st14" d="M2590.6 3012.9l114 79.1-62.4 215.5h-76.4a54.9 54.9 0 00-22.2-3.3l-47.4-92-4.7-55 99.1-144.3z"/><path class="st5" d="M1900.9 2367a594996 594996 0 00-228.4 26.4l-26.3-86.7 59.7-229.4 39.2 7 30.6 224.3h119l6.2 58.4z"/><path class="st1" d="M2368 2454l173.6 87.8 24.9 205.3-49.6.6c-8 .1-16.2.2-24.3.1l-25.5-42.4-25.5 42 .5-1-47.4-120.6-1.9-53.3c2.9-3 8.6-7.2 8.1-9-2-7.5-5.8-14.3-9-21.3l-22.6-27.3-1.2-60.9z"/><path class="st15" d="M2590.6 3012.9l-99 144.3-24.5-262 123.5 117.7z"/><path class="st8" d="M2442.6 3509.4l-72.1 70-62.7-92.5-16 84.8a69.7 69.7 0 01-22.2 10.2 97.6 97.6 0 00-16.7-14.8c-4-37.2-7.8-74.5-11.7-111.7l201.4 54zM1847 3158.3l-75.2 29.5-25.6-115.3 76.4-59.3 24.4 145z"/><path class="st1" d="M2223 2921.7l-54.7-144 135 151.4-45.5 50.7-34.8-58.1z"/><path class="st3" d="M1943.5 2949.3a91 91 0 00-1.2-24.4l-17.9-88.4 96.2 117.7-19.6 58a40610 40610 0 00-55.2.2l-2.3-63z"/><path class="st1" d="M2361.9 3031.7l-7.6 98-23.1-1.2v-99.7l30.7 2.9z"/><path class="st6" d="M2369.3 2514.9l22.7 27.3.8 30.3 1.9 53.3-25.4-111z"/><path class="st2" d="M1945.8 3012.3h55.2l-29.9 65.7-25.3-65.7z"/><path class="st8" d="M2496.2 3212.2l47.4 92-47.4-92z"/><path class="st2" d="M1943.5 2949.3l2.3 63c-8.1.3-16.3.2-24.4-.4l22-62.6z"/><path class="st1" d="M2169.4 2778.4l-23.2-28.6 23.2 28.6z"/><path class="st9" d="M2252.9 3567.1c6 4.2 11.6 9.2 16.7 14.8l-16.7-14.8z"/><path class="st5" d="M2773.7 2246.5l201.9 75.8c5.9-63 12.8-126 17.3-189.1"/><path class="st5" d="M3356.9 2105.2l-276.2 99.9 58.2 338.9-51 144.8-.3.6-24 28-150.7 179.8-98.5 56-23.6-147.6-52.6-290.9-62.1-197-77.5 103.4-44.3-25.4 142.2-381.2"/><path class="st14" d="M2912.9 2897.2l150.6-179.7 24.1-28.1.4-.5 75.7-2.3-2.2 208-47.3 24.2-200.2 134.4-1.1-156z"/><path class="st4" d="M2790.8 2805.6l23.6 147.6-181.6-116.8 18-40.7 140 9.9zM2516.9 2747.7l49.6-.6-9.9 54.5-39.7-54zM2441.6 2747.5l25.5-42 25.5 42.3-51-.3z"/><path class="st15" d="M3114.2 2918.8l47.3-24.3 47.8-5 3.1 357.4-1 2-72.3 59 23-90.7 4.7-9-4.2 9.4-50.5-177.2 2-121.6z"/><path class="st2" d="M878.8 2894.5l74.9 28.7 24.5 235.9-4.3 53.8c-138.8-61.4-138.8-180.8-95.1-318.4z"/><path class="st6" d="M876 3454.6l-49-88.3 49 88.3z"/><path class="st1" d="M1646.2 2306.7l26.3 86.7 5.3 153.5-52.5 82-149.8-166.3-110.9 300.5 234.7 218.4-149.8 119.1-173-384.5-.5-50.6 126-356.8 244.2-2z"/><path class="st6" d="M1276 2665.6l.4 50.5-174 32 4.5-10.3-5 9.8.3 175.7-50.8-.7-47.4-56-2.2-2.7-6.8-102.6 244.6-411.9 36.4 316.2zM1449.5 3100.6l149.8-119c8 .3 15.8 1 23.6 2.1l-1.4 352.9-96.2-30.7-51.8-146.3-24-59z"/><path class="st1" d="M1621.5 3336.6l1.4-352.9h25.6l73.8 86.6c-5.5 9.3-11 18.7 2.5-4.3l-1.5 5.3c7.6 0 15.3.4 23 1.2l25.6 115.3.5 30v57l-60.7-11.9-42.2 102.1-22.5-.3-25.5-28.1zM1473.5 3159.6l51.8 146.3-51.8-146.3z"/><path class="st4" d="M1004 2866.7l47.4 55.9-49.4-27.6a236 236 0 002-28.3z"/><path class="st8" d="M1400.3 3451.8l-8-4.8 7.6 5.4.4-.6z"/><path class="st6" d="M3781 3100.1l5 33.8 121-182 147.8 60.2 1.8 58.4-.4 1c-2.9 2.5-8.5 6-8.2 7.6 1.5 7.1 4.8 13.7 7.4 20.5 20 105 59 211.4 53.8 314.7-3.6 71.8-56 162-109.2 200.6-34.7 25.2-109.8-27.4-166.9-45.1l20-170c-17.4-.7-34.8-1.2-52.3-1.8l31 170.5-223.4 57-.8-85.4 51-379.7L3781 3100z"/><path class="st8" d="M4056.6 3070.5zM4121.5 2968c4.2-2.9 7-6.4 9.6-6.1 2.6.3 4.8 4.5 7.1 7l-16.7-1zM4055.4 3099.6c-2.6-6.8-5.9-13.4-7.4-20.5-.3-1.6 5.3-5 8.2-7.7 0 9.4-.2 18.8-.8 28.2z"/><path class="st11" d="M3328.8 3544.8l34.6-180.6-3.2-57.6 55.3-92.6-54.2 2.5 100.5-351.2 54.9 89-56.6 673.3-.3.6"/><path class="st4" d="M3459.8 3628.2l.3-.6c16.5-40 37-78.3 48.5-120.1 34.6-126.4 65.6-254.2 98-381.4l52 34.3-51 379.7"/><path class="st5" d="M3360.2 3306.6l3.1 57.6-81.6 116c-6.2-.3-12.3-.3-18.5 0l-51 .3-.8-231.7 1-1.9 124.6.8 23.2 58.9z"/><path class="st8" d="M3212.2 3480.5l51-.2"/><path class="st4" d="M3281.7 3480.2l81.6-116-34.5 180.6-47.1-64.6z"/><path class="st7" d="M1524.5 1953.6l-271.9 59-51.4-116.6"/><path class="st4" d="M1201.2 1896l51.4 116.6c34.1 61.7 69.4 122.6 102 185.5 18.1 35.2 31.7 73.6 47.4 110.6l-126 356.8-36.4-316L995 2761.2l6.7 102.6-134-297.8-33.6 16c0-88.2-8-172.8 4.5-252.9 4.3-27.3 67.5-35.6 91.3-66.1 53.6-68.6 99.4-145.7 148.3-219.4l123-147.7"/><path class="st14" d="M3337 3247.7l-124.6-.8-3.1-357.4c80-122.4 157.2-247.8 242.6-364.8 19.6-27 67.4-25.5 102.2-37l-92.3 377.6-100.5 351.2-24.3 31.2z"/><path class="st12" d="M3606.6 3126.1c-32.4 127.2-63.4 255-98 381.4-11.5 41.8-32 80.2-48.5 120.1l56.6-673.3 91.3-2.4 2.4 36.6-3.8 137.6z"/><path class="st3" d="M3610.4 2988.6l-2.4-36.7c-48.3-183.5-27.3-239.8 117.7-300.2l12.1 98.2-28.6 57-98.8 181.7z"/><path class="st1" d="M3163.7 2686.6l-75.7 2.2 51-144.8 95.5-87.6 111-127c27.6 9.6 55.3 19 83 28.5l3.9 33.5-268.7 295.2z"/><path class="st15" d="M3432.4 2391.4l-3.8-33.5 130.8-226 53.6 2.4-180.6 257.1z"/><path class="st4" d="M3356.9 2105.2c3 7.2 5.5 14.5 7.6 22.1l-130 329.1-95.6 87.6-58.2-339 276.2-99.8"/><path class="st2" d="M3234.5 2456.4l130-329c22.6 12 45.1 24.3 67.7 36.4l-17.3 28.3-52.3 89-17 48.3-111 127z"/><path class="st16" d="M3415 2192l17.2-28.2 127.2-32-130.8 226.1-83.1-28.4 17-48.4 52.4-89z"/><path class="st8" d="M3610.4 2988.6l98.8-181.7 71.7 293.2-122.2 60.2a67926 67926 0 01-52-34.2l3.7-137.5z"/><path class="st9" d="M1625.3 2628.9l52.5-82c222.4-41.5 169.6 143.6 168.7 286l-177-169.5-44.2-34.5z"/><path class="st5" d="M1625.3 2628.9l44.2 34.5-21 320.4-25.6-.1c-7.8-1-15.7-1.8-23.6-2.2l-234.7-218.4c30.3-82 68-184.5 111-300.5l149.7 166.3z"/><path class="st8" d="M1772.3 3274.8v-57 57z"/><path class="st4" d="M2392.8 2572.5l-.8-30.3c3.1 7 7 13.8 9 21.3.4 1.8-5.3 6-8.2 9z"/><path class="st17" d="M2993 2133.2c-4.6 63.1-11.5 126-17.4 189l-202-75.7"/><path class="st1" d="M3087.6 2689.4l-24 28.1 24-28.1z"/><path class="st11" d="M3162.6 3217.6l4.2-9.5-4.6 9 .4.5z"/><path class="st8" d="M1102 2747.6l5-9.8-4.6 10.3-.4-.5z"/><path class="st6" d="M1723.3 3071.3l1.5-5.3c-13.5 23-8 13.6-2.5 4.3l1 1z"/><path class="st1" d="M3831.8 3568.5l-31-170.5 52.4 1.7-20 170-1.4-1.2z"/><path class="st4" d="M3337 3247.7l24.3-31.2 54.2-2.5-55.3 92.6-23.2-58.9z"/><path class="st1" d="M3415 2192z"/></g><g id="Layer_1"><path class="st18" d="M4171.6 498l-296.2 449.3a702374 702374 0 01-166 219.8l-67.9 74.7-138.4 25.6M3504.6 1247.3l73.3-203-27.7-112 60-97 16-70.5c64.3-4 130-3 191.5-18 8.8-2.2 10.3-115.8-5.4-121.5-59.8-21.8-128-20.5-193-27.9l-23.1-17.8-47.2-100.8c5.3-155.5 19.7-311.6 10.5-466.3-2.7-45.5-72-87-110.8-130.2l-44.3 20.1 1.3-1.6-48.8-20.2 1.1-26M3774.5-57l23.2 57 175.7-69.5-26.2-63.5-172.7 76z"/><path class="st9" d="M2016.3-145.4h48l-6 28.2 4.4 10.5-26.8 32.2-68.8 166.2-119 18.6-21.4-102.1-95.2 111-187.8-29-77.6-117 44.2-90.8 434.5-4 71.5-23.8z"/><path class="st10" d="M626.7-145.4h1317.8c-.2 8 0 15.8.3 23.7l-434.5 4-236.8 42.4-406.9-17.3"/><path class="st19" d="M3358-145.4l-1 26-170.7 2.2-116.7-1.9-119.3-1.6L2545.7-48l-25.5-20.2-.7-77.3H3358z"/><path class="st18" d="M2519.5-145.4l.7 77.2-96.9-8-365-41 6-28.2h455.2zM1944.8-121.7c-.4-7.9-.5-15.8-.3-23.7h71.8c-23.8 8-47.7 15.8-71.5 23.7z"/><path class="st11" d="M2784.1 909.2l317.9-91.5 41-6.6-.4 24.8 145.2 94.3 23 26.1 46.2 48.8c1.9 5.4 2.6 11 2.3 16.6l-127.6 55 6.7 43.4"/><path class="st11" d="M3172.4 1041.9c2.7-6.6 8.4-13.8 6.7-18.2-1.7-4.2-12.5-8.9-16.6-7-4.4 1.8-9 12-7.3 16.5 1.5 4.3 10.8 5.8 17.2 8.7z"/><path class="st15" d="M4124.4 903.1c-46.5-11.5-111.2 50.3-167.6 78.5l-50.2 20.6-31.3-55L4171.6 498M3238.4 1120.1l-6.7-43.4 127.6-55c43 88.6 78.4 214 173.8 33.2 4.7-9 29.4-7.3 44.8-10.6l-73.3 203"/><path class="st1" d="M3834.5 1436.5l-193-194.7 68-74.7 224 124.4 7 5.2-8-4.2 2.9-95.9c7.6.1 15.2-.1 22.8-.8l44.7-1.6 38.7-29-58-41.2-77-121.8 50.2-20.6c26.8 13.5 60.4 20.8 79.2 41.5 137 150.7 60.3 273.5-55.4 389.7"/><path class="st12" d="M3448.7-117.7c38.8 43.3 108.1 84.7 110.8 130.2 9.2 154.7-5.2 310.8-10.5 466.3l-46.8-2.7-95.6-143-23.4-119.6 22.5-312.7-1.3 1.6 44.3-20.1z"/><path class="st11" d="M3405.7-99.2l-22.5 312.7-196.9-330.7 170.6-2.2a92718 92718 0 0048.8 20.2zM3933.4 1291.5l-223.9-124.4 165.9-219.8 31.2 55 77 121.7-48.2 72.6-3 96 1-1z"/><path class="st12" d="M3577.9 1044.3c-15.4 3.3-40 1.7-44.8 10.6-95.4 180.8-130.9 55.3-173.8-33.1.3-5.8-.4-11.3-2.3-16.7l-5-49.6 77.3-74.7 144.8-67.7 20 45-44 74.2 27.8 112zm-165.6-85.5h10.9V924h-10.9v35z"/><path class="st3" d="M3619.3 597.4c65 7.4 133.2 6.1 193 28 15.7 5.6 14.2 119.2 5.4 121.4-61.6 15-127.2 14-191.4 18l-7-167.4z"/><path class="st7" d="M3503 1267.4l138.5-25.6 193 194.7"/><path class="st15" d="M3619.3 597.4l7 167.4c-5.4 23.5-10.8 47-16 70.4l-.5 1.3-35.7-23.4-144.8 67.7-24.6-72.7L3508 644.3l88.2-64.7 23 17.8zm-80.6 107.4l20.7 6.8 13-44-18.3-5.2-15.4 42.4z"/><path class="st1" d="M3596.2 579.6l-88.3 64.7-102-68.7-.1-29 96.4-70.5 46.8 2.7 47.2 100.8z"/><path class="st12" d="M3774.5-57l172.7-76 26.2 63.5L3797.7 0l-23.2-57z"/><path class="st8" d="M3609.8 836.5l.4-1.3-60 97 44-74 15.6-21.7z"/><path class="st11" d="M3448.7-117.7l-44.3 20.1 44.3-20.1z"/><path class="st19" d="M1248.6 117.9c41.7 166.6 175.5 183.7 313.9 193.4 44.8 23.3 100.4 75.8 132.4 64 70.9-26.1 130-84.4 193.8-129.6l-31.8-43.1-102.5 12.8-64-21.9 41.1-74.2 95.2-111.1 21.4 102.1 119-18.6 49.6 98.5c-13.7 129.8-26.9 257.3 175.7 196.9 36.5-10.9 78.6-3.1 118.1-4l-15.3 62.4 109 72.1c65.6 9.4 131 23.5 197 26.4 44.2 2 89-12.2 133.5-19.1-110.2 131.9-200.9 282.5-422.4 238.7"/><path class="st10" d="M2016.7 190.2L1967 91.7 2036-74.5l26.7-32.2-4.4-10.5 365 41L2398 24.1l23.2 46.3c-63.2 34.2-123.1 79.3-190.5 99.3-67.5 20-142.4 14.7-214 20.5z"/><path class="st13" d="M1248.6 117.9l52.5-90.5c7.3-1 14.3-2.8 21.1-5.6l144-48.6 77.5 117 187.8 29-41 74.3 63.9 21.8-192 96c-138.3-9.7-272.1-26.8-313.8-193.4"/><path class="st15" d="M1466.1-26.8l-143.9 48.6-48.7-97.1 236.8-42.4-44.2 91z"/><path class="st18" d="M2062.7-106.7L2036-74.5l26.7-32.2z"/><path class="st20" d="M866.6-92.6l406.9 17.3 48.7 97.1a85.5 85.5 0 01-21 5.6 134570 134570 0 00-99.5-39.9"/><path class="st17" d="M3186.3-117.2l196.9 330.7 23.4 119.6-89.2 188.1 16 25.1 8.8 60.7c-.9 5.4-3 10.3-6.3 14.7L3210.2 522l51 298-47-7-24.4-47.7-52.3-60.5 22.4-71.6-113 10.8c-.8-7-.4-14.2 1.1-21.2l17.5-141.7-45.2-172 139 12.3-89.7-440.5 116.7 1.9z"/><path class="st21" d="M3069.6-119l89.6 440.4-138.9-12.3-51.3-139.8-19.7-141 1-149 119.3 1.6z"/><path class="st22" d="M2950.3-120.7l-1 149-164 17-26.8-69.6-15.8-47.1-64 57-6.3 6-79.5 29-47.2-68.5 404.6-72.8z"/><path class="st13" d="M2545.7-47.9l47.2 68.5L2471.4 70l.3.3L2398 24l25.3-100.3 96.9 8 25.5 20.3z"/><path class="st10" d="M2312.3 763.6c221.5 43.8 312.2-106.8 422.5-238.7l95.4-72.5 235.3 28.7-17.5 141.7-96.8-1.3-96.5 23.7-201 27.3c103.3 167.6 213.8 108.8 321.5 68.1l162.3-35.8 52.3 60.5-46.8 45.8-41 6.6c-95.5 6.5-191.5 9-286.2 21.1-52.1 6.7-102.2 29.3-153.2 44.7"/><path class="st5" d="M3261.2 820l-51-298 125.7 99.7 68.8 186.4 24.6 72.7-77.3 74.7-41.2.8-23-26-26.6-110.3z"/><path class="st19" d="M2662.6 883.5c51-15.4 101-38 153.2-44.7 94.7-12 190.7-14.6 286.1-21L2784.1 909"/><path class="st15" d="M3261.2 820l26.6 110.2-145.2-94.4 71.5-22.8 47.1 7z"/><path class="st12" d="M3214.1 813l-71.5 22.8.4-24.7 46.8-45.8 24.3 47.7z"/><path class="st15" d="M3310.8 956.3l41.2-.8 5 49.6a309795 309795 0 01-46.2-48.8zM3172.4 1041.9c-6.4-3-15.7-4.4-17.2-8.7-1.6-4.4 3-14.7 7.3-16.6 4.1-1.8 15 2.9 16.6 7 1.7 4.5-4 11.7-6.7 18.3z"/><path class="st5" d="M3980.6 1412.8c115.7-116.2 192.5-239 55.4-389.7-18.8-20.7-52.4-28-79.2-41.5 56.4-28.2 121.1-90 167.6-78.5"/><path class="st15" d="M3935.4 1196.6l48.2-72.6 58 41.2-38.7 29-44.7 1.6c-7.6.7-15.2 1-22.8.8z"/><path class="st11" d="M3958.2 1195.8l44.7-1.6-44.7 1.6zM3932.5 1292.5l8 4.2-7-5.2-1 1z"/><path class="st9" d="M3317.4 521.2l89.2-188.1 95.6 143-96.4 70.6-26-23v-37.8l-24.5 33.8-24.5 4.7a46.6 46.6 0 00-13.4-3.2z"/><path class="st8" d="M3412.3 958.8V924h10.9v35h-10.9z"/><path class="st3" d="M3609.8 836.5l-15.7 21.7-20-45.1 35.7 23.4z"/><path class="st9" d="M3404.7 808.1L3336 621.7c3.3-4.4 5.4-9.3 6.3-14.7l63.6-31.4c34 23 68 45.8 102.1 68.7L3404.7 808zM3538.7 704.8l15.4-42.4 18.2 5.3-12.9 44-20.7-7z"/><path class="st5" d="M3405.8 575.6l-63.6 31.4-8.8-60.7c-.6-7.3-1.4-14.6-2.6-21.9l24.5-4.6 24.5 3.9 26 23v29z"/><path class="st12" d="M2830.2 452.4l-95.4 72.5c-44.6 7-89.4 21-133.6 19.1-65.9-2.9-131.3-17-197-26.4 80-53.7 171.7-106.3 20.5-185.6l81.9-121.7-35.2-140.2a1338769 1338769 0 00121.5-49.5l-1.4 49.8c-5.7 18.4-11.5 36.9-.2.8 7 37.6 3.4 18.2-.3-1.2l81.4-78.4 6.3-6 79.8-9.9c9 23.2 18 46.4 26.8 69.6l71.7 263.5-26.8 143.6z"/><path class="st13" d="M2471.4 70.1l35.2 140.2-82 121.7-114 51.1c-39.6.9-81.6-6.9-118.2 4-202.6 60.4-189.4-67-175.7-196.9 71.6-5.8 146.5-.6 214-20.5 67.4-20 127.3-65.1 190.5-99.3h50.5l-.3-.3z"/><path class="st18" d="M1562.5 311.3l191.9-96 102.5-12.7 31.8 43c-63.9 45.3-123 103.6-193.8 129.7-32 11.8-87.6-40.7-132.4-64z"/><path class="st14" d="M2310.6 383.1l114-51.1c151.3 79.3 59.7 131.9-20.4 185.6a278829 278829 0 00-109-72l15.4-62.5z"/><path class="st15" d="M1201.7-12.5l99.4 39.9-52.5 90.5"/><path class="st12" d="M2471.7 70.4h-50.5L2398 24.1l73.7 46.3z"/><path class="st9" d="M2830.2 452.4l26.8-143.6 112-139.5 51.3 139.8 45.2 172-235.3-28.7z"/><path class="st12" d="M2854.7 645.2l96.5-23.7 95.7 22.5 113-10.8-22.4 71.6-162.3 35.8-120.5-95.4z"/><path class="st19" d="M3046.9 644l-95.7-22.5 96.8 1.3c-1.5 7-1.9 14.1-1.1 21.2z"/><path class="st1" d="M3330.8 524.4c1.2 7.3 2 14.6 2.6 22l-16-25.2c4.6.4 9 1.5 13.4 3.2z"/><path class="st11" d="M2969 169.3l-112 139.5-71.7-263.5 164-17 19.7 141z"/><path class="st13" d="M2672.4-8.4L2591 70l.5.4 1.4-49.8 79.5-29zM2758.6-24.3l-80 10 64-57.1 16 47.1z"/><path class="st19" d="M2854.7 645.2l120.5 95.4c-107.7 40.7-218.2 99.5-321.5-68l201-27.4z"/><path class="st1" d="M3379.8 523.7l-24.5-4 24.5-33.8v37.8z"/><path class="st13" d="M2591 70c3.7 19.4 7.4 38.8.3 1.2-11.3 36-5.5 17.6.2-.8l-.5-.4z"/><g id="Layer_1_1_"><path class="st0" d="M4243.7 2702.1l-69.2-27.5c14-32 21.2-69.8 43.1-94.8 56.3-64 80.1-107.4-16.9-165-52.7-31.2-78.5-108.7-113-167.5-1.6-2.7 31-25.5 47.8-39"/><path class="st1" d="M1654-161.6h91l126 20.8 128 214.4-17.1 37.8-56 291.7c6 19.3 12 38.6 13.8 43.9l-67.8 154.5-90 20.5-18.6-1 1.4-34 93.9-166.4-168.2-36.2-28-53-63.1 72.2-35.9-37.8 36-53.2 2.7-28 87-27.6 61.3 56.7 39-51.6-98.2-59-88.6-47.9L1599 67l-1-52.5 56-176z"/><path class="st19" d="M1654-161.6l-56 176c-57.8 37.4-175.2 24.4-127.5 151-6 1.3-12 1.8-18 1.4l-217.4 364.4-36.4.5-37.8-93.7.6-144.4.4-71 104.5-151 113.6 57-17.7-290.2h291.6z"/><path class="st2" d="M3440.4-161.6H3805l-111.4 167c-1.9 23.8-1.7 48-6 71.2-12.7 67.4-27.1 134.4-41 201.6 32 37.9 27 70 14.3 98.7-14.2 31.9-34.5 85.4-53.8 86.2-61.8 2.4-154.2 20.7-125.4-99.3l72.8 20.2-98.9-214.1L3403 21.5l37.4-183.1zm100.5 24.7L3581 61.4 3691.4-137h-150.5z"/><path class="st11" d="M505.5-161.6h309.9l167 418.3-74.6 2.1-71.3-53.5 9.3-26.1-16.4 20.2-172.9-90.7-39-35.6-19-36c-12-35-23.8-70.2-35.6-105.4 3.5-6.5 7.3-12.9 10.4-19.6.3-.7-3.6-3.3-5.5-5l-9.6 20.6-52.7-89.3z"/><path class="st3" d="M3039.4-161.6h72.9A9843567.6 9843567.6 0 003221 20.6l18.8 36-.5 219-22.3 32-106.5 40.4-128.2 3c74.5-70.2 83.4-124-36.4-145.6l33-148c-4-6-8.2-11.8-12.3-17.7l-11-16.2 107.5 43.2-23.7-228.3zM982.5 256.7L815.4-161.6H1034l27.5 62.5 9-62.5h18.2L1106 19l55.9 203.5-.4 71-54.1.2c-1.7-11.8-3.4-23.7.3 2.4-11.9-23.2-6.4-12.5-1-1.9l-45.1 88.3-79-125.9z"/><path class="st18" d="M1161.9 222.6l-56-203.4c156.8 4 88.3-107 92.3-180.8h164l17.8 290.2-113.6-57-104.5 151z"/><path class="st4" d="M4259.3 185.2c-26.7-19.5-53.5-39-81.2-59L4153.2 238l-37 18.9-2.7-34.2L3970 19.5 3962 17l5.9 4.5-36.4 18-35.7-20.8 36.7-180.3h73l36.8 34 54.5 93.2.3.2 36.5 54.5h-.4l19.9 55"/><path class="st9" d="M1871-140.8l-126-20.8h528.7L2279-80l86 10.8-.2 52.6c-.6 6-.9 12-.8 18l-91.8 90.3-69.5-43.2-76 82.6 45.3-207.8-61-13.2-240-51z"/><path class="st8" d="M3932.6-161.6L3896 18.7l-40 93L3693.7 5.4l111.4-167h127.6z"/><path class="st4" d="M2437.8-161.6h364.6l73.3 144-76.5 149.5-34.4-73.5-108.4-128.9-107.8-71.5-21 .3-89.6-.6-.2-19.3z"/><path class="st9" d="M2875.7-17.7l-73.3-143.9h237L3063 66.7l-107.5-43.2-79.9-41.2z"/><path class="st3" d="M159.1-161.6H305l93.2 96.4L289.5 92.6 212.3 18l-34-146.5-19.2-33.1z"/><path class="st15" d="M-96.1-161.6l-54.5 92.1-54.3 34.3"/><path class="st9" d="M159.1-161.6l19.2 33.1L124.8 97l-38 15-74.1-92.2.2-69.2 37.9-37.9L151-51.6l-50.6-91.6-52.1 52.9-71.7-53.9c-.2-5.8-.2-11.6.1-17.4h182.3z"/><path class="st11" d="M-23.2-161.6c-.3 5.8-.3 11.6-.1 17.4l36.2 94.7-.2 69.2-144 36.3-19.3-125.5 54.5-92.1h73z"/><path class="st9" d="M3221.3 21.3l-109-182.9h309.9l-87.8 36.5-113 146.4z"/><path class="st3" d="M505.5-161.6l52.7 89.3 4.7 4 35.5 105.5-6.9 7.8c-4.5 33.4-9 66.8-13.7 100.2l-34.3 2.2-75-127 5.4.6 56.1 7.2c-5-19-6.2-40-15.4-56.4-25.6-45.5-54.5-89-82-133.4h72.9z"/><path class="st4" d="M3334.4-125.1l87.8-36.5h18.2l-37.4 183-18.5 69.6-17.7 20.2-15.6-.1-20-39.4c.7-4.3 1-8.7.8-13l2.4-183.8z"/><path class="st10" d="M1198.2-161.6c-4 73.9 64.5 184.8-92.2 180.8l-17.2-180.8h109.4z"/><path class="st18" d="M432.6-161.6c27.5 44.3 56.4 87.9 82 133.4C523.8-11.7 525 9.3 530 28.2L474 21 398-65.2l-93.2-96.4h127.7z"/><path class="st15" d="M2437.8-161.6l.2 19.2A337224 337224 0 002365-69l-86-10.8-5.2-81.7h164.1z"/><path class="st2" d="M4225.8-142.4l-75.2-.8.8-18.4M4042.4-127.7l-36.9-34H4115c.3 5.8-.2 11.4-1.5 17l-16.8 19-.6.2-53.6-2.2z"/><path class="st10" d="M1070.6-161.6l-9 62.5-27.5-62.5h36.5z"/><path class="st4" d="M4113.4-144.8a55.4 55.4 0 001.5-16.8h36.5l-.8 18.4-17.8-.2-19.4-1.4z"/><path class="st7" d="M4273.6 1900.8a821 821 0 01-68 50c-47.9 31.9-108.1 54.6-139 98.2-11.7 16.5 43.7 80.5 68.5 122.8l.4 36.6c-16.7 13.4-49.4 36.2-47.8 39 34.5 58.6 60.3 136.2 113 167.5 97 57.5 73.2 100.8 17 165-22 25-29.2 62.7-43.2 94.7l69.2 27.5c-27.4 17-59 53-81.5 48-130-28.8-202.6 22.2-223.6 170.4l-362-154-21.6 33.4 235.2 203-127.8 190.7-57.7-19.2c-6.1-249.6-78-325.5-200-298.9l-27.5-73.7 219-124-247.2-31.1-4.5-21.6-.2-32.4 167.5-116 75.6-67.6 107.5 87.6 127-126.2 76.2 20.4 71.6-3.8c-3.1-21.5 1.6-53.2-10.7-62.7-54.7-42-114.3-77.5-172.1-115.4l18-110-.2-37.1c2-1.7 6.1-4 5.8-5-1.3-4.3-3.8-8.2-5.9-12.3.1-5.5-.3-11-1.2-16.4l79-96.3L3587 1862l-.8-18.4-33-37.2 68.6-162.7 1.4-1.3c21.7 31.2 40.2 65.4 66 92.9 20.3 21.5 49.4 34.8 74.7 51.7 10-30.4 19.7-60.9 30.2-91.1 1.5-4.4 6.2-7.7 10.3-12.5-18.2-11.5-44.2-18.8-51.8-34.8-15.3-32-21.6-68.5-27.9-103.8-.5-2.7 29.6-17.7 42.8-14.8 50 10.7 98.9 26.5 148.2 40.4l36.2 59c-12.9 48.3-29.5 96-37.3 145-4.3 26.8 6 56 9.8 84.2 103.4-46.9 297.3-101 294.2-139.5M4259.8 2120a373 373 0 00-17.4-3"/><path class="st17" d="M4313 2955.4l22.9 130-204.7 123.8-53.7-.2 4-54.3-.9-71.6-1.4-2 17.4-91.9-93 19.5-17.4 18.7H3934l-126.2-17.6-17.5-7L3555 2800l21.7-33.4 361.9 154c21-148.2 93.6-199.2 223.5-170.4 22.6 5 54.2-31 81.6-48M4223 2845l-30.8 36 20.4 12.2 13-45.6 69 39.5M4135.5 2208.4l-.4-36.6 107.3-54.9c5.9 1 11.6 2 17.4 3.2"/><path class="st2" d="M1763.3 621l18.5 1V878l80.3-33.2-40.9 98 117 26.9-10.5-92.9 8.8.4 8.7-.9c23.5 33.8 49.9 66 69.6 102 16.7 30.5 25.7 65.1 38.2 98l88 72.6 59.4-90 128.8 37 54 18.4-74.2 42 58.4 92.8-81 191.3-65.4 22.6c.6-38.3-6-78.4 3.6-114.3 12.7-48.1 37.8-92.9 57.6-139-108.4 133.4-174.8 124.6-212.4-11l-139.2 24.9-41.7-284.2-52.4 174.8 2.3 143-40.5 49.7-91.3-82.6c-16.8-64.6-32.6-129.5-50.8-193.8-30-105.7-61.5-211-92.5-316.4l98.5-57.9 47.5-18.5 54.2-15.3-.6-1.5z"/><path class="st8" d="M1945.2 876.4l-8.7.9-8.8-.4-36.8-72.4-19-203 67.8-154.5-13.8-43.9 93.3 55.6 27.6 226.6 116.8 9.8 129 146.5-74 56.2-53.5 34.7-33-69.4c-17.8-2.3-38.1-8.8-57.6-6.8-43.3 4.5-86.2 13.2-129.3 20.1z"/><path class="st4" d="M1890.9 804.5l36.8 72.4 10.4 93-116.8-27 40.8-98-80.3 33.2V622l90-20.5 19.2 203-.3.4c-4 13-1.9 6.3.2-.4z"/><path class="st8" d="M2110.9-89.8l61 13.2-45.4 207.8-107.5 54 37.7-73.8h-74.8l17.1-37.8A594486 594486 0 002111-89.8z"/><path class="st15" d="M2110.9-89.8L1999 73.6l-128-214.4 239.9 51z"/><path class="st4" d="M1981.9 111.4h74.8l-37.7 73.8.2 273.5L1926 403l56-291.7z"/><path class="st8" d="M1858.6 420.6l-94 166.3-35.4-39.7-112.4-88.8a85.1 85.1 0 01-16.2-3l-1.3-51.8 63.1-72.3 28 53.1 73.1 101.6 95-65.4z"/><path class="st15" d="M1452.5 166.8c6 .4 12-.1 18-1.5l20 12.4-1-29.8 51.7 35 4.1 1.4 46 58.3 10.9 41.9c-1 9.4-2 18.7-2.8 28l-73 55.2-67.6-55.8-6.3-145.1z"/><path class="st9" d="M1458.8 312l67.6 55.7 37-2 35.9 37.9 1.3 51.9-36.7 34.3-97.3-63.1-31.3-4.6 23.5-110.2z"/><path class="st2" d="M1858.6 420.6l-95 65.4-73.2-101.6 168.2 36.2z"/><path class="st0" d="M1691.2 203l98.1 59.1-38.9 51.6-61.2-56.7 2-54z"/><path class="st2" d="M1691.2 203l-2 54-87 27.6-10.8-42 9.6-79.3 1.6-8c29.5 16 59 31.8 88.6 47.7z"/><path class="st16" d="M1489.4 147.8l1 30-19.9-12.5C1422.8 38.8 1540.2 51.8 1598 14.4l1 52.4c-18.5 9-37 18.2-55.4 27.3-18 18-36 35.8-54.2 53.7z"/><path class="st4" d="M1543.6 94.1l55.4-27.3 3.6 88.4-1.6 8.1-55.7 21-4-1.3 2.3-88.9z"/><path class="st8" d="M1563.4 365.8l-37 1.9 73-55.1-36 53.2z"/><path class="st4" d="M1729.2 547.2l35.5 39.7-1.4 34 .6 1.6-38.8-70 4-5.3z"/><path class="st10" d="M1458.8 312L1435.3 422l-21.8 191.2 7.3 1-44.7 282L1411 907l74.8-135.5 38.7 454.3c-11.3-8.8-25.1-15.7-33.7-26.7-79.5-101-158.1-202.7-237-304.2l-59.8-144 77.2-200.9-18.8-19c-5.8.2-11.5.2-17.3.2l217.4-364.4 6.3 145.1z"/><path class="st12" d="M1107.4 293.8l54-.2-.5 144.5-43.3 1 62 164.4-56.2 112.3-100.6 29.7c101.4-70.3 42-137.7-3.6-205.4l42.4-157.5 45.2-88.3.6-.5z"/><path class="st3" d="M1123.4 715.8a2347925 2347925 0 0156-112c6.6-11.7 13-23.4 19.5-35.2l-.2-37c12 0 24.2-.2 36.4-.4l17.3-.1 18.8 19-77.2 200.8-70.6-35.1z"/><path class="st10" d="M1198.7 531.7l.2 37-19.4 35.2.2-.4-62-164.3 43.2-1.1 37.8 93.6z"/><path class="st4" d="M3693.6 5.4L3856 111.7 3791.2 311c-122.1 53.2-77.6 137.5-41 220.3l18 90-72.6.9c-6-.4-12-.4-18-.3l-18.6-40.7-22 40.8-14.3 36-105.4-74-43.2 94.3-25.6-36.2-33.4 31.6 99.1 94-.8-.4 17 17.7 39.4 72.4 52.5 119-95.6 75 184-28.5 4.5 36.3c-6.4 19-16.7 37.8-18.4 57.3-3 35.6-.8 71.7-.9 107.7l-110-123.7v141.3c-50.6-17.5-103.8-30-150.6-54.6-22.7-12-41-45-47.9-71.9-12-47.4-13.8-97.5-19.9-146.5l-.9-37.8-18.6-68.9-34.8-75-18.4-92.4-18-162.7c-1-11.4-2.2-22.8-3.4-34.2l-34.8-57.2a47 47 0 01-16.3-2l67.4-45.6-72.7-85.5 22.3-32 73.5 37.6 148 33.6 21 17c-29 120 63.5 101.7 125.3 99.3 19.3-.8 39.6-54.3 53.8-86.2 12.8-28.7 17.8-60.8-14.2-98.7 13.8-67.2 28.2-134.2 40.9-201.6 4.4-23.3 4.1-47.4 6-71.2zM3372.1 610l22.5 1.8v-62l-17-.7-5.5 61z"/><path class="st9" d="M3384.5 91l18.5-69.5 52.7 148.4-32.1 104.6-11.8 52.7-46-57.5 33.6-94.9L3310 185 3245 2.2l87 56.5c.1 4.3-.1 8.7-.8 13a37740 37740 0 0020 39.4h15.6l18.9 22.5-1.2-42.6z"/><path class="st4" d="M3540.9-137h150.5L3581 61.5 3541-137z"/><path class="st10" d="M3423.6 274.6l32-104.7 98.9 214.1-72.8-20.2-21-17-8.6-69.4-12.3-9.2a51 51 0 00-16.2 6.4z"/><path class="st15" d="M1061.6 382.6l-42.4 157.5c-25.6-33-51.1-66.2-76.7-99.4l-36-111.6 1.3-70.3 74.7-2 79.1 125.8z"/><path class="st12" d="M907.8 258.8l-1.4 70.3-109.7 29L672 201.8l-24.3-50.2.4-33.5c2.3-3.5 5.2-6.7 8.5-9.4l172.8 90.7 7 5.9 71.4 53.5z"/><path class="st3" d="M617.5 73l39 35.7a41 41 0 00-8.3 9.4l-35.3-41.3 4.6-3.7z"/><path class="st3" d="M598.4 37.2l19 35.9-4.5 3.7a16718 16718 0 00-21.5-31.6l7-8z"/><path class="st12" d="M829.4 199.4l16.4-20.2-9.3 26-7.1-5.8z"/><path class="st3" d="M558.2-72.3l9.5-20.6c2 1.7 6 4.3 5.6 5-3 6.7-6.9 13-10.4 19.6l-4.7-4z"/><path class="st21" d="M-177.3 2771.8c52.2 71.2 82.7 153 136.7 174 46.6 18 120-33.6 187.8-56.4l-188-226.1H202l135.5 78.1c-4.5 72.3-135.5 167 42.1 218.2L325.5 3135 270 3266.3l-6.6-3.2 5.9 3.8-108.6 146.5-38-129.6 105.1-42.6L122.6 3088v195.6l-109.4-18-18.2-18.4-61.2-106.8-37.8 36.6 99 70.2 18.4 18.2c53.9 59.5-29.4 207.3 128.5 199.8"/><path class="st8" d="M3217 307.6l72.7 85.5-67.4 45.6h-56.1l-45.8 133.8 83.7 49.2 90.7 73.1 18.4 92.4.3-.6-37.5-.2h-17.8l-29.1-33.4-7.3 33.8 18.3 127.6-144.4 16.8-38.6-180.7 102.8 6.1 13.2-25.2-133.4-72.6-72.3 34.8-.8-97L3110.4 348l106.6-40.4z"/><path class="st11" d="M2946 205.4c119.7 21.6 110.8 75.4 36.3 145.5-22 23.7-67.4 60.4-62.5 69.3 64.2 116.5-29.4 143.2-98.7 184.4l-37-110.1.2.3 17-56.4 91-181.3 53.6-51.7z"/><path class="st12" d="M3332 58.7l-87-56.5 65 182.7 89.4-10-33.7 94.9-52.9 43.4-73.5-37.5.5-219.2-18.8-36 .3.8 113-146.4-2.3 183.8z"/><path class="st13" d="M2821.1 604.6c69.3-41.2 162.9-68 98.7-184.4-5-9 40.5-45.6 62.5-69.3l128.2-3-143.9 248.8-147 83.4 1.5-75.5z"/><path class="st8" d="M2946 205.4c-18 17.2-35.9 34.5-53.7 51.8l-93-125.3 76.4-149.6 79.9 41.2 11 16.2 12.3 17.6-33 148.1z"/><path class="st9" d="M3221 20.6l18.8 36-18.8-36zM2979 57.3l-12.4-17.6 12.3 17.6z"/><path class="st12" d="M1106.7 294.3c-5.4-10.6-10.9-21.3 1 2-3.7-26.1-2-14.3-.3-2.5l-.7.5z"/><path class="st9" d="M4153.1 75.3l-19.8-55h.4l-36.5-54.5-.3-.2-.9-91.1.6-.3 36.2-17.6 17.8.2 75.2.8m-81.5 70.5c-5.9-3.4-10.2-6.4-14.9-8.1-1-.4-5.6 4.8-5.1 6 1.9 4.4 5.2 8.3 8 12.5l12-10.4z"/><path class="st3" d="M-168.1 147.9l18-17.8-.6.6 60.2 89 19-64.4L86.8 112l38-15 36.3 87.3-2.8 19.5c-178.2-8-243.5 113-290.8 254.4-5.7-4-11.4-8.2.5.4-14-4.4-7.4-2.3-.6-.2l-36.7 120 55 8-74.7 125.5"/><path class="st10" d="M-179.4 987.5l-30.5 91.3"/><path class="st15" d="M-207.1 822.7l23-68.4 67-42 52.6-39L-81 747l-18.3 39.9.6 34.7 7.6 196.2c-29.5-10-59-20.2-88.4-30.3"/><path class="st18" d="M-189 711.8l3 2.9 1.8 39.6-22.9 68.4"/><path class="st8" d="M4169.2 806.1l-127-239c-6-12.1-11.8-24.3-17.7-36.6l-38-90.8-70.7-19.1-18.7-17.5-39.2-159.1c128.6-30.7 81.4-124.7 73.7-204.4l36.4-18 2-2 143.5 203.1-35.3 126.3.4-.4c-1.3 37.3-18.8 88.3-1 109.3"/><path class="st1" d="M4077.7 457.9c-17.9-21-.4-72 .9-109.3l5.6 3.4-6-3 35.3-126.3 2.6 34.2 27.3 153.4 60.4-14.9-50.6-157.4 25-111.9 81.1 59"/><path class="st5" d="M3931.6 39.6c7.7 79.7 55 173.7-73.7 204.4l39.2 159.1c-5.5 0-11 0-16.5-.2l-89.4-91.8 64.8-199.4 40-93 35.6 20.9z"/><path class="st8" d="M4153.2 238l50.6 157.4-60.4 15-27.3-153.5 37.1-19zM4096-125.5l1 91.1-54.6-93.2 53.6 2.1zM4097.2-34.2l36.5 54.5-36.5-54.5zM4133.3 20.2l19.8 55.1c-6.5-18.4-13.2-36.7-19.8-55zM3968 21.5L3962 17l7.9 2.5-2 2z"/><path class="st1" d="M2019.2 458.7c0-91.2-.2-182.3-.3-273.5l107.6-54 76-82.6 69.6 43.2L2364 1.5c-.1-6 .2-12 .8-18L2547-34l-109.8 200-28.2 24.6 17.8 14.9 11.6-38.3 18.2 74c-54.7 11.7-109.4 23.6-164 35.4l-1-.8c-42-11-97-43.7-122.6-28-39 24-77.6 80-80.2 124.6-3.8 64.2 24.8 130.3 39.5 195.5-.4 5.9-.6 11.7-.6 17.5l-.3.6 1.4 36.3 108.5 37.4a825937 825937 0 00-73.7 35.5l-116.8-9.8-27.6-226.6zm60.6 191l-12.3-.6c1.7 1.5 3.4 4.1 5.2 4.3 2 .1 4-2 7.1-3.8z"/><path class="st6" d="M2547-34l-182.3 17.5.2-52.6 73.1-73.3 89.6.7L2547-34.1zM2364 1.5a260126 260126 0 01-91.9 90.3L2364 1.5z"/><path class="st8" d="M-148 2441.6c47.5-11 95.1-22.2 142.7-33.4l18.9 110c-27.8 2.9-58.6-1-82.7 10M2547-34l-19.4-107.7 21-.3 43.8 106.8 64-35.3L2765 58.4c-78.9-24.8-113.5 14.3-125.2 86.6l-55.7 69.8-24 5.3-102.8 74-.6-53-18.2-74-1.2-1.2L2547-34z"/><path class="st1" d="M2639.7 145c11.7-72.3 46.3-111.4 125.2-86.6l34.3 73.5 93 125.3a443971 443971 0 00-91 181.2l-53 36.7-.6-144-54-165.2c-2.5-6.6-5-13.2 2.6 6.7-12.1-17.3-8-11.4-4-5.6l17.9 164.3c-4.5.2-9 .3-13.6 0l-34.5-40.1-22.3-146.2zM2656.4-70.5l-64 35.3-43.8-106.8 107.8 71.5z"/><path class="st14" d="M647.7 151.6l24.3 50.2-74.4 56-165.2 17.5-29.8-.8-27.6-33.3-61.5-127.8-24-20.9L398-65.2 473.9 21l-5.4-.5-44 95.1 119 31.8 34.3-2.2 70 6.4z"/><path class="st4" d="M161.1 184.1L124.8 97l53.5-225.4 34 146.6.8 1.5-18 .4-.8 164-33.2.1z"/><path class="st2" d="M194.3 184l.7-164 9.8 21.3 8.3-21.7-.8-1.5 77.2 74.5 24 20.8A152916 152916 0 00194.3 184z"/><path class="st4" d="M-206.8 6.6l.2 25.6"/><path class="st9" d="M-206.5 32.1l-.3-25.6 41.2-10.1-39.3-31.6 54.3-34.3L-131.4 56l-18.5 19.5-56.6-43.4z"/><path class="st2" d="M-204.9-35.2l39.3 31.6-41.2 10.1"/><path class="st4" d="M-149.9 75.5l18.5-19.5L12.7 19.7l74 92.2-158.2 43.4-19 64.4-60.2-89 .8-55.2z"/><path class="st8" d="M48.3-90.3l52.2-53L151-51.5 50.7-87.4l-2.4-3z"/><path class="st8" d="M13-49.5l-36.3-94.7 71.7 53.9 2.3 2.9L13-49.5z"/><path class="st4" d="M543.5 147.4l-119-31.8 44-95.1 75 127z"/><path class="st11" d="M647.7 151.6l-69.9-6.4L591.5 45c7 10.7 14.2 21.2 21.4 31.8l35.3 41.3-.5 33.5z"/><path class="st12" d="M3384.5 91l1.2 42.6-18.9-22.4 17.7-20.2zM3351.2 111z"/><path class="st17" d="M-41.2 2607.7l-2 21.3-25 18 27.4 16.6v-.3l188 226c-67.7 23-141.2 74.4-187.8 56.4-54-20.8-84.5-102.8-136.7-173.9"/><path class="st8" d="M4132.8-143.4l-36.2 17.6 16.8-19 19.4 1.4z"/><path class="st17" d="M2747.5 3265l34.3-18 3.3 19.3 89.2 256c30.8 153.8 120.1 89.1 201.5 53.9"/><path d="M3231.6 3622.7c86.2-35.3 238.3-204.8 208.6-284.8l74.3-53.6 89.3 18.3" fill="#354649"/><path class="st0" d="M4335.9 3085.4l-23-130"/><path class="st21" d="M3603.8 3302.6c-29.8-6-59.6-12.2-89.3-18.3l-1.3-71.3 55.2 1.9 200.5 13 8.8-.1 8.8.2 36.3 35.9-219 38.7zM4077.5 3209l53.7.2-217.3 60.3.5-40.2 163.1-20.3z"/><path class="st17" d="M3914.4 3229.3l-.5 40.2-91.1-5.6-36.3-36 125.9-16.4c1 5.9 1.6 11.8 2 17.8z"/><path class="st6" d="M3095.7 931.2l144.4-16.8 127.4 54.5c6.1 49 7.9 99 20 146.5 6.8 26.9 25 59.9 47.8 71.9 46.8 24.7 100 37 150.6 54.6l164.4 146-3.3 5.9 3.3-6 20-.3c54 42.6 108.2 85.2 162.4 127.7l-17 55.2c-49.3-13.9-98.1-29.7-148.1-40.4-13.3-2.9-43.3 12.1-42.8 14.8 6.3 35.3 12.6 71.9 27.9 103.8 7.6 16 33.6 23.3 51.8 34.8-4 4.8-8.8 8-10.4 12.5-10.4 30.2-20.2 60.7-30.2 91.1-25.2-17-54.3-30.2-74.6-51.7-25.8-27.5-44.4-61.7-66-93l-7.5-2.7 6 4.1-68.6 162.8-22.4 1.1c-106.2-140.2 52.6-230.6 65.3-348.4 3.5-32.2 7.7-64.7 5.5-96.7-.3-6-35.1-19-43.8-13.3a178.7 178.7 0 00-57.6 60.1c-7.7 14.2 2.3 38 5.2 65.7l-63-67.4-255.3-130.2-60.8-35.4 104.4-236.9-32.4-15.7-57 64.2-45.6-122.4z"/><path class="st16" d="M3344.3 2592.7l.2 32.4-194.3 8.9 31.5 40.2-106.6 166.2c-89.2 109-154.7 233.9-223.3 357-8.3 14.8-33.8 20-51.3 29.7 25-103.9 46.4-208.8 76.2-311.3 18.4-62.9 46.7-123.4 75.6-182.5 38.7-79 82.4-155.4 124-232.8 173-40.3 123-198.7 163.7-309.1l92 19c-6.9 103.9-16 207.6-19 311.6-.7 23.2 20.3 47 31.3 70.7z"/><path class="st0" d="M3568.5 3215l-55.3-2-272.6 71c-3.3-37.9-4-76.2-10.7-113.5-4.3-23.9-17.3-46.2-26.4-69.2l19.5-164.1 108.2-182.4 17.8-108.1 247.3 31.2-219.2 123.9 27.5 73.7c122.2-26.6 194 49.3 200.1 299l-36.2 40.4zm-231-97.5l39.7-134.2-97 8.6 57.3 125.6zM4218.7 1719.1c3 38.5-190.9 92.6-294.2 139.5-3.8-28.1-14.2-57.3-9.8-84.2 7.8-49 24.4-96.7 37.3-145l67.5 14.2c-18-78.8-33.9-149.3-49.9-219.8v.3l.1-19.5c0-5.2-.3-10.3-.8-15.4l35.6-2.2 92 110 58.8 164.3 48.8-125.3"/><path class="st1" d="M4204 1536l-48.7 125.3-58.8-164.2c87.3-29 154.9-72 128-181.5"/><path class="st5" d="M3349 2646.7l-17.8 108-127.4 72.8c-80.3 66.8-181.8 124.3-111.6 256.5l-125.7 90-181.4 92.3c-1-6.5-2.2-12.9-3.3-19.3l18.7-20c17.5-9.6 43-14.8 51.3-29.7 68.6-123 134-248 223.3-356.9l106.6-166.2-31.5-40.2 194.3-9 4.5 21.7zM3344.3 2592.7c-11-23.6-32-47.5-31.3-70.7 3-104 12.1-207.7 19-311.5l47.8-4.7c21.2-1.2 45.7 3.8 62.8-5.2 31.2-16.2 58-40.9 86.5-62l-.4 84.6-34.8 217.6-21.4 11.9c1.8 2 4.6 6.2 5.2 6 7.2-3.8 14-8.1 21-12.3l13 30.2-167.4 116zm54.3-290.6c-.7-2.2-.8-5-2.2-6.5-.7-.7-3.8.9-5.8 1.4.7 2.2.8 4.9 2.2 6.5.7.7 3.8-.9 5.8-1.4zM3803.4 2028.2c.9 5.4 1.3 11 1.2 16.4v17.3l.3 37.2-18.4 128 .9 33.7-127.5 37.7-58.4-55 111.7-253.4 90.2 38z"/><path class="st0" d="M4242.4 2117a532391 532391 0 00-107.3 54.8c-24.8-42.3-80.2-106.3-68.5-122.8 30.9-43.6 91.1-66.3 139-98.2a821.8 821.8 0 0068-50"/><path class="st1" d="M3659.9 2298.5l127.5-37.7 110.7 130.1-76.1-20.4c-32.1 2.3-80.2-7.2-92.7 9.6-22.7 30.6-24.1 76.8-34.4 116.6l-107.5-87.6 72.5-110.6z"/><path class="st8" d="M3659.9 2298.5l-72.5 110.6-75.6 67.6-13.2-30.3-4.7-5.6 34.8-217.5 72.7 20.3 58.5 54.9z"/><path class="st1" d="M3530.7 1807.6l22.5-1.1 33.1 37c-31.5 1-63 1.7-94.6 2.6-120.2 11-240.5 22.2-360.8 33.4l-110.1-72.7 55.2-54.8 163.5 18.9 172.1 18.5 119.1 18.2zM3803.4 2028.2l-90.2-38.1-29.4-64-96.5 64-.3-128 295.4 69.8-79 96.3z"/><path class="st4" d="M3912.4 3211.5l-125.9 16.5-8.8-.2-8.8.2-106.5-34.4 127.8-190.8 17.5 7c7.5 41.3 15 82.6 22.7 124.1l82.3 26c.5 4 1.2 8 2.2 11.8l-2.5 39.8z"/><path class="st5" d="M3587 1862l.3 128-21.5 17.9c-134.7-3.6-144-64.6-74-161.8l94.5-2.5.7 18.4z"/><path class="st0" d="M3898 2391c-36.8-43.5-73.7-86.8-110.6-130.2l-.9-33.7c.3-6 .4-12.1.4-18.1 57.8 37.9 117.4 73.5 172 115.4 12.4 9.5 7.7 41.2 10.8 62.7l-71.6 3.8z"/><path class="st4" d="M3695 2496.7c10.2-39.8 11.6-86 34.3-116.6 12.5-16.8 60.6-7.3 92.7-9.6-42.4 42-84.7 84-127 126.2z"/><path class="st1" d="M3969.6 1423.8l49.9 219.8-67.5-14.2-36.3-59 17-55.2 37-91.4z"/><path class="st17" d="M3662.4 3193.6L3769 3228l-200.5-13.1 36.3-40.5 57.7 19.2z"/><path class="st1" d="M3786.9 2209c0 6-.1 12-.4 18l18.4-128-18 110zM3804.7 2061.9l-.1-17.3c2 4.1 4.6 8 6 12.4.2 1-3.9 3.2-6 4.9z"/><path class="st7" d="M3912.4 3211.5l2.5-39.8c18.2-13.4 35-29.4 54.7-39.8 35.6-18.7 73-34 109.6-50.9l1.4 2 .9 71.7-4 54.3-163.1 20.3c-.4-6-1-11.9-2-17.8zM3912.7 3160l-82.3-26-22.7-124.2 126.2 17.7-21.2 132.5z"/><path class="st0" d="M4294.7 2887.1l-69-39.5-2.8-2.6M3912.7 3160l21.2-132.5h52.3l2.9 1.8 36.6 1.9-18.6-18.6-3.5-4 93-19.4-17.4 91.9c-36.6 16.7-74 32.1-109.6 50.8-19.7 10.4-36.5 26.4-54.7 39.8-1-3.9-1.7-7.8-2.2-11.7zM4081.5 3154.7z"/><path class="st0" d="M4225.7 2847.6l-13.1 45.6-20.4-12.2 30.8-36 2.7 2.6zM3986.2 3027.4a8783 8783 0 0017.4-18.7l3.5 3.9-18 16.7-2.9-1.9z"/><path class="st18" d="M1524.5 1225.9l-38.7-454.4c-33 59.7-54 97.6-74.8 135.5l-35-10.6 44.8-282.2-7.3-.9 21.8-191.2 31.3 4.5c-20.4 83.7-29 162.7 77.5 196.2l19.6 91.4c31 105.5 62.5 210.7 92.5 316.4 18.2 64.3 34 129.2 50.8 193.8 15.6 90.1 17.9 185.3 50 269.1 39.1 101.7 29.6 170.6-65 230-31.7 20-49.5 61.7-73.7 93.4-10.7 4.5-21.2 9.2-31.8 13.8l-.5-166.8c18-35.6 57.6-76.8 50.2-105.8-29.1-112.8-73.2-221.8-111.7-332.2z"/><path class="st3" d="M1618.3 1816.9c24.2-31.7 42-73.4 73.6-93.3 94.7-59.5 104.2-128.4 65.2-230-32.2-83.9-34.5-179-50-269.2l91.2 82.6 40.5-49.7c10.5 23.8 21.5 47.5 31.6 71.5 31 74.3 61.6 148.8 92.4 223.2l11.5 129.1 101.6 85.9 50.6 22.6 1 .8 57.2 50 .9 1.6 15.4 112.2-174.6-94-244.2-68.7-73.5-1.9-90.4 27.3zm174.9-478l-28.7 11c6 16.3 11.8 32.6 17.7 49 9.6-4.1 28-10.2 27.6-12-3.7-16.4-10.6-32-16.6-48z"/><path class="st4" d="M1962.8 1552c-30.8-74.4-61.4-148.9-92.4-223.2-10-24-21-47.7-31.6-71.5l-2.3-143 94.1 109.4 139.2-25c37.6 135.7 104 144.5 212.4 11-19.8 46.2-45 91-57.6 139-9.5 36-3 76.1-3.6 114.4 86.4 134.2-38.5 87.8-89.5 104.6l-2.3-.5-20.9.8-71 18.7-74.5-34.7z"/><path class="st9" d="M2218.7 897.9l74-56.3 68.9-56.5 8.9 61c106.5-37.5 121.9-72.5 86.4-186.5l67-1.5 40.4 55.3-67.8 234.7-52 3.2c-171.2-57.6-66.7 104.6-115.3 144.8l-128.8-37.2 18.3-161z"/><path class="st12" d="M2444.5 951.3l52-3.2c25.6-7.2 60.6-6.3 75-23 62.7-72.8 119.4-150.7 178.2-226.8l35.1-3-1.6 129.1-197.3 183.4-132.7 159.8-85.8 81.6-58.4-92.7 74.1-42.1 61.4-163z"/><path class="st1" d="M2131.5 1567.7c51-16.8 175.9 29.6 89.5-104.6l65.4-22.6c22 30 44 60 63 86.2l88.3-48.8 109.6-17.5 36.1 128.7-34.1 1.8-45.6-56.3-262.3 114.5 86.2 30.2v55.8l-196-167.4z"/><path class="st14" d="M2437.7 1477.9l-88.3 48.8-63-86.2 81-191.3 85.8-81.6 39.4 1.5 93.4-19.9 49.7 22.7c1.6 4.7 3.5 9.3 5.7 13.7l-77.1 57c-159.6 15.2-112 142-126.6 235.3z"/><path class="st4" d="M1945.2 876.4c43-7 86-15.6 129.3-20 19.5-2 39.8 4.4 57.6 6.7l33 69.4-112.1 143.9c-12.5-32.9-21.5-67.5-38.2-98-19.7-36-46.1-68.2-69.6-102z"/><path class="st8" d="M2444.5 951.3l-61.4 163-53.9-18.2c48.6-40.2-56-202.4 115.3-144.8z"/><path class="st3" d="M2053 1076.4L2165 932.5l53.6-34.7-18.3 161.1-59.4 90-88-72.5zM1563.8 714.2l-19.7-91.4 74.6-130.3 43.5 163.8-98.4 58z"/><path class="st6" d="M1930.6 1223.7l-94.1-109.4 52.4-174.8 41.7 284.2z"/><path class="st4" d="M1662.2 656.3l-43.5-163.8-1.9-34 112.4 88.7-4 5.2-15.5 85.4-47.5 18.5z"/><path class="st8" d="M1709.7 637.8l15.4-85.3 38.8 70-54.2 15.3z"/><path class="st4" d="M2361.6 785l-69 56.6-129-146.5 73.7-35.6 88.9-113 3.7 21 52.7 182.2-21 35.4z"/><path class="st8" d="M1890.9 804.5c-2.1 6.7-4.2 13.5-.2.4a1829.5 1829.5 0 00.2-.4z"/><path class="st12" d="M1616.8 458.4l1.9 34.1-74.6 130.3c-106.5-33.5-98-112.5-77.5-196.2l97.3 63.2 36.7-34.3a86.5 86.5 0 0016.2 3z"/><path class="st5" d="M1543.6 94.1c-.8 29.6-1.5 59.3-2.4 88.9-17.2-11.8-34.5-23.5-51.7-35.1l54.1-53.8z"/><path class="st8" d="M1545.3 184.3l55.7-21a41550 41550 0 01-9.6 79.3l-46-58.3z"/><path class="st9" d="M1123.4 715.8l70.6 35 59.8 144c-14 27.2-27.8 54.4-39 76 211 115.8 184.7 339.7 238.5 526.4l-51.8-5.4-165.3-215.1-88.6-180.8-22-18.7.7-.2-128.2-31.6-91.6 32.2-53.7 3.9L902 874l.7-.9 38-53.2 82-74.4 100.6-29.7z"/><path class="st12" d="M1453.3 1497.2c-53.8-186.7-27.5-410.6-238.5-526.3l39-76c78.9 101.5 157.5 203.2 237 304.2 8.6 11 22.4 18 33.7 26.7 38.5 110.5 82.6 219.5 111.7 332.3 7.4 29-32.2 70.2-50.2 105.8-20-23-41.4-44.9-59.6-69.1-19.2-25.5-35.4-53.3-52.9-80l-20-17.4-.2-.2z"/><path class="st19" d="M1271.2 550l-18.8-19 18.8 19z"/><path class="st16" d="M1022.8 745.5l-82 74.4-38 53.2-.7 1-180.7 275.5-7.1-22.3-263.8 96.3 47.9-113.5-50.1-43.4-60 161.7-41.5-30.2-7.2-122c19-36 37.8-72.2 56.6-108.2l90.8 1 29.6 70.6 60.2-127.5c24.6 7 49.2 13.8 73.8 20.6l.2.1 23 84 22.2-7.6-7.7-76.4 93.7-44.3-38.8-67.7 13.3-148.5-73.5 62 5.1-93.6 18-128.2 73-38L851 421l91.6 19.7 76.7 99.4c45.5 67.7 105 135.1 3.6 205.4zM812.3 626.2c-11-8.6-16.5-15.2-23.4-17.5-4-1.3-10.2 4.2-15.5 6.6 3.2 6.7 5.1 17.8 9.8 19 6.4 1.9 15-3.7 29.1-8z"/><path class="st12" d="M1179.5 603.9l19.4-35.3-19.4 35.3z"/><path class="st6" d="M3696 1224.3c0-36-2.2-72 .8-107.7 1.7-19.5 12-38.2 18.4-57.3h87.3l22.5 139.4 28.8 4.3 43.8-142.5 179.4-1.3c11.5 23 21.5 46.9 34.9 68.7 23.9 39.1 49.8 77 74.8 115.3l-199.6 36.7-165.8-19.9-89.2 18.4-6-3.3 5.9 3.5-36-54.3z"/><path class="st8" d="M3710.6 1023l-183.9 28.5 95.6-75-52.5-119 123.5-126.2-13-55 70.3 57.2c-.7 88.5-39.4 203.5 123.9 177.7l3.9 95.4-167.8 16.4z"/><path class="st2" d="M3693.3 731.3l-123.5 126.2-39.4-72.4-17-17.7.8.4-40.1-89.4 43.2-94.4 105.4 74.2 70.6 73z"/><path class="st6" d="M3750.6 733.5l-70.4-57.1a48 48 0 01-.8-15.2l16.2-39 72.5-.7 56.1-36.8c5.6.4 11.2.7 16.9.7l.7.6 54.2 53.8-15.4 199c-43.4-35-86.7-70.2-130-105.3z"/><path class="st8" d="M3696 1224.3l36 54.3.1-.2 89.2-18.4-51 127.5-20 .4-164.4-146v-141.3l110 123.7z"/><path class="st6" d="M3791.2 311l89.4 91.9-31 63.4-44.6-7.4v35.4l.4 18.7-55.2 18.4c-36.6-82.8-81.1-167 41-220.3z"/><path class="st14" d="M3204 621.7l-83.6-49.2c15.4-45 27-79.2 45.8-133.8h56.1a47 47 0 0016.3 2l34.8 57.2 3.5 34.2-72.8 89.6z"/><path class="st5" d="M3710.6 1023l167.7-16.4c6.5 18 13 35.9 19.3 53.8l-43.8 142.6-28.8-4.3-22.5-139.4h-87.3l-4.6-36.3z"/><path class="st1" d="M3367.5 969l-127.4-54.6-18.3-127.6 36.4-.3 17.8-.1 18.8 26.3 18.7-26.1-.3.6 34.8 75 1.4 33.1c-2.2 2-6.4 4.5-6 5.6 1.4 4.7 4.3 8.9 6.6 13.3l16.6 17 1 37.7z"/><path class="st15" d="M3204 621.7l72.9-89.6 18 162.7-90.8-73.1z"/><path class="st8" d="M3312.8 313.2l53-43.4 46 57.4 11.8-52.7c5-3 10.5-5 16.2-6.3 3.8 3.5 7.9 6.5 12.3 9.2l8.6 69.4-147.9-33.6zM3750.2 531.4l55.2-18.4 18.8 71.7-56 36.8-18-90.1z"/><path class="st1" d="M3474 678.4l40.2 89.4-99.1-94 33.4-31.6 25.6 36.2z"/><path class="st3" d="M3679.4 661.2a48 48 0 00.8 15.2l13.1 54.9-70.6-73.1 14.4-36.1h40.6v-.1c.5 13 1 26.1 1.7 39.2z"/><path class="st1" d="M3372 610c2-20.3 3.8-40.6 5.6-60.9l17 .8v61.9l-22.5-1.8z"/><path class="st6" d="M3366.6 931.1l-16.6-17-.6-18.8-1.4-33 18.6 68.8z"/><path class="st2" d="M3677.7 622H3637a20310 20310 0 0122-40.7l18.6 40.7z"/><path class="st8" d="M3273.4 497.9l-34.8-57.2 34.8 57.2z"/><path class="st2" d="M3679.4 661.2l-1.8-39.2c6-.1 12 0 18 .3l-16.2 38.9z"/><path class="st1" d="M3513.4 767.4l17 17.7-17-17.7z"/><path class="st9" d="M3452.1 277.4a69.1 69.1 0 01-12.3-9.2l12.3 9.2z"/><path class="st20" d="M942.5 440.7l-91.6-19.6-54.2-63 109.7-29 36 111.6z"/><path class="st5" d="M796.7 358l54.2 63-71.7 53.6-80-16.1-29.7-14.1L614.3 331v-36L597 276l.7-18.2 74.3-56 124.7 156.4z"/><path class="st0" d="M-43.2 2629l2-21.3 412.5-42.6 3.2-27 114.4 182.5 17.5 51.4-38.3 97.6-18.4 12.8.2-2-70.3 79.2c-177.6-51.2-46.7-146-42.1-218.2L202 2663.3H-40.8v.3l-2.4-34.6z"/><path class="st5" d="M142 3465.3l18.7-51.9L269.3 3267l.7-.6 55.5-131.3a603 603 0 0016.3 5.3l91.6 71.6"/><path class="st17" d="M160.7 3413.4l-18.8 52c-158 7.4-74.6-140.4-128.5-200l-.2.2 109.4 18 .1.2 38 129.6z"/><path class="st17" d="M122.6 3283.7V3088c50 72.9 74.9 109 105.2 153l-105 42.7-.2-.1z"/><path class="st2" d="M341.8 3140.3c-5.4-1.7-10.9-3.4-16.3-5.3l54.1-175.4 70.3-79.2-36.7 140.8-3 6.1-49 39.4-19.4 73.6z"/><path class="st17" d="M-5 3247.3l-99-70.2 37.8-36.6L-5 3247.3zM269.3 3267l-6-4 6.7 3.3-.7.6zM-5 3247.3l18.2 18.3.2-.1-18.3-18.2z"/><path class="st15" d="M433.4 3211.9l3.6-111.1 124.8-15.8"/><path class="st9" d="M609.7 3393l25.4.2 7.9-.4h7.9l19.5 36.8-17.2 72-21.5 54.6"/><path class="st5" d="M2564.3 1242.5l77-56.9 202.9-62-42.8-210.6 37.4-90 .3-.3 17.7-17.5 110.6-111.6 72.3-34.8 17.4 91.7 38.6 180.7 45.6 122.4 57-64.2 32.4 15.7-104.4 237-139.2 145.6-60.8 6.6c29.5-63.2 56.3-121.6 84.1-179.4 19-39.4 39.5-78 59.3-117l-148.3-47.1c-4.4 39.1-9.4 78.2-12.8 117.5-1.7 20-.3 40.1-.3 73.5l-62.3-36.9-43 419.3-187-28.7-32.6-6.4-36-128.7 86.2-10.3c-8-25.3-15.8-50.7-24.3-75.8-14.7-44-30-87.9-45-131.8z"/><path class="st14" d="M2967.4 693.6l-110.6 111.6-17.7 17.5-.3.3-55.6 1.4 1.6-129.2 34.8-15 147-83.5.8 96.9z"/><path class="st4" d="M3057 750.5l-17.3-91.7 133.4 72.6-13.2 25.2-102.8-6.1zM3258.2 786.5l-36.4.3 7.3-33.8 29.1 33.5zM3313.5 786.6l-18.7 26.1-18.8-26.3 37.5.2z"/><path class="st15" d="M2819.6 680.1l-34.8 15.2-35 3-2.4-222 .8-1.2 53-36.7-16.9 56.4-3.4 5.6 3.1-6 37.1 110.2-1.5 75.5z"/><path class="st4" d="M4144.3-72l-12 10.5c-2.8-4.2-6.1-8-8-12.6-.5-1.1 4.2-6.3 5.1-6 4.7 1.8 9 4.8 15 8.2z"/><path class="st10" d="M-132.5 458.1C-85.2 316.6-20 195.6 158.3 203.7l69 131.6 4 22.4-34.8 8.3-8.4-6.6 7 8.5-44.1 46.7c-30.5-12.2-79.4-42.7-88.5-33.5C-1 444.9-56.4 516.9-114.3 586.4l-55-8 36.7-120.1v-.2z"/><path class="st18" d="M-114.3 586.3C-56.3 517-1 445 62.5 381c9-9 58 21.4 88.4 33.5L83.7 541.1c-5.4 2-10.4 4.8-15 8.5L-7 601l-56.4 71.2-1.1 1-52.6 39.2-69 2.3-2.8-3 74.6-125.4z"/><path class="st11" d="M227.3 335.3l-69-131.7 2.8-19.4 33.2-.1 119.2-70.7L375 241.2l-147.7 94.1z"/><path class="st2" d="M-206.6 32.2l56.7 43.3-.8 55.2.6-.6-18 17.8"/><path class="st10" d="M-132.6 458.3c-6.8-2.1-13.5-4.2.6.2-12-8.6-6.2-4.5-.5-.4l-.1.2z"/><path class="st9" d="M-168.1 147.9l18-17.8-18 17.8z"/><path class="st11" d="M-179.4 987.5c29.5 10.1 59 20.2 88.3 30.4l103.4 29.7c61.9 50.5 91.8 101 14.3 166.7-18.7 15.9-20 52.3-29.4 79.3L-60.2 1408l-130.7 10.3c-.6-71.2.7-142.4-2.5-213.5-1.9-42.1-10.7-84-16.5-126l30.5-91.3z"/><path class="st3" d="M-209.9 1078.8c5.8 42 14.6 83.9 16.5 126 3.2 71 2 142.3 2.6 213.5l-.2 3.1-32.4 37.9"/><path class="st16" d="M12.3 1047.6L-91 1018l-7.5-196.3 75.3 84V679.7L-7 601l75.8-51.4 18.7 13 3.4 3.2 13.7 19.9 54.8 218.8-77.8 146.1-69.3 97z"/><path class="st22" d="M-23.3 679.7v225.9l-75.3-84-.6-34.7 18.3-40 16.4-73.6 1-1 40.2 7.4z"/><path class="st19" d="M-186 714.7l69-2.3-67.2 41.9-1.8-39.6z"/><path class="st16" d="M-80.9 747l-18.3 39.9 18.3-40z"/><path class="st1" d="M3897.6 1060.4l-19.3-53.8-3.8-95.4 38.5-51c39.2 37 78.4 73.7 110 103.4l81.5-186.7L3932 641.2l110-74 127.1 239 .3 31.3-92.5 221.7-179.4 1.2z"/><path class="st6" d="M4196.3 1034l-26.8-196.5c0-10.5-.2-21-.3-31.4M4042.1 567.2l-110 74c-5.8-.3-11.6-.7-17.3-1.4l1-219.2 70.7 19 38 91 17.6 36.6z"/><path class="st1" d="M3915.8 420.6l-1 219.2H3896l-54.2-53.8c4-5.8 8-11.6-1.8 2.7 5.5-16.6 3.3-10 1-3.3-5.6 0-11.2-.2-16.8-.7l-18.8-71.7-.4-18.6V459l44.6 7.3 31-63.4 16.5.2 18.7 17.5zM4024.5 530.5l-38-90.8 38 90.8z"/><path class="st8" d="M4078.2 349l6 3-5.6-3.4-.4.4z"/><path class="st6" d="M2330 567.5l-3.8-21-88.9 113-108.5-37.3-1.4-36.3.4-.6c2-1.6 6.2-3.7 6-4.8-1.1-4.4-3.5-8.5-5.5-12.7-14.7-65.2-43.3-131.3-39.5-195.5 2.7-44.6 41.2-100.7 80.2-124.6 25.5-15.7 80.7 17 122.6 28l-14.8 105.6 38.5 1.1-22.8-106 164.1-35.4.6 53.1-37.5 236-89.8 37.4z"/><path class="st8" d="M2438.4 167.1l-11.6 38.3-17.8-14.9 28.2-24.6 1.2 1.2zM2127.4 585.9zM2079.8 649.6c-3 1.8-5.2 4-7 3.8-2-.2-3.6-2.8-5.3-4.3l12.3.5zM2128.3 567.8c2 4.2 4.4 8.3 5.5 12.7.2 1-4 3.2-6 4.8-.1-5.8 0-11.6.5-17.5z"/><path class="st17" d="M-158.3 1672.4l-5.6-15.5-26 5.6-19.8-100.2 116.8 40.6 36.2 41-23.7 87.7-135-16.2 99.2 91.9-.4 55.3-87.3 56.6"/><path class="st1" d="M-223.4 1459.3l32.4-37.9.2-3.1 130.6-10.3.9 89.5L-93 1603l-116.8-40.6 19.9 100.2a27014 27014 0 00-35-3.8"/><path class="st7" d="M-224.8 1658.7l35 3.8 26-5.6 5.5 15.5"/><path class="st5" d="M-69 2528.1c24-10.9 54.8-7 82.6-10l108.3-20.1 53.3 1.8 93.2-18.2c91.2 38 162.6 48 128-91l127-110 70 196.1c21.8-54.2 48.8-90.4 47.2-125.1-2.3-50.5-25.4-100-51-190l152.7 103.8v-111l19-19.3h53.9l.5.4 55.5 109.1-18.6 54.5 60.6 91-27.5 20.2-32.4.1c-111.8-13.5-165.8 44.9-189.5 147.1-3.3 14-32.7 22-50 32.9l-54.3-61.3 36 71.3-35.7 136.1-36.4 2-34.5-18-114.4-182.4-3.2 27-412.5 42.6"/><path class="st0" d="M-79 2097.4l3.6 3.6-4 98.9.4 2.5 16.8 22.3 258.6-88.2 19.2 4.8-92.8 230-.3 18.9-127.8 18-142.8 33.5 52.4-68.8 172.3-46.3-13.2-40.8L-97 2319"/><path class="st1" d="M-97 2319c.5 18 1 36 1.3 54l-52.4 68.7"/><path class="st6" d="M-5.3 2408.2l127.8-18-.6 107.7-108.3 20.3-18.9-110z"/><path class="st8" d="M-188.2 2062c12.8 3.2 25.8 9.1 38.6 8.8 40.9-1 81.8-4.5 122.6-7L-79.4 2200l4-99 5.9-9.8-9.5 6.2"/><path class="st11" d="M2564.3 713.4L2524 658l41.5-418.3.2-.4 18.3-24.6 55.7-69.8 22.3 146.2-25.4 112.2 2.3 35.8-40.6 57.5 39.8-1.5-73.8 218.2z"/><path class="st4" d="M2419.7 530l37.5-235.9 102.8-74c2 6.4 3.8 12.8 5.7 19.3l-.2.4c-12 24.8-27.2 48.6-35.6 74.6-25.4 78.5-48.2 158-72 237-12.7-7.2-25.5-14.2-38.2-21.3z"/><path class="st12" d="M2565.7 239.4l-5.7-19.3 24-5.3-18.3 24.6z"/><path class="st5" d="M2638.9 439.2l-2.3-35.8 60-72c4.5.2 9 .1 13.5 0l37.5-.3.6 144-.8 1.2-91.5-.5-17-36.6z"/><path class="st8" d="M2747.6 331.1l-37.5.2-17.8-164.3 1.3-1.1 54 165.2z"/><path class="st4" d="M2696.5 331.4l-60 72a96404 96404 0 0125.5-112.2l34.5 40.2z"/><path class="st8" d="M2692.3 167l3.9 5.6c-7.6-19.9-5.1-13.3-2.6-6.7l-1.3 1.1z"/><path class="st15" d="M159.4 804.5l-54.8-218.8-.4.3 17.5-25.6 92.1-11-24.4 89.3 33 9.8 103.1-231-34.5-9 111.6-134 29.8.8L554.9 332l64.5 154.8 50.1-42.4 29.8 14 6.8 54.1-18 128.2-70.4 1.2-62.8-9.5 24.2-173.7-126.9 163.8-56.2-.4-30.2-86.7-31.5 1L298.6 715l-139.2 89.5z"/><path class="st13" d="M402.6 274.5L291 408.5l34.5 9-103 231-33.1-9.8 24.4-89.3-6.1-50.4 51.7-19.2-28.2-122.1-4-22.4 147.8-94a38920 38920 0 0027.6 33.2z"/><path class="st16" d="M555 332l-122.6-56.7 165.3-17.6-.7 18.2 17.2 19.3v36l-59.3.8z"/><path class="st3" d="M213.1 19.6l-8.3 21.7L195 20l18.1-.4z"/><path class="st21" d="M-43.2 2629l2.3 34.6-27.3-16.6 25-18zM1948 3012.1l-112.2 236c-34.9 13.7-73.8 21.6-104 42.3-107.8 74.2-212.7 152.7-318.7 229.7l-25.6-36.5 38.8-76.2c-125.9 157-288.4 68.6-433.1 74.9l39.9-126 160-436.5 22.4-127.5-2.3-20.8.3-1.3c31.2-31.3 66-60.2 90.5-96.1 4.2-6.3-34.6-42-53.5-64 20-61.2 40.2-122.3 60.3-183.5l113.7 12.4c-36.8 137.5-73.6 274.7-109.6 412-.8 3.3 7.1 9 11 13.6l164 90.1c.2 25 .6 49.8.9 74.6l-18.8 53.8-150.1 90.3 142.2 34.4-28 101.6 254-152.2 235.4-150 22.5 5z"/><path class="st17" d="M1490.8 3029.3l-1-74.5.2-55.8 147-70.3 296.5-26.6-9.6 69.7 77.7-154.8 35.6-88.9h.5l94.7 66.2 104.8-194.5 33.1-.2 92.2 110.4-414.6 402.1-22.4-4.9c-6.4-39.2-10.7-79.2-22.5-116.8-1.3-3.8-49.1 2.4-72.8 11-113.6 41.3-226.4 85-339.4 128z"/><path class="st21" d="M2362.5 2610a261672 261672 0 01-92.1-110.4l125.9-147.2-33.8 257.6z"/><path class="st0" d="M2396.3 2352.4l-126 147.2-33.1.2.2.2 73.4-183.4 109.5-17.2-24 53z"/><path class="st6" d="M2420.3 2299.4l-109.5 17.2a126 126 0 01-1.4-14.2l-17.2-95.1 91.8 15.6 18.6 1 6.3.9 6.4-.1 22 57.3-17 17.4z"/><path class="st7" d="M2402.6 2224l-18.6-1-19.3-88 37.2 1 91.6 17-.6-.4-15.8 92.2-.1 18.1-39.8 19.1-21.9-57.3-12.7-.7z"/><path class="st21" d="M2748.3 2427.2l-37.2-328.7 164.3-19 36.4 128.6-45.5 27.6 98.7 56.5-14.2 11.6 129.5 122.5-4 74.2c-41.6 77.4-85.3 153.9-124 232.8-29 59-57.2 119.6-75.6 182.5-29.8 102.5-51.2 207.4-76.2 311.3l-18.7 19.9-34.3 18c-16.3-98.7-44.8-188.6 64.5-271 82.4-62.4 54.7-358.2 16-435l-79.7-131.8z"/><path class="st6" d="M2785.1 3266.3l181.4-92.3 34.1 138-74.6 168.7-51.7 41.6-89.2-256z"/><path class="st21" d="M3075.8 3576.2c.9-5.7 1.3-11.4 1.4-17.1 5.1-1.4 10.4-2.5 15.7-3.2 35.1-13 74.4-19.8 104.5-40.1 83-56.3 162.1-118.2 242.8-178 29.7 80.1-122.4 249.6-208.6 284.9"/><path class="st0" d="M3077.2 3559c0 5.8-.5 11.5-1.4 17.2-81.4 35.2-170.7 99.9-201.5-53.9l51.7-41.5 151.2 78.3z"/><path class="st17" d="M3440.2 3337.9c-80.7 59.7-159.8 121.6-242.8 177.9-30.1 20.3-69.4 27.1-104.5 40.2l147.7-272 272.6-71 1.3 71.3-74.3 53.6z"/><path class="st7" d="M2987 1387.7c46.5-48.5 93-97.1 139.3-145.7l60.8 35.4-19.8 165.5-1.9.2c-19.6 10.6-9 5 1.5-.7l253 52.2 7.8-3-5.7-12.4 20.3-71.6 63 67.4c-2.9-27.8-12.8-51.5-5.2-65.7 13-23.8 34.9-44.9 57.7-60 8.7-5.8 43.4 7.2 43.8 13.2 2.2 32-2 64.5-5.5 96.7-12.7 117.8-171.6 208.2-65.4 348.4l-119.1-18.2-173.6-74.9-120.7-90-45.3-135.3-53.8 94.7.7 57.2-138.8 42.6-23.6-57.2 130.6-238.8z"/><path class="st4" d="M3442.3 1407.6l-20.3 71.6a297 297 0 01-2.2 15.4l-253-52.2.5.5 19.8-165.5 255.2 130.2z"/><path class="st5" d="M3770.2 1387.5l51.1-127.5 165.8 19.8-.3 32-18 77.4c.6 5.1.9 10.2 1 15.4-2.2 2-6.4 4.4-6 5.9 1 4.7 3.7 9.1 5.7 13.6l.1-.3-37 91.4-162.4-127.7zm175.7-72l-3.2-5.9c-1.4 1.7-3.9 3.2-4 5-.2 1.8 1.8 3.8 2.8 5.7l4.4-4.9z"/><path class="st7" d="M3621.9 1643.8l-6.2-4.2 7.6 2.8-1.4 1.3z"/><path class="st8" d="M3750.3 1387.9l-3.3 5.9c1-2 2.2-4 3.3-5.9z"/><path class="st17" d="M2911.8 2208l-36.4-128.5 255.5-200 360.8-33.4c-69.9 97.2-60.6 158.2 74.1 161.8l-16.5 53.7-139 14.4-30.5 129.8-47.7 4.7-92-19.1-1.6-20-53.1-34.6-18.4-1.5c-2-1-4-2.2-5.9-3.3l5.9 3.3 1.2 19.1a152 152 0 00.1 16.9c-80.6 46.5-156.5 125.3-256.5 36.8z"/><path class="st22" d="M3238.5 2171.4l1.5 20c-40.6 110.4 9.3 268.8-163.7 309l4-74-129.5-122.6 14.2-11.6-98.7-56.5 45.5-27.6c100 88.5 176 9.7 256.5-36.8l70.2.1z"/><path class="st7" d="M3240.6 3284L3093 3556c-5.3.6-10.6 1.7-15.7 3l-151.2-78.2c23-52.3 46.2-104.5 74.6-168.8l-34.1-138 125.7-90 111.3 17.3c9 23 22 45.3 26.4 69.2 6.7 37.3 7.4 75.6 10.7 113.5z"/><path class="st1" d="M3203.5 3101.3l-111.3-17.3c-70.2-132.2 31.3-189.7 111.6-256.4l19.2 109.6-19.5 164z"/><path class="st7" d="M3223 2937.2l-19.2-109.6 127.4-72.8-108.2 182.4zM3337.5 3117.5L3280 2992l97.1-8.6-39.7 134.2zM3986.8 1311.8l.3-32 199.6-36.6 37.7 72.4c27 109.5-40.6 152.4-127.9 181.5l-92-110-17.7-75.3z"/><path class="st6" d="M3986.8 1311.8c6 25 11.8 50.2 17.7 75.2l-35.6 2.2 18-77.4z"/><path class="st1" d="M3969.5 1424.1c-2-4.5-4.7-8.9-5.8-13.6-.3-1.5 3.9-4 6-6l-.2 19.6z"/><path class="st4" d="M4224.4 1315.6c-12.5-24.1-25-48.3-37.7-72.4-25-38.4-51-76.2-74.8-115.3-13.4-21.8-23.4-45.7-34.9-68.7l92.5-221.7 26.8 196.4M3549.3 2061.6l16.5-53.7 21.5-17.9 96.5-63.8 29.4 63.9-111.7 253.5-72.8-20.3.4-84.7 20.2-77z"/><path class="st8" d="M3549.3 2061.6l-20.2 77c-28.6 21.1-55.3 45.8-86.5 62-17.1 9-41.6 4-62.8 5.2l30.4-129.8 139-14.4z"/><path class="st7" d="M3498.6 2446.4c-6.9 4.2-13.7 8.5-21 12.2-.5.3-3.3-3.8-5.1-6l21.4-11.8 4.7 5.6z"/><path class="st8" d="M3398.6 2302c-2 .6-5.1 2.2-5.8 1.5-1.4-1.6-1.5-4.3-2.2-6.5 2-.5 5.1-2 5.8-1.4 1.4 1.6 1.5 4.3 2.2 6.5z"/><path class="st5" d="M3131 1879.5a5286349 5286349 0 01-255.6 200l-164.3 19-125.9 38.8-18.3-97.5c106.2-88 124.4-148.9 53.2-178l164.3-36.6 18.6 18.3c-29.1 50-83.5 108 35.6 109.8 5.7 4.1 11.4 8.2-2-1.5l2.6.9 90.7-128.5 90.9-17.4 110.1 72.7z"/><path class="st6" d="M3020.8 1806.8l-91 17.4-126.8 19.3-18.6-18.3c3.5-21.1 15.6-57.5 9.2-61-55.2-31.2-113.8-56.4-171.4-83.4l34-37.8 182.5-15.5 8.9-1.1 9 .1 23.5 57.2 138.8-42.6L3076 1752l-55.2 54.8z"/><path class="st4" d="M3076 1752l-57-110.9-.7-57.2 99 40.6 120.7 90 1.6 56.4-163.6-19zm2.2-103.3c-2 .6-4.4.7-5.8 2-.7.6.7 3.4 1.2 5.2 2-.6 4.4-.7 5.8-2 .6-.5-.7-3.3-1.2-5.2z"/><path class="st2" d="M3239.6 1770.9l-1.6-56.4 173.6 75-172-18.6z"/><path class="st17" d="M3989 3029.3l18.1-16.7 18.6 18.6-36.6-1.9z"/><path class="st2" d="M1473.5 1514.8c17.5 26.7 33.7 54.5 52.9 80 18.2 24.2 39.6 46.1 59.6 69l.5 166.6c0-.2-4.6 4.5-4.6 4.5l-17.4 5.4-21.1 1.6c-53.6 64.1-110.9 125.7-158.7 193.9-15.1 21.6-5 61-6.6 92.1 26.8-7.8 65.4-7 78.1-24.8 46.2-64.6 83.6-135.4 124.3-203.8l38.2 54.7c-48.7 78.9-92.2 161.6-148 235.1-33.1 43.6-85.5 72.6-129.2 108.2l-36 55.5-70.5 128.6-125.8 402.3L978.7 3247l.2-.8-122 314.2-41.5-3.1.5-2.2-37.5-107.8-4-32a564 564 0 007.6-6.8l120.6-179.4 42.5-143.5 47.5-131.7 9.3-57 .8-2.6a34883 34883 0 0016.8-62.2l51.6-132.2c1.7-5 2-10 1.1-15.2l12.5-20.5 23.8-67.3 19-48.4-.4-69.2 16.8-163c89.9-152 180-303.8 268.9-456.5 4.8-8.3-1.4-23.2-2.5-35l5.8-19.3.8-16.8.2.3 34.8-63 24.5 18.1 12.4-29.6a31 31 0 011.2-17l15-22.7a10 10 0 01.8-9.8l-15-21.6c-2.8-4-4.2-8.3-4-13.2l-31.4-57.3 2.1-56.4c5.4-.2 10.7-.8 16-1.7zM900.4 3371.6l-5.7-.4 2.3 8 3.4-7.6z"/><path class="st8" d="M1618.7 1954l-38.2-54.7 1.4-64.4s4.6-4.7 4.6-4.5c10.6-4.3 21.2-9 31.8-13.5l90.4-27.3-49.7 340.5c-21.9-95.6-31-135.9-40.3-176z"/><path class="st0" d="M1618.7 1954l40.3 176 49.7-340.4 73.5 2c36.2 35.5 72.5 71 108.7 106.7 24.6 18 49.2 36.2 73.8 54.4l54 128.1 55.1 72.7-.4-.5-.4 73.8-128.4 16.8c-27-92-55.6-181.9-136.6-168.3l-61.6 297-38 91.3-108.6.5-1.3-1.2 50.3-297.1-102.6 69.3c-10.4 122.2-106.6 94.3-204.7 62.2 43.7-35.6 96-64.6 129.2-108.2 55.8-73.5 99.3-156.2 148-235zm25.6 441.4l4.3-6.8-7-1 2.7 7.8zM2131.5 1567.7l196.1 167.4 93 128.3 72 123.7-38.3 40.5-51.1-2.2-217.6-183.4-.9-1.5-57.2-50.1-1-.8-50.6-22.6a375010 375010 0 01-101.6-85.9l63-94.4 71-18.6 20.9-1 2.3.6z"/><path class="st6" d="M1964.7 1952.7l-73.8-54.4 135.5-38.2 174.6 94 93 104.7-55 40.3-.8 52-20.7 25.8-252.8-224.2zm147 14l-.1-19.7-57 2.8.4 16.9h56.7z"/><path class="st4" d="M2294 2058.8l-93-104.6-15.4-112.2 217.6 183.4c-.5 36.8-1 73.7-1.3 110.6l-37.2-1 .6.4-18.9-18.9.8.8-19.1-19.2 1 .9-35-40.2z"/><path class="st1" d="M2026.4 1860.1l-135.5 38.2-108.7-106.8 244.2 68.6z"/><path class="st7" d="M2037.3 1586.7l-63 94.5-11.5-129.2 74.5 34.7z"/><path class="st2" d="M1793.2 1339c6 15.8 13 31.5 16.6 47.8.4 2-18 8-27.6 12l-17.7-49 28.7-10.8z"/><path class="st4" d="M2127.5 1790.4l57.2 50-57.2-50zM2076 1767l50.5 22.6-50.6-22.6z"/><path class="st1" d="M2129.2 1567.2l-20.8.9 20.8-1z"/><path class="st14" d="M2656 475.8l91.4.5 2.3 222c-58.8 76-115.4 154-178.1 226.7-14.5 16.8-49.5 15.9-75 23l67.7-234.6 73.8-218.2 17.8-19.4z"/><path class="st12" d="M2458 551.4c23.7-79 46.5-158.5 72-237 8.3-26 23.4-49.8 35.5-74.6L2524 658l-67.1 1.5-1.8-22.8c1-28.5 2-57 2.8-85.4z"/><path class="st3" d="M2455.1 636.8l1.8 22.8c35.5 114 20 149-86.4 186.5l-9-61 21.1-35.4 72.5-112.9z"/><path class="st1" d="M2783.2 824.4l55.6-1.4-37.4 90a162933 162933 0 01-70.2 54.4l-81.5 79c-20.3-6-40.6-11.9-61-17.7l-2.8-20.9 197.3-183.4z"/><path class="st15" d="M2585.9 1007.8l2.8 20.8-96.1 140.5-39.4-1.5 132.7-159.8z"/><path class="st5" d="M2420.6 1863.4l-93-128.3v-55.8l159.4 21.1 3.9 1.4 92.7 66.8 18.3 93.3-181.3 1.5z"/><path class="st16" d="M2564.3 1242.5c15 44 30.3 87.8 45 131.8 8.5 25.1 16.3 50.5 24.3 75.8l-86.3 10.3-109.6 17.5c14.6-93.3-33-220 126.6-235.4z"/><path class="st6" d="M2487 1700.4l-159.4-21.1-86.2-30.2 262.3-114.5 45.6 56.3-62.3 109.5z"/><path class="st4" d="M2487 1700.4l62.3-109.5 34.1-1.8 32.7 6.3c.2 3.3.9 6.5 2 9.6l-5.3 5 3.4 3.3 5-5.2 35 34.9-34 37.8-20.4 36.1-111-15.1-3.8-1.4zM2731.2 967.4c23.4-18 46.8-36.2 70.2-54.4l42.8 210.6-202.9 62c-2.1-4.4-4-9-5.6-13.7l95.5-204.5z"/><path class="st2" d="M2731.2 967.4l-95.5 204.5-49.7-22.7 12.7-17.5 38.5-55.4 12.5-30 81.5-78.9z"/><path class="st16" d="M2598.7 1131.7l-12.7 17.5-93.4 20c32-47 64-93.8 96.1-140.6l61 17.7-12.5 30-38.5 55.4z"/><path class="st8" d="M2455.1 636.8l-72.5 112.9-52.7-182.2 89.8-37.4 38.2 21.2-2.8 85.5z"/><path class="st14" d="M1505.8 1665a10 10 0 00-.8 9.8l-15 22.8a31 31 0 00-1.2 16.9l-37 11.4-34.7 63.1-91.2-109.2-54.4-127.8 130-60.3 51.8 5.5.2.2 4 19.1-2.1 56.4-35.6 16 67 41.3c-.1 4.9 1.2 9.2 4 13.2l15 21.6z"/><path class="st5" d="M1401.5 1491.7l-130 60.3-76.3-183.6c0-17.5-.2-34.9-.3-52.3l41.3-39.4 165.3 215z"/><path class="st8" d="M721.4 1149.6L902.1 874l-49.3 207.4-36.2 51.2-56.8 163.7c-4.8.9-9.6 1.3-14.5 1.1L701 1258c-4-5.5-7.8-11-11.7-16.7l32.1-91.7z"/><path class="st1" d="M1236.2 1276.7a63311 63311 0 00-41.2 39.4l-106.4-38-16.2-108.4 53.9-92.7-.7.2 22 18.7 88.6 180.8z"/><path class="st8" d="M906.5 1077.6l91.6-32.3 15.6 49-55.4 165.2-67.2 16.7c-.9-5.3-1.7-10.6-2.4-16l17.8-182.6z"/><path class="st1" d="M906.5 1077.6l-17.8 182.6-72.1-127.6 36.2-51.2 53.7-3.8z"/><path class="st5" d="M1013.7 1094.3l-15.6-49 128.2 31.7-54 92.7a413566 413566 0 01-58.6-75.4z"/><path class="st8" d="M902.8 873.1z"/><path class="st5" d="M1147.6 1096z"/><path class="st9" d="M1457.5 1516.5l-4-19.1 20 17.4a110 110 0 01-16 1.7z"/><path class="st22" d="M721.4 1149.6l-32 91.7c-1.5 5.4-2 10.9-1.6 16.4l-3 3.2-14.9 16-19.3 36.8-92 146-16.1 20.4.4-.2c-141-39.7-210.8 65-293.2 144.3l-20 15.8-74.8 19.8-43.7.5L85 1588l74.1-145.9c37.4-27.4 75-54.6 112-82.4 60-45.2 119.5-90.8 179.3-136.2l263.8-96.3c-6-18.5.6 1.9 7.1 22.3z"/><path class="st20" d="M450.5 1223.6c-59.8 45.4-119.3 91-179.3 136.2-37 27.8-74.6 55-112 82.4l.3.3-37.3-18.6 1 .4-1.2-28.5-124.8-102.2c9.3-27 10.7-63.4 29.4-79.3 77.5-65.6 47.6-116.2-14.3-166.7l69.3-97 255.9-131.1c-96.3 116-258.2 202.7-165.9 417.9l42.4-68-.4-.4 77.1-111.3 49 18.5 7.1 122 41.6 30.2 59.9-161.7 50 43.4-47.8 113.5zm-332.7-182c-4.9-1.6-9-3.7-13.4-4.2-1.5-.1-5.3 4.8-4.8 5.8 1.9 3.8 5.1 7 7.8 10.3l10.4-11.9z"/><path class="st14" d="M617.7 642l70.4-1.3-5.2 93.6 73.6-62-13.3 148.5-92.6 112c-24.6-7-49.2-13.8-73.7-20.6l1.8-125.2 39-145z"/><path class="st15" d="M578.7 787l-1.8 125.2-60.3 127.4L487 969l32.5-100.4-70.8-9.2 2.8-19.6c1.9-1.8 5.7-4.3 5.3-5.2-1.5-4.3-4.3-8-6.6-12l-6.4-34.6 4.8-1.5 130 .5zM650.6 932.7l92.6-111.9 38.8 67.7a379216 379216 0 01-93.7 44.3h-37.5-.2z"/><path class="st11" d="M339.6 1076.2l-49-18.5C293.6 966 310.3 890 432 932.2L396.2 968l-56.6 108.2z"/><path class="st14" d="M396.2 968l35.8-35.8 16.7-72.7 70.8 9.1L487 969l-90.8-1z"/><path class="st17" d="M706 512.5l-6.7-54 79.9 16.1-73.1 38z"/><path class="st14" d="M650.8 932.8h37.5l7.7 76.4-22.2 7.7-23-84zM812.3 626.2c-14.1 4.4-22.7 10-29.1 8.2-4.7-1.3-6.6-12.4-9.8-19.1 5.3-2.4 11.5-8 15.5-6.6 6.9 2.3 12.4 8.9 23.4 17.5z"/><path class="st8" d="M3732 1278.6l-6-3.5 6.1 3.3v.2z"/><path class="st9" d="M3913 860.3l-38.5 51c-163.3 25.7-124.6-89.3-124-177.8 43.4 35.1 86.8 70.2 130 105.4l32.5 21.4z"/><path class="st5" d="M3913 860.3l-32.4-21.4 15.4-199.1h18.8c5.7.7 11.5 1.1 17.3 1.4l172.4 135.7-81.5 186.7-110-103.3z"/><path class="st8" d="M3805 459V458.8z"/><path class="st4" d="M3349.4 895.3l.6 18.9c-2.4-4.4-5.2-8.6-6.6-13.3-.4-1.1 3.8-3.7 6-5.6z"/><path class="st17" d="M555 332l59.3-.9 55.2 113.3a34856 34856 0 01-50.1 42.4L554.9 332z"/><path class="st14" d="M614.2 295.2L597 275.9l17.2 19.3z"/><path class="st4" d="M523.4 2738.5l36.4-2 50.6 17.3c-5 66.9-134.8 135.7 3 200.4L561.8 3085 437 3100.7l-23.8-79.5 36.7-140.8-.2 2 18.4-12.8 38.3-97.6 17-33.5z"/><path class="st8" d="M523.4 2738.5l-17 33.5-17.5-51.4 34.5 18z"/><path class="st2" d="M468 2869.6l-18.3 12.8 18.4-12.8z"/><path class="st0" d="M413.2 3021.2l23.8 79.5-3.6 111.2-91.6-71.6 19.5-73.6 41 38.3c3.3-33 5.6-55.4 8-77.7l2.9-6z"/><path class="st4" d="M410.2 3027.3l-8 77.7-41-38.3 49-39.4z"/><path class="st10" d="M561.8 3085l51.6-130.8c15.9 25.3 31.8 50.6 47.5 75.9l-6 54.4-4.6-1.7-14.9 74 2.4 33.2-18.4 79.8-9.7 123.2"/><path class="st6" d="M902.6 3229L782 3408.7l-10.4-22 2.7 28.6 4.1 32-37 54.5-88.2-.1 17.2-72-3-38c11-42.6 21.8-85.3 32.7-128 2.7-5.3 5-10.7 7-16.3l147.8 32.4 35.3-52.3c4.2-.1 8.3.5 12.4 1.7z"/><path class="st0" d="M815.9 3555l-.5 2.3"/><path class="st12" d="M705 3556.3l36.3-54.6 37.1-54.4L816 3555"/><path class="st2" d="M700.1 3263.6a569713 569713 0 00-32.6 128c-5.5.6-11 1-16.6 1.2h-8l-7.8.4 36.4-128.6 28.6-1z"/><path class="st8" d="M631.7 3556.2l21.5-54.6 88.1.1-36.3 54.6"/><path class="st1" d="M671.5 3264.6l-36.4 128.6-25.4-.2 9.7-123.2 50-21.8c1 5.4 1.8 11 2.1 16.6z"/><path class="st8" d="M650.9 3392.8c5.5-.2 11-.6 16.6-1.1l2.9 37.9-19.5-36.8z"/><path class="st1" d="M856.8 3560.4L979 3246.2l-.6 74-1.4 181.2"/><path class="st9" d="M815.4 3557.3l41.4 3.1"/><path class="st17" d="M2856.5 1626.5l-9-.1-8.8 1-35.8-3.2 43.1-419.3 62.3 36.9c0-33.4-1.4-53.6.3-73.5 3.4-39.3 8.4-78.4 12.8-117.5l148.3 47c-19.8 39-40.3 77.7-59.3 117-27.8 58-54.6 116.3-84.1 179.5l60.8-6.6-130.6 238.8z"/><path class="st1" d="M2803 1624.2l35.7 3.3-182.5 15.5-35-35-3.1-3a34.5 34.5 0 01-2-9.6l186.8 28.8zM2839 822.7l17.8-17.5-17.7 17.5z"/><path class="st11" d="M2784 494.5l-3 5.9c1-1.9 2.2-3.8 3.3-5.6l-.3-.3zM231.2 357.7l28.2 122.1-51.7 19.2 6.1 50.4-92.1 11.1-21 6c-3.3-.4-6.5-.6-9.8-.7l-3.4-3.2-3.8-21.4L151 414.5l44.2-46.6 1.4-2 34.7-8.2z"/><path class="st13" d="M195.1 367.9l-7-8.5 8.4 6.6-1.4 1.9z"/><path class="st15" d="M-23.3 679.7l-40.1-7.4L-7 601l-16.3 78.7zM83.7 541.2l3.8 21.4-18.7-13c4.5-3.7 9.5-6.5 15-8.4z"/><path class="st9" d="M-2.8 1293.6L122 1395.8l-41.3 44.7-140 57-.9-89.5 57.4-114.4z"/><path class="st11" d="M-191 1421.4l-32.4 38 32.4-38zM337.4 819.5L81.6 950.6l77.8-146c46.4-30 92.8-59.8 139.3-89.6L359 713l1 19.2-63.5 30.7 40.8 56.5z"/><path class="st15" d="M91 565.8c3.2 0 6.4.3 9.7.7l3.5 19.5.4-.3-13.7-19.9z"/><path class="st6" d="M3841 585.4c2.3-6.6 4.5-13.3-1 3.3 9.9-14.3 5.8-8.5 1.8-2.7l-.7-.6z"/><path class="st1" d="M2292.5 276.5l22.8 106-38.5-1.2 14.8-105.6 1 .8z"/><path class="st5" d="M-59.3 1497.5l140-57 42.4-16.2-.9-.4 37.3 18.6-.3-.3-74.1 146-141.8 55.7-36.2-41 33.6-105.4z"/><path class="st4" d="M-203.9 1919.1l87.3-56.5 82.8 20.6-61.8 108.8c-31 23.3-61.8 46.7-92.6 70"/><path class="st6" d="M-95.6 1992l61.8-108.8-82.8-20.6.4-55.3 57.6 18.1L45 1750.8l24 41.5-1 69.5c-32.8 34.9-63.6 72-99.4 103.6-16.4 14.6-42.5 18.1-64.2 26.6z"/><path class="st7" d="M-56.7 1643.9L85.1 1588l26 72.2-9.8 38.4-52.5-18-125 55.1-4.2-4.2 23.7-87.7zM-58.6 1825.4l-57.6-18.1-99.3-91.9 135.1 16.2 4.2 4.2 17.6 89.6z"/><path class="st17" d="M122.8 2371.2l92.8-230 32.8-8.5 184-88.7c37.7-61.7 61.3-145.2 116-180.6 133-86 53.1-139.5-11.7-202.9l43.9-86.5 123.2-96 21.5 1c92.9 28.5 186 56.2 278 87 7.8 2.6 8.2 26.8 12 41v67.7L804 1758.1l29.7 246.7-72.4 130.3-19.1 19.2c-108-79.6-190.1-32.2-218.9 126.3l-127 110-128 91-93.1 18.2c0-50 80-132.6-52.5-128.6z"/><path class="st1" d="M1195.2 1368.4l76.3 183.6 54.4 127.8-2 52.5c-1.7 2.3-5.1 5.2-4.6 7 1.3 4.8 4.3 9.2 6.7 13.8l-3 160.5c-97.4 36.4-225.3 275.9-216 404.2l-108.3 127-88.3 1.2-24.7-35.7 27.5-20.2-60.6-91c83.6 10.7 127-32.3 145-108.9l49.2 31.2 29.5-16.8-96.9-160.5.2.2 53.6-143 159.4-9.3-67.2-82.5 18.8-20.3v.7l86.5-55-67.3-39.2-19.7-89-71.4-146.7 123-91.6z"/><path class="st8" d="M610.4 2753.8l-50.6-17.3 35.6-136.1 18.5-10c17.2-10.8 46.6-18.8 49.9-32.9 23.7-102.2 77.7-160.6 189.5-147.1l-109.6 81.2 21.6 24.6 66.2-18.3v95.3c-1.6 1.9-5 4.6-4.5 5.4 2 3.8 5 7.2 7.7 10.8l-.8-1.2.1 22.2c.5 5.7-.3 11.2-2.6 16.5l-68 34.7c-65.4-6.5-137.3-26.7-153 72.2z"/><path class="st0" d="M523.4 2280.7c28.8-158.6 110.8-206 218.9-126.4v111.1l-152.6-103.7c25.5 89.8 48.6 139.4 51 189.9 1.5 34.7-25.5 70.9-47.2 125.1l-70-196z"/><path class="st1" d="M761.4 2135.1l72.4-130.2 145.8 39.4-.2-.2v73l-108.2 127.5-55.5-109c1-2.3 2.1-4.4 3.2-6.6l-3.7 6-53.8.1z"/><path class="st2" d="M831.5 2593.2V2498l-66.2 18.3-21.6-24.6 109.6-81.2 32.4-.1 24.7 35.7-24.8 219-34.6-39.4-17-17.4.7 1.1c-1.2-5.3-2.2-10.7-3.2-16z"/><path class="st0" d="M268.4 2481.6l128-91c34.6 139-36.8 129-128 91z"/><path class="st8" d="M871.2 2244.6l108.2-127.5 18.2 73.1c-18 76.6-61.4 119.6-145 109l18.6-54.6z"/><path class="st7" d="M122.8 2371.2c132.5-4 52.5 78.6 52.5 128.6l-53.4-1.8.6-107.8.3-19z"/><path class="st2" d="M613.9 2590.4l-18.5 10-35.9-71.3c37.8 42.6 46 52 54.4 61.3z"/><path class="st7" d="M432.4 2044l-184 88.7 11.9-101.8-264.7 46.4 200.8 59.2-258.6 88.2-16.8-22.3-.4-2.5 52.4-136.1c-40.8 2.5-81.7 6-122.6 7-12.8.3-25.8-5.6-38.6-8.7l92.6-70.1c21.7-8.5 47.8-12 64.2-26.6 35.8-31.6 66.6-68.7 99.4-103.6l109.3-19.3 163.6 113 91.5 88.5z"/><path class="st6" d="M196.4 2136.5l-200.8-59.2 264.7-46.4c-4 33.5-7.9 67.7-11.8 101.8l-33 8.6-19-4.8z"/><path class="st7" d="M-95.7 2373l-1.2-54 160.3-33.2 13.2 40.8-172.3 46.3z"/><path class="st8" d="M-79 2202.4z"/><path class="st0" d="M-79 2097.4l9.5-6.2-6 9.7-3.5-3.5z"/><path class="st4" d="M2656 475.8l-18 19.4-39.7 1.5 40.6-57.5 17 36.6z"/><path class="st11" d="M578.7 787l-130-.5-17.2-37.6 66.1-63.6-45.7-27.5.3-35.3 126.9-163.8-24.2 173.7 62.8 9.5-39 145z"/><path class="st16" d="M359.1 713.1l-60.4 1.9 35.6-178.6 31.5-1 30.2 86.7-36.9 91z"/><path class="st14" d="M359.1 713.1l36.9-91 56.2.4-.3 35.3-20.4 91.1 17.2 37.6-4.9 1.5-83.7-55.7-1-19.2z"/><path class="st16" d="M104.2 586l-3.5-19.5 21-6-17.5 25.5z"/><path class="st17" d="M1341.5 2297.3c98 32.1 194.3 60 204.7-62.2l102.6-69.3-50.3 297-17.5 18.9-3.2 6 3.2-6 18.8-17.6 108.6-.5 16.8 71.7 1.3 75-182.9 107-85.3-47.5-5.4 47.2-127 147.6c-4-4.6-11.9-10.3-11-13.6 36-137.3 72.8-274.5 109.6-412l-113.8-12.4-7.7 1 2.5-74.8 36-55.5zm109.7 254.4l42 5 56.1-204.7-46.8-10.8-51.3 210.5z"/><path class="st0" d="M1490.8 3029.3c113-42.8 225.8-86.6 339.4-127.9 23.7-8.6 71.5-14.8 72.8-11 11.8 37.6 16.1 77.6 22.5 116.8l-235.3 150 6.4-20.6-224.6-53.5 18.8-53.8z"/><path class="st17" d="M1472 3083.1l224.6 53.6-6.4 20.5-254 152.2 27.9-101.6-142.2-34.4L1472 3083z"/><path class="st4" d="M978.3 3320.1l.6-73.9-.2.8 150-343.5 64.4 16.3-160 436.6-54.8-36.3z"/><path class="st6" d="M1193 2919.8l-64.3-16.3-19.5-19.8 125.8-402.3 68-53.7 7.7-1.1-60.2 183.5-37 160-.2 1.4 2.2 20.8-22.4 127.5z"/><path class="st5" d="M1325.8 2864.6L1453 2717c-52 73.8-49.3 136.4 37 182l-.1 55.8-164-90.2z"/><path class="st17" d="M1213.5 2770.2l37-160c18.9 22 57.7 57.6 53.5 63.9-24.6 35.9-59.3 64.8-90.5 96z"/><path class="st8" d="M978.3 3320.1l54.8 36.3-40 125.9-16.2 19.1 1.4-181.3z"/><path class="st17" d="M1215.5 2792.3l-2.2-20.8 2.2 20.8zM2454.3 2027.6l38.3-40.5 37.6-1.1 16.4 40.1 20.3 13.7 18.3 97.5-46.9 36.1-45.4-20.8.6.4-39.2-125.4z"/><path class="st8" d="M2493 2152.6c15 7 30.2 13.9 45.3 20.8l-61.2 71.4 15.8-92.2z"/><path class="st5" d="M1944.6 2243.6l128.4-16.8c12.4 40.3 17 85.7 39 119.8 35.8 55 83 102.7 125.4 153.4l-.2-.2-104.8 194.5c-37.2-26-66-46-94.7-66.2l-74-10-17.4-153.6c24-9.5 51-14.7 71-29.4 23.2-17 41-41.8 58.4-65.3 2.5-3.3-10.9-18.4-17-28-19.2 12.4-37 30.5-58.2 36-37.9 10-77.7 12.6-157.2 24.1l101.3-158.3z"/><path class="st0" d="M1946.3 2464.5l17.4 153.6a535612 535612 0 0173.5 10l-35.6 89c-20.5 40.7-41 81.4-77.7 154.7l9.6-69.7-296.6 26.6-93.3-111.4 182.9-107 130.2 162.3 37.7-108.3-40.4-91-.2-75.3 92.5-33.5z"/><path class="st15" d="M1543.6 2717.3l93.3 111.4-147 70.3c-86.3-45.6-89-108.2-37-182l5.4-47.2 85.3 47.5z"/><path class="st5" d="M2001.6 2717l35.6-88.9-35.6 89z"/><path class="st17" d="M2237.4 2500c-42.4-50.7-89.6-98.3-125.3-153.4-22.1-34-26.7-79.5-39.1-119.8l.4-73.8c29 27.3 54.4 60.5 87.7 80.6 46.4 28 98.6 46.4 148.3 68.8.2 4.8.6 9.5 1.4 14.2l-73.4 183.4z"/><path class="st7" d="M2309.4 2302.4c-49.7-22.4-102-40.7-148.3-68.8-33.3-20.1-58.8-53.3-87.7-80.6l.4.5-55-72.7-54-128.1 252.7 224.2 20.7-25.8 54 56.2 17.2 95.1z"/><path class="st8" d="M2292.2 2207.3l-54-56.2.8-52 90.2-.1-1.1-.9 19.1 19.2-.8-.8 19 19-.7-.5 19.3 88-91.8-15.7zM2402.6 2224l12.7.7h-6.4l-6.3-.7zM2454.3 2027.6l39.2 125.4-91.6-17 1.3-110.6 51 2.2z"/><path class="st6" d="M3117.3 1624.5l-99-40.6 53.7-94.7 45.3 135.3z"/><path class="st4" d="M3166.9 1442.4c-10.6 5.6-21 11.3-1.5.7-22.2 2.4-10.1 1.1 2-.2l-.5-.5z"/><path class="st6" d="M3419.8 1494.6c.9-5.2 1.6-10.3 2.2-15.4 2 4.1 3.8 8.3 5.7 12.4l-7.9 3zM3945.9 1315.4l-4.4 5c-1-2-3-4-2.9-5.9.2-1.7 2.7-3.2 4.1-4.9l3.2 5.8z"/><path class="st16" d="M3238.5 2171.4l-70.2-.1c-.3-5.6-.4-11.2-.1-16.9l17.2-17.6 53 34.6z"/><path class="st22" d="M3185.4 2136.8l-17.2 17.6-1.2-19.1 18.4 1.5zM3167 2135.3l-5.9-3.3 5.9 3.3z"/><path class="st1" d="M2530.2 1986l-37.6 1.1-72-123.7 181.3-1.5h-.1 18.3c71.2 29 53 89.9-53.2 178l-20.3-13.8-16.4-40.1zM2601.8 1717l20.4-36.2c57.6 27 116.2 52.2 171.4 83.3 6.4 3.6-5.7 40-9.2 61.1l-164.3 36.6h-18.3l.1.1-18.3-93.3 18.2-51.7zM2803 1843.5l126.9-19.3-90.7 128.5-.6.6c-119.1-1.8-64.7-59.9-35.6-109.8z"/><path class="st1" d="M2839.2 1952.7l-2.6-.9c13.4 9.7 7.7 5.6 2 1.5l.6-.6z"/><path class="st6" d="M3078.2 1648.7c.5 1.9 1.8 4.7 1.2 5.3-1.4 1.2-3.8 1.3-5.8 2-.5-1.9-1.9-4.7-1.2-5.3 1.4-1.3 3.8-1.4 5.8-2z"/><path class="st7" d="M885.6 2665l24.8-219 88.3-1.3 108.5 36.7-72.5 218.5-15.2 132.2-16.9 62.1-99-27c-5.4-1.3-11-1.3-16.4.2l-1.6-202.3z"/><path class="st14" d="M1107 2317.8c-9.3-128.3 118.6-367.8 216-404.2l87.3-88.8c1 11.8 7.3 26.7 2.5 35-88.8 152.7-179 304.5-268.9 456.6l-37 1.4z"/><path class="st10" d="M1581.9 1834.9l-1.4 64.4c-40.7 68.4-78.1 139.2-124.3 203.8-12.7 17.8-51.3 17-78 24.8 1.4-31.2-8.6-70.5 6.5-92.1 47.8-68.2 105-129.8 158.7-193.9l21-1.6 17.5-5.4z"/><path class="st7" d="M902.6 3229c-4-1.1-8.2-1.7-12.4-1.6l-54.3-68.2-4.7-5.7-30.6-52.2 82-219.7 4.3-4.5 8 2.8 8.6-.1 98.4 17.2-9.2 57-47.6 131.6-42.5 143.5z"/><path class="st5" d="M1107 2317.8l37-1.4-16.9 163-19.9 2-108.5-36.7 108.3-126.9z"/><path class="st1" d="M1109.2 2883.7l19.5 19.8-150 343.5 130.5-363.3zM1107.2 2481.4l20-2 .3 69.2-19 48.3-23.8 67.3-12.5 20.5a29 29 0 01-1 15.2h-36.5l72.5-218.5z"/><path class="st0" d="M1410.3 1824.8l-87.3 88.8 3-160.5-2.2-20.8 2-52.5c30.5 36.4 61 72.8 91.3 109.2l-.2-.3c-.7 5.6-1 11.2-.8 16.8l-5.8 19.3z"/><path class="st4" d="M1303 2427.7l-68 53.7 70.6-128.6c-1 25-1.8 50-2.6 74.9z"/><path class="st6" d="M1034.7 2699.9h36.4l-51.6 132.2 15.2-132.2zM945.1 3085.6l47.6-131.7-47.6 131.7z"/><path class="st9" d="M1486.9 1630.2l-67.1-41.2 35.6-16 31.5 57.2z"/><path class="st6" d="M1002 2897l-98.5-17.2c.2-4.2.3-8.4.2-12.6l99 27-.8 2.8z"/><path class="st9" d="M1451.9 1726l37-11.5-12.5 29.6-24.5-18.2z"/><path class="st6" d="M900.4 3371.6l-3.4 7.6-2.3-8z"/><path class="st7" d="M1108.5 2597z"/><path class="st14" d="M1416.1 1805.5c-.2-5.6.1-11.2.8-16.8l-.8 16.8z"/><path class="st3" d="M1564.5 1840.3z"/><path class="st9" d="M1505.8 1665zM1490 1697.6z"/><path class="st6" d="M1072.2 2684.7l12.5-20.5-12.5 20.5z"/><path class="st1" d="M1946.3 2464.5l-92.5 33.5-107.4-125.7 61.6-297c81-13.6 109.6 76.3 136.6 168.3L1843.3 2402c79.5-11.5 119.3-14 157.2-24 21.2-5.6 39-23.7 58.3-36.1 6 9.6 19.4 24.7 17 28-17.4 23.5-35.3 48.2-58.4 65.3-20 14.7-47.1 20-71.1 29.4z"/><path class="st7" d="M1746.4 2372.3l107.4 125.7.2 75.4-54.3-.6-1.1-17.9-17.4-17c-18.7-1-37.3-1.7-56-2.6l-16.8-71.7 38-91.3z"/><path class="st17" d="M2018.7 2080.8l55.1 72.7-55-72.7zM1644.3 2395.4l-2.8-7.7 7.1.9z"/><path class="st7" d="M2329.2 2099l-90.2.1 55-40.3 35.2 40.2zM2111.7 1966.7H2055l-.4-17 57-2.7v19.7zM2365.3 2135.4l-18.9-18.9 19 19zM2347.2 2117.3l-19.1-19.2 19.1 19.2z"/><path class="st6" d="M2601.8 1717l-18.2 51.6-92.7-66.8 110.9 15.1z"/><path class="st1" d="M2621.2 1608l-5 5.3-3.4-3.3 5.3-5 3.1 3zM2598.7 1131.7l38.5-55.3a138103 138103 0 00-38.5 55.3z"/><path class="st6" d="M1195.2 1368.4l-123 91.6 14.9-182.6 1.5.8L1195 1316l.2 52.3z"/><path class="st0" d="M725.3 1479l-21.5-1 39.7-144.3.7-20.2c-1-5.4-.7-10.8 1-16a70 70 0 0014.6-1.2l131.3-20.1 67.2-16.6 2.4 111.2c-21.7 39-35.7 101.2-67 111.7-50 16.9-111.7-.6-168.4-3.5z"/><path class="st9" d="M743.5 1333.7l-39.7 144.4-123.2 96-78.3-6.9c13.6-29 27-58.2 40.6-87.3l-.4.2 9 .8 9-1.5c114.8-9 127.4-73.8 90.1-165.7l19.3-36.8 14.8-16 3.1-3.1 6.6.8 6.6-.6 44.3 39.4a31.7 31.7 0 00-1.1 16.1l-.7 20.2z"/><path class="st5" d="M891.1 1276.2l-131.3 20.1 56.8-163.7 72.1 127.6c.7 5.4 1.5 10.7 2.4 16z"/><path class="st16" d="M701 1258l-6.6.6-6.6-.8c-.4-5.6.1-11 1.5-16.5L701 1258z"/><path class="st17" d="M960.7 1370.8l-2.4-111.3 55.4-165.1 58.7 75.3 16.2 108.5-1.5-.8a543924 543924 0 01-126.4 93.4z"/><path class="st4" d="M502.3 1567.2l78.3 6.8-44 86.5-231.9 109.8.9 1-150.7-111.5 74.8-19.7 20-15.8v-.1c90.5 59.6 169.7 45 238.4-36.8l16.6-18-2.4-2.2z"/><path class="st5" d="M488.1 1587.4c-68.7 81.8-147.8 96.4-238.4 36.8 82.4-79.3 152.3-184 293.2-144.3l-40.6 87.3 2.4 2.1-16.6 18.1z"/><path class="st8" d="M650.6 1313.7c37.3 91.9 24.7 156.6-90.1 165.7l-1.8-19.7 91.9-146z"/><path class="st17" d="M155 1659.8l150.6 111.4-127.8-33.4-76.5-39 9.8-38.5 43.8-.5z"/><path class="st5" d="M249.7 1624.3zM558.7 1459.7l1.8 19.7-9 1.5-9-.8 16.2-20.4z"/><path class="st16" d="M684.7 1260.9zM360 732.3c28 18.6 56 37.1 83.8 55.7l6.4 34.6c-.1 5.8.3 11.5 1.3 17.2l-2.8 19.7-16.7 72.7C310.2 890 293.5 966 290.7 1057.7L213.6 1169l-3.3 6.5 3.7-6.1-42.4 68c-92.3-215.2 69.6-301.9 165.9-417.9L296.6 763l63.5-30.7z"/><path class="st22" d="M123.1 1424.3l-42.4 16.2c13.7-15 27.5-29.8 41.3-44.7l1.1 28.5z"/><path class="st16" d="M117.8 1041.6l-10.4 11.9c-2.7-3.4-5.9-6.5-7.8-10.3-.5-1 3.3-5.9 4.8-5.8 4.3.5 8.5 2.6 13.4 4.2z"/><path class="st22" d="M159.5 1442.5l-37.3-18.6 37.3 18.6z"/><path class="st11" d="M451.5 839.8c-1-5.7-1.4-11.4-1.3-17.2 2.3 4 5 7.8 6.6 12 .4 1-3.4 3.4-5.3 5.2z"/><path class="st2" d="M610.4 2753.8c15.7-98.9 87.6-78.7 153-72.2l-39.3 294-1 22.8-40.2 14.5L661 3030l-47.6-76c-137.8-64.6-8-133.4-3-200.3z"/><path class="st7" d="M637.8 3190l-2.4-33.1 15-74 4.5 1.6 46.4-.6-6 52.3c-8.6 18.6-17.4 37.1-26.1 55.7l-31.4-2z"/><path class="st6" d="M701.3 3084l-46.4.5 6-54.4 22-17.2 18.4 71z"/><path class="st2" d="M637.8 3190l31.4 1.9.2 56-50 21.9 18.4-79.8zM650.3 3082.8l-14.9 74 15-74z"/><path class="st8" d="M835.9 3159.2l54.3 68.2-35.3 52.3-147.8-32.4-5.6-112.6c6.2-7.2 12.1-14.5 18.1-21.7l81-11.7 30.6 52.2-50.6 6.5 2.2 13.7 53-14.5z"/><path class="st3" d="M701.4 3134.7l5.7 112.6c-2 5.6-4.3 11-7 16.3l-28.6 1c-.3-5.6-1-11.2-2.1-16.6l-.2-56.1 26.2-55.7 6-1.5z"/><path class="st2" d="M774.3 3415.2l-2.7-28.6 10.4 22-7.7 6.6z"/><path class="st4" d="M177.8 1737.7l127.8 33.5-.9-.9-127.4 72.2-109.2 19.3 1-69.6 34.2-21.8 74.5-32.7zM-58.6 1825.4l-17.6-89.6 125-55.2 1.2 54.8a63 63 0 01-5 15.4l-103.6 74.6z"/><path class="st17" d="M45 1750.8c2.4-5 4-10 5-15.4l53.3 35-34.2 21.8-24-41.4z"/><path class="st6" d="M103.3 1770.4a220746 220746 0 00-53.3-35l-1.2-54.8 52.5 18.1 76.5 39c-24.8 11-49.6 21.8-74.5 32.7z"/><path class="st0" d="M979.6 2044.3L833.8 2005 804.1 1758l211.2-83.4V1607l128.4-.2 19.7 89-19.2 94.2v-.7l-18.8 20.3 67.2 82.5-159.4 9.3-53.6 143zm72.8-273.7l6 3.6-6.1-3.4c-2-6.7-4.1-13.4-.3-.7-7.8-10.6-3.7-5 .4.5zM177.3 1842.5l127.4-72.2 232-109.8c64.8 63.4 144.7 116.8 11.7 202.9-54.7 35.4-78.3 119-116 180.6l-91.5-88.4-163.6-113.1z"/><path class="st5" d="M1143.7 1606.7l-128.4.2c-3.8-14-4.2-38.3-12-40.8-92-31-185.1-58.6-278-87.1 56.7 3 118.3 20.4 168.4 3.5 31.3-10.5 45.3-72.7 67-111.7l126.4-93.4c-5 60.9-10 121.8-14.8 182.6l71.4 146.7zM997.6 2190.2l-18.2-73.1v-73l96.9 160.5-29.5 16.8-49.2-31.2z"/><path class="st17" d="M1144.2 1790l19.2-94.3 67.3 39.2-86.5 55z"/><path class="st14" d="M1323.8 1732.3l2.2 20.8c-2.4-4.6-5.4-9-6.7-13.9-.5-1.7 2.9-4.6 4.5-7z"/><path class="st17" d="M1125.4 1809.5l18.8-20.3-18.8 20.3z"/><path class="st3" d="M723.1 2998.4l1-22.7 107.3-328.8a33.5 33.5 0 002.6-16.5c5.3-2.9 11-4.5 17-4.8l34.6 39.5 1.6 202.2a14.1 14.1 0 00-.3 9.8l-4.2 4.5L741.4 3029l1 .1-18.5-20a45 45 0 01-.8-10.7z"/><path class="st7" d="M831.4 2646.9l-107.3 328.8 39.4-294c22.6-11.7 45.3-23.3 68-34.8zM831.5 2593.2c1 5.4 2 10.8 3.2 16.1-2.7-3.5-5.7-6.9-7.7-10.7-.4-.8 3-3.5 4.5-5.4z"/><path class="st7" d="M851 2625.6c-6 .3-11.7 2-17 4.8v-22.2l17 17.4z"/><path class="st5" d="M815.2 2135l3.7-6-3.2 6.5-.5-.5z"/><path class="st15" d="M431.5 748.9l20.4-91.1 45.7 27.5-66.1 63.6z"/><path class="st1" d="M1725.2 2535.3l56 2.5 17.4 17.1 1.1 17.9 94.7 91.5-37.7 108.3-130.2-162.3-1.3-75z"/><path class="st0" d="M1451.2 2551.7c17-70.2 34.2-140.4 51.3-210.5l46.8 10.8-56.1 204.8-42-5.1zM1581 2481.6l-3.2 6.1 3.2-6zM1581 2481.7l17.5-18.8 1.3 1.2-18.8 17.5v.1zM2530.2 1986l16.4 40.1-16.4-40.1z"/><path class="st5" d="M1894.4 2664.3l-94.7-91.5 54.3.6 40.4 90.9zM2601.8 1861.8h18.3-18.3z"/><path class="st2" d="M887 2877.1c-1.1-3.3-1-6.5.2-9.8 5.5-1.4 11-1.5 16.5 0 0 4.1 0 8.3-.2 12.5l-8.5.1-8-2.8zM741.4 3029l141.3-147.4-82 219.7-81 11.7 21.7-84z"/><path class="st5" d="M1798.6 2555l-17.4-17.2 17.4 17.1z"/><path class="st8" d="M743.5 1333.7l.7-20.2-.7 20.2z"/><path class="st9" d="M488.1 1587.4l16.6-18-16.6 18z"/><path class="st20" d="M214 1169.4l-3.7 6.1 3.2-6.5.5.4z"/><path class="st18" d="M741.4 3029l-21.8 84-18 21.7-6.2 1.5 6-52.3-18.5-71 40.2-14.5a45 45 0 00.8 10.8l18.4 20-.9-.2z"/><path class="st7" d="M835.9 3159.2l-53 14.5-2.3-13.7 50.6-6.5 4.7 5.7z"/><path class="st17" d="M1052.4 1770.6c-4-5.6-8.2-11.1-.4-.5-3.8-12.7-1.8-6 .3.7l.1-.2z"/><path class="st17" d="M1052.3 1770.8l6 3.4-5.9-3.6-.1.2z"/><path class="st2" d="M742.3 3029.1l-18.4-20 18.4 20z"/></g></g></svg>