<?xml version="1.0" encoding="utf-8"?>
<!-- Generator: Adobe Illustrator 22.0.1, SVG Export Plug-In . SVG Version: 6.00 Build 0)  -->
<svg version="1.1" id="Layer_1" xmlns="http://www.w3.org/2000/svg" xmlns:xlink="http://www.w3.org/1999/xlink" x="0px" y="0px"
	 viewBox="0 0 141.732 141.732" style="enable-background:new 0 0 141.732 141.732;" xml:space="preserve">
<style type="text/css">
	.st0{fill:#ECEBE7;}
	.st1{fill:#957250;}
	.st2{fill:#968C78;}
	.st3{fill:#D1C5B9;}
	.st4{fill:#A0A094;}
	.st5{fill:#AD8551;}
	.st6{fill:#72553B;}
	.st7{fill:#524732;}
	.st8{fill:#C7B097;}
</style>
<path class="st0" d="M118.35,136.169l-2.035-1.469c-1.388,0.632-3.376-4.199-4.764-3.567c-3.641-4.064-0.824-4.563-1.076-8.827
	c-0.859-14.524-3.858-25.672-3.353-40.277c-1.477-3.153,0.672-9.133-0.805-12.286c-0.724-0.558-0.573-7.415-1.298-7.973
	c-0.31-7.417,2.19-7.105,1.298-13.951c0.5-2.204,0.305-3.031,0.805-5.235c1.879-3.037-1.413-6.406,0.466-9.442
	c-0.868-3.506,0.056-5.972-0.811-9.479c2.293-6.352-3.285-6.341-0.992-12.694c0.018-0.631,0.065-1.259,0.141-1.884
	c-4.331,0.8-8.662,1.6-12.992,2.4c-2.127,2.338-4.255,4.676-6.382,7.014c-5.192,6.879-10.384,13.758-15.573,20.638
	C61.711,53.199,52.439,67.259,43.167,81.32c-8.266,8.789-16.531,17.578-24.797,26.367c-6.028,6.078-17.634,31.238-17.634,31.238
	c-0.276,0.779-0.759,1.894-0.736,2.808c39.683,0.011,99.966,0,139.649,0c-1.002-1.074-5.222-3.319-2.148-4.085
	C135.975,137.017,119.875,136.8,118.35,136.169z"/>
<path class="st1" d="M111.979,75.013c1.29-1,2.579-1.999,3.867-3.003c0.176,1.934,0.354,3.872,0.531,5.807
	c0.036,0.701,2.203,2.557,2.274,3.255c-0.497,0.15-4.798,3.332-5.295,3.478c-0.496-0.127-0.207-3.477-0.703-3.6
	c-0.526-0.737-0.147-2.431-0.673-3.166C111.98,76.861,111.98,75.937,111.979,75.013z"/>
<path class="st2" d="M105.775,9.199c0.498,2.319,6.381,14.719,6.879,17.041c-2.091,5.233-9.301,5.754-11.656,5.62
	C99.212,33.927,102.844,11.363,105.775,9.199z"/>
<path class="st3" d="M109.374,141.445c-2.356-4.148-6.567-8.122-6.731-12.475c-0.556-14.823,0.315-29.779,0.642-44.684
	c0.946,0.088,1.892,0.175,2.838,0.262c1.936,4.567,3.872,9.134,5.808,13.701c0.475,3.82,0.951,7.639,1.426,11.459
	c-0.456,9.986-0.912,19.973-1.367,29.96c0,0,0.079-0.157,0.079-0.157C111.17,140.157,110.272,140.801,109.374,141.445z"/>
<path class="st4" d="M111.989,139.669c0.456-9.986,0.912-19.973,1.367-29.96c3.986,10.563,7.971,21.126,11.957,31.689
	c-3.454,0.068-6.909,0.136-10.363,0.203C113.964,140.957,112.976,140.313,111.989,139.669z"/>
<path class="st3" d="M100.685,31.928c0.934-0.314,3.275-1.981,3.561-2.835c5.798-17.33,7.953-5.306,10.561,3.173
	c-0.022,0.55,0.025,1.081,0.139,1.598c0.102,1.583,0.204,3.165,0.306,4.747c-1.567,2.388-3.134,4.776-4.701,7.164
	c-2.931,2.161-5.862,4.322-8.793,6.483c-1.062-0.578-1.765-0.802-2.171-2.241c0.89-2.367,2.733-6.811,3.623-9.178
	C102.65,37.261,101.247,35.506,100.685,31.928z"/>
<path class="st2" d="M100.012,70.638c-0.142-5.239-0.285-10.478-0.423-15.716c0.327-2.203-0.058,0.422,0.264-1.782
	c-0.002,0-0.265-3.123-0.265-3.123c0.724,0.732,2.447-0.359,3.171,0.373c2.931-2.117,5.862-4.235,8.793-6.355
	c0.498,2.272,0.996,4.546,1.494,6.821c-2.091,5.128-4.181,10.255-6.271,15.383c-1.972,5.025-4.607,6.944-6.357,8.393
	C99.949,74.074,100.481,71.196,100.012,70.638z"/>
<path class="st5" d="M100.418,74.632c1.786-2.066,3.571-4.132,5.36-6.198c2.069,2.193,4.135,4.386,6.201,6.579
	c0.001,0.924,0.001,1.849,0.002,2.773c-1.953,2.255-3.906,4.509-5.858,6.764c-0.946-0.088-1.892-0.175-2.838-0.263
	C102.329,81.068,101.373,77.85,100.418,74.632z"/>
<path class="st6" d="M125.314,141.715c-3.986-10.563-7.971-21.443-11.957-32.006c-0.475-3.819-0.951-7.639-1.426-11.459
	c1.806-6.008,3.613-12.016,5.421-18.024c-0.323-0.802-0.649-1.604-0.975-2.406c-0.178-1.938-0.356-3.876-0.534-5.815
	c0.053-0.52,0.182-0.989,0.385-1.407c2.075,2.596,4.151,5.192,7.635,9.552c-1.196-11.012-2.148-19.781-3.101-28.552
	c0.953,0.224,1.907,0.449,2.861,0.673c0.493,1.521,0.986,3.042,1.479,4.563c1.059,1.932,2.119,3.865,3.177,5.802
	c-0.424,2.137-0.847,4.269-1.36,6.859c1.36-6.859-0.678-6.551,1.36-6.859c0.045,0.682,0.816,11.325,0.724,11.995
	c-0.354,4.526,4.005,4.906,3.651,9.433c0.915,5.496,1.83,10.991,2.744,16.485c-3.118-0.436-6.236-0.872-8.439-1.181
	c1.635,12.679,3.682,27.613,5.586,42.376C130.202,141.762,127.677,141.774,125.314,141.715z"/>
<path class="st7" d="M132.387,141.759c-1.904-14.763-3.792-29.71-5.427-42.389c2.203,0.308,5.321,0.744,8.438,1.179
	c1.039,4.464,2.079,8.928,3.118,13.393c0.398,4.506,0.795,9.011,1.193,13.517c-0.02,4.758-0.04,9.515-0.06,14.273
	C137.218,141.771,134.802,141.811,132.387,141.759z"/>
<path class="st1" d="M120.763,51.599c0.952,8.77,1.905,17.54,3.101,28.552c-3.485-4.359-5.56-6.955-7.635-9.552
	c-1.394-5.955-2.789-11.91-4.183-17.865c-0.498-2.321-0.996-4.642-1.494-6.961c1.567-2.385,3.134-4.773,4.701-7.161
	C116.084,38.587,120.226,48.078,120.763,51.599z"/>
<path class="st8" d="M117.35,80.226c-1.806,6.008-3.613,12.015-5.419,18.024c-1.936-4.567-3.872-9.134-5.808-13.701
	c1.953-2.254,3.906-4.509,5.858-6.765c0.526,0.735,1.052,1.471,1.578,2.207c0.001,1.206,0.002,2.412,0.003,3.618
	c0.495-1.08,0.99-2.161,1.485-3.241c0.497-0.15,0.994-0.301,1.491-0.452C116.799,80.083,117.069,80.186,117.35,80.226z"/>
<path class="st8" d="M112.121,53.14c1.395,5.835,2.789,11.67,4.183,17.505c-0.204,0.41-0.333,0.869-0.383,1.382
	c-1.287,0.983-2.895,2.402-4.184,3.382c-2.066-2.149-3.889-4.826-5.958-6.975c0.174-0.429-0.152-0.661,0.022-1.09
	C107.713,62.645,110.205,57.839,112.121,53.14z"/>
</svg>
