<?xml version="1.0" encoding="utf-8"?>
<!-- Generator: Adobe Illustrator 22.0.1, SVG Export Plug-In . SVG Version: 6.00 Build 0)  -->
<svg version="1.1" id="Layer_1" xmlns="http://www.w3.org/2000/svg" xmlns:xlink="http://www.w3.org/1999/xlink" x="0px" y="0px"
	 viewBox="0 0 302.9 370.2" style="enable-background:new 0 0 302.9 370.2;" xml:space="preserve">
<style type="text/css">
	.st0{fill:#FA02B1;}
	.st1{fill:#39F2F0;}
	.st2{fill:#9BF8F7;}
	.st3{fill:#CAFDBF;}
	.st4{fill:#FCC5DF;}
	.st5{fill:#F9670A;}
	.st6{fill:#1ABDF9;}
	.st7{fill:#C878F9;}
	.st8{fill:#DE69FA;}
	.st9{fill:#34FA09;}
	.st10{fill:#F81C84;}
	.st11{fill:#8C72F9;}
	.st12{fill:#220018;}
	.st13{fill:#041B1C;}
	.st14{fill:#1C1001;}
	.st15{fill:#02161B;}
	.st16{fill:#020202;}
	.st17{fill:#170032;}
	.st18{fill:#17001C;}
	.st19{fill:#030003;}
	.st20{fill:#091D01;}
	.st21{fill:#240010;}
	.st22{fill:#0A003D;}
	.st23{fill:#F8B9EA;}
	.st24{fill:#F9BAEB;}
	.st25{fill:#C6F6F6;}
	.st26{fill:#C3F4F3;}
	.st27{fill:#F9D8B2;}
	.st28{fill:#F4D5B0;}
	.st29{fill:#EED6B2;}
	.st30{fill:#B5F2F9;}
	.st31{fill:#B5F0F8;}
	.st32{fill:#E8C7F9;}
	.st33{fill:#E7C6F9;}
	.st34{fill:#F1C4FA;}
	.st35{fill:#ECC2F3;}
	.st36{fill:#C5F8B4;}
	.st37{fill:#C4FAB3;}
	.st38{fill:#F7C3DF;}
	.st39{fill:#F5C2DD;}
	.st40{fill:#CDC1FB;}
	.st41{fill:#6D627C;}
	.st42{fill:#A798B3;}
	.st43{fill:#6F6280;}
	.st44{fill:#C7B8D5;}
	.st45{fill:#E4D7FA;}
	.st46{fill:#A999B9;}
	.st47{fill:#DFD0F3;}
	.st48{fill:#DFD1F6;}
	.st49{fill:#D4C6E9;}
	.st50{fill:#E2D5F6;}
	.st51{fill:#E0D1F2;}
	.st52{fill:#E3D4F1;}
	.st53{fill:#6E6180;}
	.st54{fill:#E1D2F3;}
	.st55{fill:#E9DDFC;}
	.st56{fill:#200217;}
	.st57{fill:#1D150C;}
	.st58{fill:#06181C;}
	.st59{fill:#26163C;}
	.st60{fill:#27183C;}
	.st61{fill:#1B0720;}
	.st62{fill:#0A1B03;}
	.st63{fill:#210310;}
	.st64{fill:#110E36;}
	.st65{fill:#0F0933;}
	.st66{fill:#09062D;}
	.st67{fill:#0A0630;}
	.st68{fill:#E2D3F3;}
	.st69{fill:#0A0530;}
	.st70{fill:#DCCDEB;}
</style>
<g>
	<path class="st0" d="M277.7,361.3c-2.2-0.6-4.5-0.6-6.7-0.9c-9.6-1.3-19.2-2.4-28.8-3.7c-9.9-1.3-19.8-2.8-29.8-4.2
		c-8.2-1.1-14.9-7.4-16.6-15.6c-0.5-2.4-0.5-4.8-0.5-7.2c0-19.2,0-38.3,0-57.5c0-3.2,0.1-6.4,1.3-9.4c2.4-6.1,7.9-9.8,14.8-9.7
		c7.1,0.1,14.2,0.6,21.3,0.9c14.5,0.7,29,1.5,43.4,2.4c10.5,0.7,18.3,8.4,19.3,18.9c0.1,1.5,0.2,2.9,0.2,4.4c0,20.6,0,41.2,0,61.8
		c0,3.4-0.1,6.7-1.5,9.9c-2.5,5.6-6.7,8.9-12.9,9.6c-0.2,0-0.4,0-0.5,0.2C279.8,361.3,278.7,361.3,277.7,361.3z"/>
	<path class="st1" d="M296.6,88.7c-0.6,1.3-0.5,2.7-0.9,4c-2.2,8.5-8.8,14.3-17.5,15.4c-4.5,0.6-9,0.6-13.5,0.9
		c-8.8,0.6-17.7,1.1-26.5,1.6c-5.7,0.3-11.3,0.7-17,1c-3.2,0.2-6.4,0.5-9.7,0.3c-8.5-0.5-14.7-6.6-15.3-15.1
		c-0.1-2.1-0.2-4.2-0.2-6.3c0-19.1-0.1-38.2,0-57.2c0-7.8,2.9-14.2,9.9-18.4c3.6-2.1,7.7-2.8,11.8-3.3c6.9-0.9,13.8-1.8,20.7-2.7
		c7.5-1,14.9-2,22.4-3c5.5-0.7,11-1.6,16.5-2.2c4.9-0.5,9.4,0.6,13.2,3.9c3.6,3.1,5.3,7.1,5.8,11.7c0,0.3-0.1,0.6,0.2,0.7
		c0,0.2,0,0.3,0,0.5c-0.2,0.4-0.1,0.9-0.1,1.3c0,21.4,0,42.8,0,64.1c0,0.4-0.1,0.9,0.1,1.3C296.6,87.7,296.6,88.2,296.6,88.7z"/>
	<path class="st2" d="M296.6,87.3c-0.4-0.3-0.2-0.8-0.2-1.2c0-21.4,0-42.8,0-64.2c0-0.4-0.2-0.9,0.2-1.2
		C296.6,42.8,296.6,65,296.6,87.3z"/>
	<path class="st3" d="M4.8,309.3c-0.1,0-0.1,0-0.2,0c0-17.2,0-34.4,0-51.6c0.1,0,0.1,0,0.2,0c0.6,0.6,0.5,1.4,0.5,2.1
		c0,9.8,0,19.6,0,29.5c0,6,0,12,0,18C5.2,307.9,5.4,308.7,4.8,309.3z"/>
	<path class="st4" d="M4.6,169.3c0.1,0,0.1,0,0.2,0c0.5,0.4,0.5,1,0.5,1.5c0,6.8,0,13.6,0,20.4c0,0.5,0,1.1-0.4,1.6H4.7l-0.1,0
		C4.6,185,4.6,177.2,4.6,169.3z"/>
	<path class="st5" d="M296.3,182.5c0,7.2,0,14.5,0,21.7c0,4.2,0.1,8.4-0.1,12.6c-0.6,10.4-8.4,17.9-18.9,17.8
		c-8.6-0.1-17.2-0.5-25.8-0.9c-8.4-0.3-16.8-0.6-25.2-0.9c-4.4-0.2-8.9-0.2-13.3-0.6c-10.2-0.8-17.3-8.6-17.4-18.8
		c-0.1-19.4-0.1-38.7-0.1-58.1c0-4.2,0.1-8.4,1.9-12.3c2.7-6,7.6-9,13.8-10.1c4.3-0.8,8.8-0.6,13.1-0.8c11.8-0.5,23.6-0.9,35.5-1.4
		c4.9-0.2,9.7-0.4,14.6-0.5c5.4-0.2,10.5,0.6,14.9,4.1c4.3,3.4,6.2,8.1,6.7,13.5c0.5,5.7,0.2,11.4,0.2,17.1
		C296.4,170.7,296.4,176.6,296.3,182.5C296.3,182.5,296.3,182.5,296.3,182.5z"/>
	<path class="st6" d="M177.2,162.3c0,8.2,0,16.4,0,24.6c0,6,0.2,12,0.1,18c-0.1,3.9,0.2,7.9-0.8,11.8c-1.9,7.4-7.2,12-14.9,12.6
		c-5.2,0.4-10.5-0.1-15.7-0.3c-8.7-0.2-17.4-0.5-26.1-0.8c-4.6-0.2-9.3,0.1-13.9-0.9c-7.5-1.5-12.4-7.1-13.1-14.7
		c-0.5-5.5-0.2-11.1-0.2-16.7c0-14.1,0-28.2,0-42.2c0-10.5,6.5-17.3,17-17.8c14.1-0.6,28.1-1.2,42.2-1.7c3.9-0.1,7.9-0.6,11.8,0.2
		c7.6,1.5,12.4,6.7,13.2,14.4C177.4,153.4,177.1,157.9,177.2,162.3z"/>
	<path class="st7" d="M176.4,65.1c0,9.7,0,19.4,0,29.2c0,5.3-1.5,10.2-5.1,14.2c-3.3,3.6-7.5,5.5-12.4,5.9
		c-4.8,0.3-9.7,0.3-14.5,0.5c-6.8,0.3-13.5,0.8-20.3,1.3c-4.5,0.4-9.1,0.5-13.6,0.8c-2.5,0.2-5,0.2-7.5-0.5c-6-1.6-10.2-6.8-10.4-13
		c-0.4-11-0.2-22.1-0.2-33.1c0-8,0-15.9,0.1-23.9c0-3.1,0.1-6.2,1.2-9.2c2.3-6.1,6.9-9.4,13.1-10.9c4.3-1,8.7-1.3,13.1-1.9
		c5.9-0.8,11.8-1.8,17.8-2.5c7.5-0.9,14.9-2.5,22.4-3c2.6-0.2,5.1,0.1,7.5,1.1c5.4,2.2,7.8,6.7,8.6,12.2c0.3,1.7,0.2,3.4,0.2,5.1
		C176.4,46.7,176.4,55.9,176.4,65.1z"/>
	<path class="st8" d="M97.2,333.3c-3.1-3.5-4.4-7.6-4.5-12.1c-0.2-10.3-0.1-20.6-0.1-30.8c0-7.1,0.1-14.2-0.1-21.2
		c-0.1-3.3-0.2-6.6,0.6-9.9c1.6-6.6,7-11.1,13.7-11.8c3.2-0.3,6.3,0.4,9.4,0.6c3.3,0.3,6.5,0.7,9.8,0.9c9.4,0.6,18.9,0.7,28.4,1.1
		c2.9,0.1,5.9,0.1,8.8,0.8c7.9,2.1,13.1,8.3,13.3,16.5c0.4,17.9,0.2,35.9,0.1,53.8c0,3.6,0,7.3-0.2,10.9c-0.4,5.6-2.9,9.8-8.1,12.2
		c-0.9,0.9-2.1,1-3.3,1.2c-2.2,0.4-4.4,0.1-6.6,0c-6.4-0.5-12.9-1.5-19.2-2.4c-6.2-0.9-12.5-1.9-18.7-2.7c-3.2-0.4-6.5-0.7-9.8-1
		c-4.7-0.4-8.7-2.6-12.5-5.2C97.7,334,97.5,333.7,97.2,333.3z"/>
	<path class="st9" d="M4.8,309.3c0-11.5,0-23.1,0-34.6c0-5.7,0-11.3,0-17c0.2-3.1,0.9-6.1,2.5-8.8c2.4-4,5.9-6.1,10.6-5.9
		c9.5,0.4,19.1,0.9,28.6,1.4c4.8,0.2,9.6,0.5,14.4,0.8c7.1,0.4,12.1,4.4,14.3,11.3c0.7,2.3,1.1,4.6,1.1,6.9
		c0,17.2,0.1,34.5,0.1,51.7c0,2.6,0,5.2-0.6,7.7c-1.6,6.7-5.8,10.1-12.7,10.2c-4.2,0.1-8.2-0.9-12.4-1.4c-8.7-1.1-17.4-2.3-26.1-3.5
		c-2.3-0.3-4.7-0.6-7-1c-7-1.5-11.1-5.9-12.2-13.1C5,312.5,4.9,310.9,4.8,309.3z"/>
	<path class="st10" d="M4.8,192.9c0-7.8,0-15.7,0-23.5c0-4,0-8.1,0.1-12.1c0-2.1,0.3-4.1,0.8-6.2c1.3-5.5,4.8-8.8,10.2-10
		c3.7-0.9,7.4-0.9,11.2-1c9.9-0.3,19.9-0.2,29.8-1.2c2.9-0.3,5.8-0.5,8.7,0.4c6,1.8,9.1,6.2,10.2,12.1c0.4,1.8,0.4,3.7,0.4,5.6
		c0,17.2,0,34.4,0,51.6c0,2.5-0.2,4.9-0.8,7.4c-1.6,5.9-5.4,9.3-11.4,10.1c-4.5,0.6-8.9,0.2-13.4,0c-10.3-0.4-20.7-0.8-31-1.2
		c-5.3-0.2-9.9-1.8-12.6-6.9c-1.3-2.4-1.7-5.1-2-7.8C4.6,204.3,4.9,198.6,4.8,192.9z"/>
	<path class="st11" d="M5.1,82.6c0-9.7,0-17.7,0-25.7c0-2.6,0-5.2,0.7-7.7c1.8-6.5,6.4-9.9,12.8-10.8c7.1-1.1,14.3-1.8,21.5-2.7
		c6.2-0.8,12.4-1.7,18.5-3c2.7-0.6,5.4-0.7,8.1,0c4.9,1.2,8.3,5.3,9.1,10.8c0.5,3.8,0.4,7.6,0.5,11.4c0.3,10.6,0.2,21.3,0.1,31.9
		c-0.1,5.6-0.2,11.1-0.4,16.7c-0.4,9.2-5.3,14.7-14.3,16.1c-4.4,0.7-8.9,0.9-13.4,1.1c-9.5,0.6-19.1,1-28.6,1.5
		c-3,0.2-6-0.1-8.7-1.7c-4.1-2.4-5.6-6.3-5.8-10.8C4.9,100,5.2,90.5,5.1,82.6z"/>
	<path class="st12" d="M198.9,301.2c0-9.4,0-18.8,0-28.2c0-2,0.2-4,0.7-5.9c1.6-6,6.1-9.7,12.6-9.9c5.6-0.2,11.2,0.4,16.8,0.7
		c15.4,0.9,30.8,1.7,46.2,2.7c9.2,0.6,16.1,8,16.1,17.4c0.1,20.3,0.1,40.5,0.1,60.8c0,3,0,6.1-1,9c-2.1,6-7.4,9.4-14.2,8.8
		c-5.8-0.5-11.5-1.4-17.2-2.1c-9-1.1-18-2.3-27-3.5c-6.6-0.9-13.2-1.2-19.7-2.9c-8.4-2.2-13-7.7-13.2-16.5
		C198.8,321.5,199,311.4,198.9,301.2C198.9,301.2,198.9,301.2,198.9,301.2z"/>
	<path class="st13" d="M292.2,54.8c0,10.3,0,20.6,0,30.9c0,4.3-0.9,8.2-3.6,11.7c-3.3,4.3-7.8,6.5-13.1,6.8
		c-14.6,1-29.3,1.8-43.9,2.7c-5.5,0.3-11,0.7-16.5,1c-8.9,0.6-15.2-5.1-15.5-14c0-0.4,0-0.8,0-1.2c0-13.5-0.1-26.9-0.1-40.4
		c0-6.2,0-12.3,0.1-18.5c0.1-9.6,6.4-16.6,15.9-17.8c11.8-1.5,23.6-3.1,35.4-4.7c8.1-1.1,16.1-2.2,24.2-3.2c10.3-1.2,17,4.8,17,15.3
		C292.2,34,292.2,44.4,292.2,54.8z"/>
	<path class="st14" d="M291.8,182.3c0,10.8,0.1,21.7,0,32.5c-0.1,9.2-6.1,15.2-15.4,15.4c-6.9,0.1-13.9-0.3-20.8-0.5
		c-8.3-0.3-16.6-0.5-24.9-0.8c-5.8-0.2-11.6-0.4-17.4-0.7c-7.5-0.4-13.6-7-13.7-14.6c-0.3-19.7-0.2-39.4-0.1-59.1
		c0-3.6,0.1-7.3,2.2-10.5c3-4.7,7.4-7.2,12.9-7.4c11.5-0.5,22.9-0.9,34.4-1.3c8.9-0.3,17.8-0.7,26.7-0.8c9.6-0.1,16,6.1,16.2,15.6
		C292,160.7,291.8,171.5,291.8,182.3z"/>
	<path class="st15" d="M172.6,214.2c-0.9,6.3-5.4,11.4-12.4,11.3c-11.8-0.2-23.6-0.6-35.4-1c-5.2-0.2-10.3-0.4-15.5-0.5
		c-7.9-0.3-13.1-5.6-13.3-13.6c-0.3-18.2-0.2-36.5-0.1-54.7c0-2.1-0.1-4.3,0.5-6.4c1.5-5.6,6.3-9.2,12.7-9.4
		c11.7-0.4,23.4-0.9,35.1-1.3c4.9-0.2,9.9-0.3,14.9-0.5c6.9-0.2,11.3,2.8,13.3,10.7c-0.3,0.2-0.4,0.5-0.4,0.8
		c-0.2,0.9-0.3,1.8-0.3,2.7c0,19.3,0,38.6,0,57.9C171.8,211.6,172,212.9,172.6,214.2z"/>
	<path class="st16" d="M172.6,214.2c-1.2-0.7-1.2-2-1.2-3.1c0-19.9,0-39.9,0-59.8c0-0.7,0.1-1.3,0.3-2c0.1-0.4,0.2-0.9,0.9-0.6
		c0.5,1.5,0.7,3.1,0.7,4.7c0,12.8,0,25.7,0.1,38.5c0,6.4-0.1,12.7-0.1,19.1C173.2,212.1,172.8,213.2,172.6,214.2z"/>
	<path class="st17" d="M95.7,72.6c0-9.5,0-19,0-28.4c0-7.8,5.6-13.7,13.5-14.8c13.1-1.7,26.1-3.5,39.2-5.2c4.2-0.5,8.3-1.4,12.5-1.3
		c7,0.2,10.9,3.9,11.7,10.8c0.2,1.5,0.3,3,0.3,4.5c0,18.4,0,36.7,0,55.1c0,3.1-0.4,6.1-1.7,8.9c-2.4,5.1-6.8,7.5-12.1,8
		c-7.2,0.7-14.5,1-21.8,1.5c-9.4,0.6-18.9,1.2-28.4,1.7c-4.3,0.2-8.3-0.9-11-4.7c-1.6-2.2-2.3-4.8-2.3-7.6
		C95.6,91.6,95.7,82.1,95.7,72.6z"/>
	<path class="st18" d="M172.6,330.4c-0.4,6.5-4.8,12-12.5,11.1c-17.3-2-34.6-4.3-51.9-6.6c-6.2-0.8-11.3-6.2-12.1-12.7
		c-0.4-3.9-0.2-7.8-0.3-11.7c-0.1-9-0.1-17.9-0.1-26.9c0-6.8,0.1-13.6,0.1-20.4c0.1-7.1,5.1-12.2,12.3-12.1
		c8.1,0.1,16.1,0.7,24.2,1.2c9.3,0.5,18.5,1.1,27.8,1.7c7.1,0.5,12.6,6.3,12.8,13.5c0,1.7,0.1,3.3,0.1,5c-0.2,0.2-0.3,0.5-0.3,0.8
		c0.3,2.6-0.1,5.2-0.2,7.8c-0.3,9.2-0.2,18.5-0.5,27.8c-0.1,5.7-0.1,11.4-0.2,17.1C171.7,327.5,172,328.9,172.6,330.4z"/>
	<path class="st19" d="M172.6,330.4c-1.2-1-1.1-2.4-1.2-3.6c-0.1-5.3-0.2-10.6,0-15.8c0.3-6,0-12,0.2-18.1
		c0.2-5.1,0.4-10.2,0.5-15.3c0-1.4,0.2-2.9,0.2-4.3c0-0.4,0-0.7,0.5-0.8c0,0.4,0,0.7,0,1.1c0.2,2.1,0,4.1,0,6.2
		c-0.1,3,0.2,5.9,0.2,8.8c0.1,7.1,0.1,14.3,0,21.4c0,3.1-0.3,6.3-0.2,9.4c0,1.5,0.3,2.9,0,4.4C173.1,326.1,172.4,328.2,172.6,330.4z
		"/>
	<path class="st18" d="M172.8,324c-0.3-4-0.5-8-0.2-12c0.4-7.8,0.2-15.6,0.1-23.3c0-2.6-0.2-5.3-0.2-7.9c0-2.4,0.2-4.8,0.3-7.2
		c0.4,1.7,0.2,3.4,0.2,5.1c0.3,11.7,0.3,23.3,0.1,35C173.2,317.1,173.2,320.6,172.8,324z"/>
	<path class="st20" d="M73.2,290.3c0,9.4,0.1,18.7,0,28.1c-0.1,5.6-3.8,10.1-9,11.2c-2.6,0.6-5.1,0-7.6-0.4
		c-8.6-1.5-17.3-2.5-26-3.5c-4.1-0.5-8.2-0.9-12.2-1.5c-6.3-0.9-10.7-6.5-10.8-13.5c-0.3-15.7-0.2-31.4-0.1-47.1
		c0-2.7-0.2-5.5,0.4-8.2c0.9-4.9,4.3-7.9,9.3-8.4c3.7-0.4,7.3,0.2,10.9,0.4c6.2,0.3,12.4,0.7,18.5,1.1c4.9,0.3,9.8,0.3,14.7,0.9
		c7.4,1,11.9,6.2,11.9,13.7C73.2,272.1,73.2,281.2,73.2,290.3C73.2,290.3,73.2,290.3,73.2,290.3z"/>
	<path class="st21" d="M73.2,182.4c0,8.8,0,17.7,0,26.5c0,1.6-0.2,3.2-0.6,4.8c-1.3,5.5-5,8.6-10.6,8.9c-5.2,0.4-10.4-0.3-15.6-0.4
		c-6.5-0.2-13-0.3-19.5-0.6c-3.3-0.2-6.7,0.1-10-0.6c-5.6-1.1-9.1-5.1-9.3-10.8c-0.4-14-0.2-28-0.2-42c0-4.3,0.1-8.6,0.2-12.8
		c0.1-6.6,4.5-11.2,11.1-11.5c8-0.4,16-0.7,24.1-1.1c5.9-0.2,11.7-0.5,17.6-0.6c4.7,0,8.8,1.5,11.2,6.1c1.2,2.3,1.6,4.8,1.6,7.4
		C73.2,164.7,73.2,173.5,73.2,182.4z"/>
	<path class="st22" d="M73.2,74.6c0,8.6,0,17.2,0,25.8c0,2.7-0.3,5.3-1.3,7.8c-2.1,5.2-6.3,7.3-11.5,7.8c-5.9,0.6-11.8,0.8-17.7,1.2
		c-7.4,0.4-14.8,0.9-22.3,1.3c-1.8,0.1-3.5,0.1-5.2-0.4c-4.6-1.2-7.3-4.6-7.5-9.5C7.4,96.1,7.4,83.6,7.5,71.2
		c0-5.3,0.1-10.6,0.2-15.9c0-8.1,4.6-13.1,12.6-14.1c12-1.5,24-2.7,36-4.8c1.9-0.3,3.8-0.8,5.8-0.8c5.6,0.1,10,4,11,9.7
		c0.2,1,0.3,2.1,0.3,3.1C73.2,57.1,73.2,65.9,73.2,74.6z"/>
	<path class="st23" d="M274.3,305.3c0.1,6.5-0.1,13,0.2,19.5c0.1,2.9-0.6,3.8-3.5,4.4c-7,1.4-13.5,0.4-18.7-5
		c-4-4.2-5.1-9.5-4.9-15.2c0.2-4,1.3-7.7,3.9-10.8c3-3.6,6.7-5.3,11.4-4.9c3.1,0.2,4.1-0.7,3.9-3.8c-0.2-2.1,0.1-4.1,0-6.2
		c0-1.2,0.7-1.7,1.8-1.6c1.4,0.1,2.8,0.2,4.2,0.5c1.5,0.3,2,1.5,2,2.9c0,2.2-0.2,4.5-0.2,6.7C274.3,296.2,274.3,300.7,274.3,305.3z"
		/>
	<path class="st24" d="M228.4,307.1c-2,4.4-4.1,8.5-5.7,12.9c-1.5,3.9-3.3,4.9-7.3,3.9c-1.8-0.5-2.2-1.1-1.3-2.8
		c1.4-2.8,2.8-5.6,4.3-8.4c1.1-2.1,2.2-4.3,3.5-6.3c1.9-3.1,2.1-6.2,0.4-9.4c-2.9-5.8-5.5-11.8-8.2-17.7c-0.5-1-0.5-1.4,0.8-1.5
		c5.1-0.6,7.5,1,9,5.9c1.2,4.3,3.4,8.1,5.2,12.4c1.2-2.4,2.3-4.6,3.4-6.9c1.1-2.3,2.1-4.7,3.1-7.1c1-2.3,2.1-3.1,4.6-2.8
		c0.9,0.1,1.8,0.3,2.7,0.5c1.2,0.2,1.5,0.7,0.9,1.8c-2.7,5.2-5.3,10.5-8.2,15.6c-1.7,3-1.8,5.8-0.2,8.9c3.4,6.4,6.1,13,9.2,19.6
		c0.3,0.7,0.3,1-0.6,1.1c-4.9,0.6-8.1-1.3-9.6-5.9C232.8,316.1,230.4,311.8,228.4,307.1z"/>
	<path class="st25" d="M221.6,58.9c0-6.9,0.3-13.7-0.1-20.6c-0.1-2.4,0.8-3.5,3.2-3.8c4-0.5,4-0.5,4.1,3.9c0,6.9,0.1,13.8,0.1,20.7
		c0,3.8-0.1,7.6-0.1,11.4c0,0.6,0.1,1.2,0.2,1.8c0.3,1.4,1,2.1,2.5,2c3-0.1,5.9-0.8,8.8-0.8c1.5,0,3-0.3,4.5-0.4
		c0.9-0.1,1.4,0.3,1.4,1.2c0,1.2,0,2.4-0.1,3.6c-0.1,1.5-0.9,2.3-2.4,2.5c-5.1,0.7-10.2,1-15.3,1.4c-1.6,0.1-3.1,0.2-4.7,0.3
		c-1.6,0.1-2.1-0.5-2.1-2.1C221.6,72.9,221.6,65.9,221.6,58.9z"/>
	<path class="st26" d="M252.7,62.7c0-4.6,0-9.2,0-13.8c0-2.1,0.6-3,2.6-3.6c3.6-1.2,7.3-2.4,11-3.3c2.3-0.6,2.9-0.1,3,2.2
		c0,0.6,0.1,1.2,0.1,1.8c0.2,2.1-0.6,3-2.7,3.1c-0.2,0-0.5,0-0.7,0c-3.6,0.1-5.6,2-5.5,5.7c0,3.7,0.3,7.4,0.2,11.1
		c-0.1,3.5-0.1,7-0.2,10.5c-0.1,2.3-1,3.1-3.4,3.1c-0.8,0-1.6,0-2.4-0.1c-1.5-0.1-1.7-1.2-1.7-2.4c0-4.2,0-8.5,0-12.7
		c0-0.5,0-1,0-1.6C252.9,62.7,252.8,62.7,252.7,62.7z"/>
	<path class="st27" d="M248.4,203.9c-1.7,0-2.8-0.7-3.4-2.4c-0.8-2.3-1.5-4.7-1.9-7.2c-0.6-3.1-2-4.4-5.2-4.4
		c-2.4,0-4.8,0.1-7.2,0.1c-1.2,0-2,0.6-2.3,1.8c-0.7,2.7-1.5,5.5-2.1,8.2c-0.7,3.1-2,3.9-5.1,3.2c-2.3-0.5-3-0.1-1.9-3.4
		c1.5-4.7,2.6-9.6,3.9-14.4c2.4-9.2,4.8-18.5,7.2-27.7c0.5-1.9,1.1-2.4,3.1-2.2c0.9,0.1,1.7,0.1,2.6-0.1c2.3-0.6,3.7,0.1,4.4,2.4
		c1.1,3.4,2,6.8,2.9,10.2c2.9,10.3,5.8,20.7,8.7,31c0.2,0.8,0.6,1.5,1,2.3c0.4,1,0.1,1.6-1,1.8C250.8,203.5,249.5,203.7,248.4,203.9
		z"/>
	<path class="st28" d="M267.6,185.8c0,5.1,0,10.2,0,15.2c0,2.1-0.8,2.9-2.9,2.9c-0.7,0-1.4,0-2.2-0.1c-1.9-0.1-2.7-0.8-2.7-2.8
		c0-2.2,0-4.3,0.1-6.5c0.1-7.8,0.1-15.5-0.1-23.3c-0.1-2.9,0.5-3.5,3.4-3.5c0.1,0,0.2,0,0.4,0c3.9,0,4.1,0.2,4.1,4.1
		C267.6,176.6,267.6,181.2,267.6,185.8z"/>
	<path class="st29" d="M259.4,158.4c0-2.7,1.9-4.7,4.5-4.7c2.5,0,4.4,2.1,4.4,4.8c0,2.7-1.7,4.4-4.5,4.4
		C261,162.8,259.5,161.2,259.4,158.4z"/>
	<path class="st30" d="M112.3,189c-0.1-6.3,0.2-12.5,0.2-18.8c0-3-0.1-6.1-0.2-9.1c-0.1-2.6,0.8-3.6,3.4-3.6c2.6,0,5.2-0.2,7.8,0
		c7.3,0.6,11.1,4.3,11.7,11.6c0.2,2.7,0.1,5.4-0.8,7.9c-1.9,5.2-6,7.4-11.1,8.1c-0.8,0.1-1.6,0.2-2.4,0.3c-1.8,0.2-2.5,1-2.5,2.9
		c0,3.2,0,6.5,0.1,9.7c0,1.1,0,2.3-1.2,2.8c-1.4,0.6-2.8,0.6-4.2-0.2c-0.9-0.6-0.9-1.6-0.9-2.6C112.3,195,112.3,192,112.3,189z"/>
	<path class="st31" d="M138.2,193.1c1.6,0.7,3,1.4,4.5,2c1.5,0.6,3.1,0.9,4.7,0.6c1.4-0.2,2.4-1,2.8-2.4c0.4-1.3-0.3-2.3-1.2-3.1
		c-1.6-1.4-3.5-2.4-5.2-3.6c-2-1.4-3.7-3.2-4.5-5.6c-2.1-5.9,1.8-12,8.2-12.8c2-0.3,4.1-0.2,6,0.5c1.6,0.6,2.2,1.7,2,3.4
		c-0.1,0.8-0.2,1.5-0.4,2.2c-0.2,1.1-0.8,1.4-1.7,0.9c-1.7-0.9-3.6-0.9-5.5-0.9c-1.5-0.1-2.6,0.8-3,2.1c-0.5,1.4,0.3,2.3,1.3,3.1
		c2,1.5,4.2,2.8,6.2,4.3c3.4,2.7,5.1,6.1,4.3,10.5c-1,5.1-5.7,8.3-11.3,7.8c-1.6-0.1-3.2-0.4-4.6-1.1c-1.2-0.6-1.9-1.5-2-2.9
		C138.6,196.5,138.6,194.8,138.2,193.1z"/>
	<path class="st32" d="M122.7,46c1.2,0,1.8,0.9,2.1,2.2c1.2,4.6,2.4,9.1,3.6,13.7c2.1,7.9,4.3,15.9,6.4,23.8
		c0.1,0.5,0.3,0.9,0.3,1.4c0.1,0.9-0.3,1.4-1.2,1.4c-0.9,0-1.8,0.2-2.7,0.3c-1.6,0.2-2.3-0.2-2.7-1.8c-0.5-2.2-1-4.4-1.5-6.7
		c-0.1-0.6-0.3-1.2-0.5-1.7c-0.7-1.6-1.8-2.1-3.5-1.6c-0.7,0.3-1.4,0.3-2.2,0.2c-3.9-0.6-6.5,1.4-7,5.5c-0.2,2-0.5,4-1.2,5.9
		c-0.6,1.7-1.1,2.1-2.9,2c-3.2-0.1-3.2-0.1-2.4-3.2c1.6-6.7,3.2-13.5,4.8-20.3c1.4-6.1,2.8-12.2,4.2-18.3c0.5-2,1.1-2.5,3.3-2.6
		C120.5,46.2,121.4,46.1,122.7,46z"/>
	<path class="st33" d="M136.9,72c0.2-5.6,1.5-10.9,5.6-15.1c1.8-1.9,4.1-3,6.7-3.2c2.9-0.3,5.5,0.6,7.3,3.1
		c2.5,3.5,3.8,7.4,3.1,11.8c-0.3,1.9-1.1,2.6-3,2.8c-3.5,0.4-7,0.8-10.5,1c-2.3,0.1-3.1,1.4-2.4,3.6c1.3,4.2,4.5,6.1,8.8,5.1
		c1.2-0.3,2.4-0.6,3.6-1c0.7-0.2,1.2-0.3,1.2,0.7c0,0.1,0,0.2,0,0.2c0.8,4.4,0.3,5-3.9,6.4c-5.6,1.8-13.6,0-15.5-8.6
		C137.4,76.5,136.9,74.3,136.9,72z"/>
	<path class="st34" d="M113.6,290.8c0-6.4,0-12.8,0-19.2c0-2.7,0.8-3.2,3.3-2.5c2.1,0.6,4.2,0,6.3,0.5c2,0.5,4,0.9,5.8,1.8
		c4.6,2.3,7,6.1,7.3,11.3c0.1,2.2,0,4.3-0.6,6.4c-1.5,5.6-5.9,8.7-11.8,8.3c-0.4,0-0.9-0.1-1.3,0c-2.5,0.2-3.4,1.1-3.2,3.6
		c0.3,3.4,0.1,6.8,0.1,10.2c0,1.5-0.5,1.9-2,1.6c-0.3,0-0.5-0.1-0.8-0.1c-3-0.3-3.2-0.5-3.2-3.5c0-6.1,0-12.2,0-18.3
		C113.6,290.8,113.6,290.8,113.6,290.8z"/>
	<path class="st35" d="M142,302.1c-0.1-4.6,0.4-9.2-0.2-13.8c-0.3-2.6,1-4.1,3.6-4.5c2.6-0.4,5.2-0.6,7.7-0.7
		c1.7-0.1,2.4,0.7,2.5,2.4c0,0.2,0,0.4,0,0.6c0,3.4-0.4,3.7-3.6,3.4c-1.9-0.2-3.1,0.6-3.4,2.5c-0.4,2.3,0,4.7,0,7.1
		c-0.1,4.8,0,9.7-0.1,14.5c0,1.7-0.6,2.2-2.2,2c-3.1-0.4-4.6,0.2-4.2-4.6C142.2,308,142,305,142,302.1z"/>
	<path class="st36" d="M52,287.7c-0.7,3.8-1.3,7.5-2,11.3c-0.3,1.7-0.6,3.5-1,5.2c-0.2,1.3-1,1.8-2.3,1.8c-2.9-0.1-4.1-1-4.6-3.8
		c-1.3-7.6-2.6-15.3-4-22.9c-0.1-0.7-0.4-1.5-0.6-2.2c-0.2-0.8,0.1-1.4,0.9-1.6c2.7-0.6,4.7-0.3,5,3.1c0.5,5.7,1.4,11.2,2.5,16.8
		c0.1,0.3,0.2,0.7,0.4,1.3c0.9-5.3,1.8-10.3,2.7-15.3c0.2-0.9,0.3-1.7,0.4-2.6c0.4-2,0.9-2.6,2.6-2.6c2.3,0,3.6,0.8,3.9,2.7
		c0.4,2.2,0.6,4.4,1,6.6c0.6,3.9,1.2,7.7,1.8,11.6c0.1,0.3,0.2,0.6,0.5,1c0.3-2.1,0.7-4.1,1-6.2c0.6-4,1.2-8,1.7-12
		c0.4-2.6,2.6-3.7,5-2.4c0.8,0.5,0.9,1.2,0.7,2c-2,7.2-3.1,14.5-4.7,21.7c-0.3,1.2-0.5,2.3-0.7,3.5c-0.4,1.8-1.3,2.5-3,2.5
		c-2.1,0-3.4-0.9-3.7-2.7c-0.3-1.7-0.5-3.4-0.7-5.1c-0.6-3.8-1.3-7.5-2.3-11.1C52.3,288.2,52.4,287.9,52,287.7z"/>
	<path class="st37" d="M13.5,282.8c0-5.6,0-11.1,0-16.7c0-2.4,0.6-3.1,3-3.1c2.5,0,5,0.2,7.5,0.8c5.1,1.3,8.6,4.4,10.2,9.3
		c2.2,6.9,2.4,13.9,0.2,20.8c-2.6,8-11.2,11.8-19,8.7c-1.3-0.5-1.8-1.4-1.8-2.7C13.6,294.3,13.6,288.6,13.5,282.8
		C13.5,282.8,13.5,282.8,13.5,282.8z"/>
	<path class="st38" d="M54.4,179.6c0,5.6,0,11.1,0.1,16.7c0.1,2.3-0.6,3.2-2.8,3.9c-4.5,1.5-8.8,1.5-12.5-1.9
		c-2.4-2.1-3.3-5-3.8-8.1c-1-5.3-0.3-10.4,2.4-15.1c1.1-2,2.7-3.3,5-3.8c5.1-1.1,6.8-3.8,6.1-8.9c-0.2-1.8,0.2-2.4,1.8-2.6
		c2.5-0.3,3.4,0.1,3.6,2c0.1,1.8,0,3.7,0,5.5c0,2.1,0,4.2,0,6.2C54.4,175.5,54.4,177.6,54.4,179.6z"/>
	<path class="st39" d="M29.7,180.3c0,5.7,0,11.4,0,17c0,2.3-0.6,3-2.6,3c-2,0-2.6-0.8-2.6-3.1c0-9.8,0-19.6,0-29.4
		c0-1.6-0.1-3.3,0-4.9c0-2,0.8-2.7,3-2.6c1.7,0,2.2,0.7,2.2,2.6C29.7,168.7,29.7,174.5,29.7,180.3z"/>
	<path class="st40" d="M54.7,92.3c0,0.2,0.1,0.3,0.1,0.5c0.3,2.6,0.3,2.6,2.9,3.1c1.1,0.2,1.1,1.1,1.1,1.9c0,1.1,0,2.3-1.5,2.4
		c-2.5,0.3-5.1,0.5-7.6,0.7c-7.6,0.6-15.2,1.1-22.8,1.6c-4.7,0.3-6.1-0.8-6.2-5.6c-0.2-11.9-0.2-23.9-0.1-35.8c0-1-0.1-2-0.1-3
		c0.1-1.3,0.9-1.9,2.3-1.8c1.3,0.1,1.7,0.9,1.6,2.1c-0.1,0.9-0.4,1.8,1,2c1.4,0.3,1.9,1.5,2.5,2.5c0.3,0.5,0.4,1.1,0.8,1.6
		c0.3,0.3,0.6,0.4,1,0.4c1.1,0.1,1.6,0.8,1.8,1.8c0.2,0.8,0,1.8,1.1,2.1c0.6,0.1,1.2,0,1.8,0.1c0.9,0,1.3,0.5,1.4,1.3
		c0,0.4,0,0.9,0,1.3c0.1,1.6,0.7,2.3,2.3,2.5c1.4,0.1,1.4,0.2,1.5,1.6c0,0.5,0,1,0.4,1.5c0.9,0.9,2.1,1.5,2.8,2.6
		c0.3,0.5,0.6,0.9,0.8,1.5c0.1,0.4,0.3,0.7,0.8,0.7c0.7,0.1,1.5-0.1,2.1,0.3c0.6,0.7,0.3,1.5,0.3,2.3c0.1,1.8,0.2,2,1.9,2.5
		c1.2,0.3,1.9,1,2,2.2c0,0.6,0.2,1.1,0.3,1.7c0.3,1,1.2,1,2,1.1C53.6,92,54.2,91.8,54.7,92.3z"/>
	<path class="st41" d="M44.2,82.2c-0.3,0.1-0.6,0.1-0.7-0.3c-0.3-2.2-1.9-3.3-3.4-4.5c1.8-0.4,2.3-1.7,2.1-3.3
		c0-0.3,0.1-0.6,0.3-0.9c0.3-0.2,0.7-0.1,1,0.1l0,0c0.4,0.4,0.3,0.9,0.3,1.4c0.1,0.6,0.1,1.1,0.5,1.6c0.3,0.5,0.8,0.6,1.4,0.5
		c0.6-0.1,0.5-0.6,0.7-1c0.5-1.6-0.6-2.1-1.6-2.7c1.1-0.5,1.5-1.4,1.7-2.5c0.2-0.9,0.3-1.9,1.2-2.5c0.3,0.3,0.4,0.7,0.3,1
		c-0.3,1.5,0.2,2.6,1.6,3.3c-1.7,1.2-2.3,3-1.7,4.8c0.2,1.1,0.1,2.3,0.1,3.4c0,0.5,0.1,1,0.2,1.5c-0.1,0.8-0.3,1.6-0.2,2.5
		c0.1,0.7,0.4,1.1,1.1,1.1c0.7,0,1-0.5,1-1.1c0.1-0.8,0-1.7,0-2.5c0.3-1.1-0.1-2.1,0-3.2c0-0.5-0.1-1.1,0.4-1.4c1,0.2,1.1,1,1.1,1.8
		c0.1,0.9,0.1,1.8,1.4,1.8c1.2,0,1.3-0.9,1.3-1.8c0-2.7,1.2-3.6,3.6-2.7c-0.4,0.5-1,0.6-1.5,1c-0.7,0.6-1,1.4-0.8,2.3
		c0.2,0.9,1,1,1.7,1c0.4,0,0.7,0,1,0.3c-0.5,0.4-1,0.7-1.5,1.1c-1.4,1-1.7,2.2-1.1,3.9c-0.8,0.5-1.3,0.3-1.5-0.6
		c-0.1-0.4,0-0.8,0-1.2c0-0.7-0.1-1.4-1-1.6c-0.6-0.1-1.1,0-1.3,0.6c-0.3,0.7-0.4,1.5,0.2,2.1c0.2,0.3,0.6,0.4,0.9,0.5
		c0.6,0.3,2-0.1,1.5,1.4c-0.2,0.3-0.6,0.2-0.9,0.2c-1.4,0.1-1.7,0.5-1.8,1.9c0,0.6,0.1,1.3-0.3,1.8c-0.3,0.2-0.7,0.1-0.9-0.1
		c0-0.2-0.1-0.5-0.1-0.7c0-1.9-0.6-3.1-2.7-3.3c-1-0.1-1.3-0.9-1.3-1.8c0-1,0-2,0-3c-0.5-0.7-0.3-1.5-0.3-2.3
		c-0.1-0.6,0.1-1.3-0.8-1.3c-0.8,0-1.2,0.5-1.4,1.2C43.9,80.6,44.2,81.4,44.2,82.2z"/>
	<path class="st42" d="M43.5,73.3c-0.3,0-0.6,0-1,0c-0.1-0.1-0.2-0.2-0.2-0.3c-0.2-0.5-0.1-0.9-0.1-1.4c-0.1-1.6-0.4-2-2-2
		c-0.2,0-0.4,0-0.6,0c-1,0-2,0-3,0c-0.7,0-1.1-0.4-0.9-1.2c0.3-1.1,0.2-2.1-0.4-3.1c-0.1-0.3-0.1-0.7,0-1c0.1-0.1,0.1-0.2,0.3-0.3
		c0.6,0.1,1.2,0.2,1.9,0.2c2,0.1,2,0.1,2-1.9c0.8,0.6,0.6,1.2,0.2,1.9c0,0.4,0,0.8,0,1.2c0,2.3,0.2,2.6,2.4,3c1.3,0.2,1.6,1,1.5,2.1
		C43.5,71.4,43.5,72.4,43.5,73.3z"/>
	<path class="st43" d="M35.5,64.2c0,0.3,0,0.7,0,1c-0.3,0.3-0.6,0.3-1,0.3c-1.5,0.2-2,0.7-1.9,2.2c0,0.5,0.2,1-0.2,1.5
		c-1.2-0.4-1-1.5-1.2-2.4c-0.2-1.1-0.6-1.7-1.8-1.7c0-0.1,0-0.2,0-0.2c1.7-1.2,1.7-3,1.5-4.8c0.1-1,0.1-2,0.1-3c0-0.4,0-0.9,0.3-1.2
		c0.7,0.4,0.8,1.1,1.1,1.7c0.5,1.1,1.3,1.8,2.3,2.5c-0.3,0.3-0.6,0.3-1,0.4c-1,0.2-1.3,1-1.2,1.9c0,0.9,0.6,1.3,1.5,1.4
		C34.5,63.9,35.1,63.8,35.5,64.2z"/>
	<path class="st44" d="M39.6,64.2c0-0.6,0.2-1.3-0.2-1.9c-0.4-2-0.1-2.7,1.2-3.2c1-0.3,2-0.5,2.6,0.6c0.7,1.4,0.3,3.1-0.8,3.7
		C41.5,64,40.6,64.2,39.6,64.2z"/>
	<path class="st45" d="M58.8,69.1c0,2-0.5,2.6-2.2,2.6c-1.4,0-1.9-0.5-1.9-2.1c0-1.9,0.7-2.7,2.3-2.7C58.4,66.8,58.8,67.3,58.8,69.1
		z"/>
	<path class="st46" d="M54.4,85.1c0,0.9,0.5,1.1,1.3,1c0.6,0.1,1.1,0.2,1.7,0.3c0.1,0.7-0.4,0.9-0.8,1.2c-0.5,0.5-0.7,1-0.5,1.6
		c0.2,0.6,0.8,0.6,1.3,0.6c0.4,0,0.8,0,1.1,0.3c-0.2,0.9-0.8,1.2-1.6,1.2c-0.8,0.1-1.7,0.1-2.2,0.9c-1-0.1-2.1,0.1-3-0.3
		c-0.5-0.2-0.8-0.5-1-1c0.3,0,0.6,0,1,0c0.3-0.3,0.7-0.3,1.1-0.3c1-0.1,1.4-0.6,1.4-1.6c0-0.7-0.1-1.4,0.4-1.9
		c0.2-1.5-1.2-0.6-1.7-1.2C53.3,85.7,53.9,85.4,54.4,85.1z"/>
	<path class="st47" d="M51,60.6c0,0.5,0,1.5-0.9,2c-0.9,0.5-1.8,0.7-2.6-0.2c-0.7-0.8-0.6-3.2,0.1-3.8c0.8-0.7,1.9-0.7,2.8-0.2
		C51.1,58.8,50.9,59.6,51,60.6z"/>
	<path class="st48" d="M49.4,72.4c-1.8-0.4-2.1-0.8-2-2.7c0-0.5,0.1-1.1,0.1-1.6c0.1,0,0.2-0.1,0.3-0.1c1.8-0.7,2.4-0.6,2.9,0.6
		C51.6,70.5,51.2,71.7,49.4,72.4z"/>
	<path class="st49" d="M50.4,77.4c0,1.3,0,2.5,0.1,3.8c0,0.4,0,0.8-0.4,1c-0.7,0.6-1.4,0.5-2.1,0.1c-0.1-0.1-0.4-0.1-0.4-0.2
		c-0.1-1.6-0.4-3.3,0.2-4.9C48.7,77.3,49.6,77,50.4,77.4z"/>
	<path class="st50" d="M58.3,81c-0.3,0-0.6,0-1,0c-0.8,0-1.6,0.1-2-0.9c-0.4-1-0.3-2,0.6-2.7c0.5-0.5,1.1-1,1.9-1
		C59.5,77.8,58.8,79.4,58.3,81z"/>
	<path class="st51" d="M31.4,55.9c0,1.1,0,2.3,0.1,3.4c0,0.4,0.1,0.8-0.3,1.1c-0.5,0.5-1,0.4-1.6,0.3c-1.6-0.9-2-2.7-1-4.5
		C29.5,56.1,30.4,55.2,31.4,55.9z"/>
	<path class="st52" d="M35.5,64.2c-0.4,0-0.7,0-1.1,0c-1.6,0-2.3-0.6-2.3-1.9c0-1.5,0.6-2.1,2.2-2.1c0.1,0,0.2,0,0.4,0
		c0.5,0.2,0.8,0.4,0.7,1c-0.1,0.9,0,1.8,0.1,2.8C35.5,64,35.5,64.1,35.5,64.2z"/>
	<path class="st53" d="M28.6,56.1c-0.1,1.5-0.7,3.1,0.9,4.2c-0.4,1.2-0.8,2.3-0.7,3.6c0,0.3-0.1,0.6-0.4,0.8
		c-0.7-0.7-0.8-1.6-1.3-2.4c-0.5-0.8-1.1-1.5-1.8-2c1.2,0,1.7-0.8,1.9-1.9C27.6,57.6,27.5,56.6,28.6,56.1z"/>
	<path class="st54" d="M44.6,73.1c1.9,0.4,2.8,2.2,1.9,3.8c-0.3,0.5-0.8,0.3-1.2,0.3c-0.7,0-1.3-0.3-1.6-1c-0.4-0.9-0.3-1.9-0.3-2.9
		C43.8,73.2,44.2,73.2,44.6,73.1z"/>
	<path class="st55" d="M58.5,90.1c-0.4,0-0.9,0-1.3,0.1c-0.6,0-1.3-0.1-1.5-0.8c-0.2-0.7-0.3-1.5,0.5-2.1c0.4-0.3,0.9-0.6,1.1-1
		c1.1,0.1,1.5,0.8,1.5,1.8C58.8,88.8,58.6,89.5,58.5,90.1z"/>
	<path class="st56" d="M255.1,310.4c-0.2-4.1,0.8-7.6,4.6-9.8c1.6-1,3.4-1.2,5.2-0.6c1.4,0.5,1.9,1.3,1.9,2.8
		c-0.1,5.3-0.1,10.6-0.1,15.9c0,3.9-1.1,4.8-4.8,3.6c-4.2-1.4-6.4-4.6-6.7-9.8C255.1,311.8,255.1,311.1,255.1,310.4z"/>
	<path class="st57" d="M235.7,183.1c-0.7,0-1.4,0.1-2.2,0c-2.1-0.2-2.5-0.8-2.1-2.9c0.7-3.2,1.5-6.4,2.2-9.5
		c0.4-1.7,0.8-3.4,1.2-5.1c0.1-0.3,0-0.8,0.6-0.7c0.5,0,0.7,0.3,0.8,0.7c1.2,5,2.5,10,3.7,15c0.5,2-0.1,2.7-2.1,2.7
		C237,183.1,236.4,183.1,235.7,183.1C235.7,183.1,235.7,183.1,235.7,183.1z"/>
	<path class="st58" d="M129.2,171c0,4.9-3.5,8.5-8.1,8.3c-2.3-0.1-2.9-1-2.8-3.3c0.1-3.2,0.1-6.4,0-9.6c-0.1-2.1,0.4-2.8,2.5-3.1
		C125.5,162.7,129.1,166,129.2,171z"/>
	<path class="st59" d="M119.5,71.2c-3,0-3,0-2.4-2.8c0.9-4.3,1.8-8.6,2.8-12.8c0.1-0.4-0.1-1,0.7-1c0.7,0,0.6,0.5,0.7,0.9
		c0.8,3.5,1.6,7.1,2.4,10.6c0.1,0.6,0.4,1.2,0.6,1.8c0.7,1.7,0.4,2.3-1.5,2.9C121.6,71.1,120.5,71.2,119.5,71.2z"/>
	<path class="st60" d="M149.5,66.8c-1.4-0.3-2.8,0.4-4.3,0.4c-0.9,0-1.5-0.3-1.6-1.2c-0.2-2.3,1.1-3.8,2.7-5.2
		c1.3-1.2,2.9-1.5,4.5-0.7c1.9,0.8,2.9,2.6,2.5,4.6C153,66.5,152.2,66.9,149.5,66.8z"/>
	<path class="st61" d="M123.4,291.3c-0.1,0-0.5,0-0.8,0c-2.7-0.2-3.1-0.9-3.1-3.6c0.1-3.1,0.1-6.2,0-9.3c-0.1-2.1,0.4-2.8,2.5-3
		c4-0.4,7.8,2.9,8.3,7.1c0.2,1.2,0.2,2.5-0.1,3.7C129.4,289.5,127,291.3,123.4,291.3z"/>
	<path class="st62" d="M18.7,282.5c0-3.6,0.1-7.1-0.1-10.7c-0.1-2.5,0.9-3.3,3.4-2.9c4.1,0.8,6.5,3.5,7.6,7.3
		c1.4,4.8,1.3,9.7,0.1,14.6c-0.7,2.7-2.4,4.7-4.8,6.2c-3.3,2-6.1,0.5-6.2-3.4C18.6,289.9,18.7,286.2,18.7,282.5z"/>
	<path class="st63" d="M48.8,186.2c0.3,2-0.1,4.5,0.1,6.9c0.1,1.4-0.5,2.1-2,2.2c-2.1,0.1-3.7-0.9-4.8-2.6
		c-2.6-3.8-2.3-11.1,0.5-14.7c0.9-1.2,2.2-1.9,3.7-2.3c1.5-0.4,2.5,0.2,2.5,1.8C48.8,180.2,48.8,183,48.8,186.2z"/>
	<path class="st64" d="M32.4,69.2c0-0.2,0-0.5,0-0.7c-0.2-2.9,0.3-3.4,3.1-3.3c0.8,1,1,2.1,0.4,3.3c-0.3,0.6-0.1,0.7,0.5,0.7
		c1,0,2.1,0,3.1,0c0.6,0.6,0.3,1.3,0.2,2c-0.1,1.2,0,1.4,1.3,1.4c0.5,0,1,0,1.4,0.4c0,0.1,0,0.1,0,0.2c0,0.5,0,1,0,1.4
		c0.1,2.2-0.2,2.5-2.5,2.7c-1.1-0.4-0.6-1.3-0.6-2c0-0.8-0.1-1.1-1-1c-1.8,0.2-2.7-0.8-2.9-2.7c-0.3-2.4-0.3-2.4-2.7-2.5
		C32.7,69.2,32.5,69.2,32.4,69.2z"/>
	<path class="st65" d="M28.5,64.7c0.2-1.5-0.4-3.2,1-4.4c0.5,0,1.1,0,1.6,0c0.8,1.8,0.1,3.8-1.7,4.8C29.1,65.2,28.7,65.2,28.5,64.7z
		"/>
	<path class="st66" d="M44.2,82.2c-0.8-0.9-0.7-3.1,0.2-3.7c0.5-0.4,1.2-0.5,1.8-0.3c0.6,0.3,0.3,0.9,0.4,1.4c0,0.9,0,1.7,0,2.6
		C45.8,82.2,45,82.2,44.2,82.2z"/>
	<path class="st67" d="M54.5,87.3c0,0.4,0.1,0.7,0.1,1.1c0.1,2.5-0.5,3-3,2.8c0-0.5-0.1-1-0.1-1.5C51.5,87.4,52.3,86.7,54.5,87.3z"
		/>
	<path class="st68" d="M54.4,85.1c-0.1,1.1-0.9,1-1.6,1c-0.9-0.1-1.4-0.6-1.4-1.5c-0.1-0.8,0-1.7,0.8-2.2c0.5-0.3,1.2-0.2,1.7,0.1
		C54.9,83.1,54.4,84.2,54.4,85.1z"/>
	<path class="st69" d="M48,82.2c0.7,0,1.4,0,2.1-0.1c0.5,1,0.3,2.1,0.2,3.1c-0.1,0.5-0.6,0.7-1.1,0.8c-0.6,0-1.1,0.1-1.5-0.5
		C47.3,85,47.5,82.9,48,82.2z"/>
	<path class="st70" d="M42.5,73.1c-0.4,0-0.8,0-1.2,0c-2.1,0.1-2.3-0.2-1.9-2.2c0.1-0.6,0.1-1.1,0.2-1.6
		C42.3,69.1,42.5,69.5,42.5,73.1z"/>
</g>
</svg>
