<?xml version="1.0" encoding="utf-8"?>
<!-- Generator: Adobe Illustrator 22.0.1, SVG Export Plug-In . SVG Version: 6.00 Build 0)  -->
<svg version="1.1" id="Layer_1" xmlns="http://www.w3.org/2000/svg" xmlns:xlink="http://www.w3.org/1999/xlink" x="0px" y="0px"
	 viewBox="0 0 109.286 66.649" style="enable-background:new 0 0 109.286 66.649;" xml:space="preserve">
<style type="text/css">
	.st0{fill:#D2D1D4;}
	.st1{fill:#F2F2F4;}
	.st2{fill:#909095;}
	.st3{fill:#F3F3F4;}
	.st4{fill:#2D618A;}
	.st5{fill:#919196;}
	.st6{fill:#E7E9EC;}
	.st7{fill:#9B9C9F;}
	.st8{fill:#717173;}
	.st9{fill:#818082;}
	.st10{fill:#CFD3D8;}
	.st11{fill:#D5D5D8;}
	.st12{fill:#424547;}
	.st13{fill:#ACAEB3;}
	.st14{fill:#ABADB2;}
	.st15{fill:#ACADB2;}
	.st16{fill:#445273;}
	.st17{fill:#818183;}
	.st18{fill:#AAABAE;}
	.st19{fill:#447095;}
	.st20{fill:#4A4C4D;}
	.st21{fill:#ACB1B7;}
	.st22{fill:#99999E;}
	.st23{fill:#B4B5B7;}
	.st24{fill:#4C4E4F;}
	.st25{fill:#5C7994;}
	.st26{fill:#C6C8CB;}
	.st27{fill:#E8EAED;}
	.st28{fill:#FEFEFE;}
	.st29{fill:#424546;}
	.st30{fill:#5B5D5F;}
	.st31{fill:#5F5F61;}
	.st32{fill:#E9EBED;}
	.st33{fill:#E7E8EB;}
	.st34{fill:#414142;}
	.st35{fill:#2D618B;}
	.st36{fill:#537C9E;}
	.st37{fill:#68686A;}
	.st38{fill:#C0C2C4;}
	.st39{fill:#A9ABAF;}
	.st40{fill:#717072;}
</style>
<g>
	<path class="st0" d="M4.69,6.484C3.947,8.109,4.949,9.42,5.615,10.682c1.401,2.656,3.344,4.962,5.605,6.909
		c2.337,2.013,4.906,3.755,7.345,5.653c2.866,2.232,6.146,3.924,8.64,6.642c0.294,0.32,0.678,0.563,0.525,1.084
		c1.762,1.888,3.708,3.583,5.593,5.344c1.18,0.984,2.35,1.978,3.578,2.904c0.472,0.303,0.858,0.827,1.537,0.601
		c4.098,2.742,8.704,4.477,13.078,6.674c2.496,1.253,4.749,3.002,7.154,4.465c2.085,1.269,4.25,2.347,6.478,3.321
		c0.375,0.164,0.87,0.196,1.019,0.704c0.357,0.253,0.751,0.203,1.147,0.143c1.133-0.203,2.19-0.615,3.162-1.225
		c0.294-0.185,0.801-0.309,0.509-0.867c-1.852-1.475-4.008-2.464-5.973-3.762c-2.162-1.428-4.367-2.794-6.671-3.989
		c-0.493-0.256-0.98-0.562-1.477,0.01c-0.389,0.448-0.876,0.254-1.318,0.127c-1.545-0.441-2.887-1.26-4.013-2.386
		c-2.083-2.083-4.181-4.145-6.564-5.892c-0.066-0.049,0.03-0.208,0.057-0.318c-0.348-0.744-1.115-1.005-1.737-1.336
		c-2.683-1.433-4.796-3.546-6.875-5.677c-0.922-0.945-2.128-1.474-3.015-2.424c-0.715-0.126-1.341-0.384-1.797-1.003
		c-0.329-0.446-0.827-0.721-1.276-1.037c-6.691-4.695-13.303-9.502-20.103-14.041c-1.646-1.099-3.159-2.336-4.203-4.064
		C5.725,6.759,5.357,6.343,4.69,6.484z"/>
	<path class="st1" d="M4.69,6.484c0.286,0.124,0.625,0.192,0.781,0.493c1.542,2.972,4.391,4.515,6.999,6.271
		c4.014,2.703,7.933,5.536,11.899,8.304c2.112,1.474,4.193,2.992,6.311,4.456c0.399,0.276,0.728,0.57,0.992,0.972
		c0.416,0.634,0.991,0.843,1.712,0.519c1.773,0.26,3.459,0.864,5.184,1.315c0.295,0.077,0.622,0.161,0.823-0.202
		c-0.081-0.527-0.508-0.766-0.876-1.054c-3.093-2.426-6.447-4.468-9.714-6.638c-0.899-0.597-1.754-1.259-2.228-1.537
		c3.839,2.667,8.364,5.257,12.581,8.316c0.507,0.368,1.051,0.695,1.416,1.227c0.545,0.555,1.21,0.443,1.873,0.336
		c0.511-0.119,0.944-0.487,1.498-0.475c0.437-0.044,0.592,0.368,0.888,0.552c0.55,0.219,1.135,0.367,1.592,0.78
		c0.094,0.069,0.194,0.125,0.3,0.174c0.39,0.151,0.819,0.178,1.195,0.376c0.461,0.104,0.917,0.597,1.389,0.025
		c-2.216-1.531-4.461-3.021-6.641-4.602c-6.515-4.724-12.961-9.543-19.523-14.2c-2.67-1.895-5.442-3.691-8.533-4.885
		c-1.094-0.423-2.191-0.85-3.317-1.168c-0.511-0.144-1.181-0.408-1.564,0.331c-0.618,0.348-1.208-0.12-1.816-0.064
		C6.819,6.086,5.705,5.861,4.69,6.484z"/>
	<path class="st2" d="M49.303,30.695c-0.519,0.115-0.935-0.178-1.382-0.35c-0.662,0.078-0.453,0.41-0.162,0.676
		c0.516,0.472,1.086,0.881,1.654,1.288c0.242,0.154,0.494,0.295,0.689,0.513c0.772,0.8,1.658,1.483,2.377,2.335
		c0.214,0.239,0.425,0.481,0.615,0.74c0.294,0.313,0.302,0.826,0.727,1.049c0.165,0.068,0.333,0.127,0.498,0.197
		c1.396,0.651,2.839,1.202,4.151,2.022c1.003,0.218,1.984,0.152,2.937-0.246l-0.006-0.063c0.522-0.429,0.048-0.693-0.195-0.93
		c-0.589-0.574-1.221-1.103-1.7-1.615c1.977,0.772,3.876,1.998,6.04,2.629c0.738,0.057,1.476,0.113,2.215,0.17
		c0.307-0.516-0.105-0.798-0.388-1.088c-0.517-0.531-1.031-1.065-1.685-1.709c1.742,1.122,3.661,1.558,5.12,2.843
		c0.211,0.185,0.511,0.17,0.788,0.146c0.915,0.039,1.829,0.079,2.744,0.118c0.523-0.413,0.06-0.696-0.164-0.953
		c-0.489-0.562-1.062-1.047-1.486-1.547c1.74,0.778,3.445,1.806,5.263,2.61c7.389,0.091,14.778,0.183,22.167,0.27
		c0.147,0.002,0.294-0.055,0.441-0.084c-0.431-0.99-1.653-1.324-1.987-2.394c-14.326-1.311-28.624-2.84-42.778-5.493
		C53.637,31.427,51.468,31.073,49.303,30.695z"/>
	<path class="st3" d="M61.407,38.921c-0.872,0.046-1.744,0.093-2.616,0.139c-0.745,0.615-0.436,1.193,0.009,1.771
		c-0.922-0.552-1.698-1.495-2.948-1.488c-0.664,0.095-1.37,0.1-1.972,0.352c-2.046,0.855-3.749,0.113-5.38-1.026
		c-0.776-0.542-1.67-0.874-2.429-1.445c-0.307-0.231-0.692-0.387-1.111-0.233c-0.15-0.038-0.3-0.076-0.45-0.114
		c2.956,2.37,5.372,5.327,8.372,7.643c1.082,0.836,2.369,1.175,3.657,1.516c0.837,0.222,0.5-0.586,0.782-0.928
		c2.175,1.176,4.294,2.403,6.376,3.704c2.412,1.508,4.868,2.945,7.305,4.413c0.153,0.087,0.311,0.083,0.474,0.033
		c0.504-0.215,0.885-0.605,1.311-0.931c0.368-0.318,0.749-0.62,1.134-0.917c0.482-0.802,1.531-0.845,2.082-1.556
		c-0.291-0.728-0.991-0.96-1.595-1.294c-0.476-0.263-1.022-0.408-1.372-0.869c-2.056-1.139-3.857-2.645-5.761-4.003
		c-1.683-1.201-3.363-2.41-4.99-3.685C61.949,39.739,61.251,39.635,61.407,38.921z"/>
	<path class="st4" d="M75.88,49.983c-1.068-0.133-1.573,0.668-2.175,1.31c-0.284,0.552,0.22,0.669,0.509,0.86
		c1.5,0.993,3.171,1.696,4.648,2.728c0.569,0.397,1.099,0.294,1.617-0.092c0.775-0.266,1.322,0.333,1.975,0.526
		c0.774,0.228,1.525,0.678,2.353,0.184c4.809-1.157,7.618-4.87,10.635-8.319c0.569-0.651,1.115-1.326,1.729-1.931
		c0.459-0.452,0.46-0.767-0.093-1.084c-0.034-0.02-0.076-0.032-0.102-0.06c-1.513-1.636-3.134-1.604-5.146-0.768
		c-3.666,1.523-7.456,2.749-11.194,4.099c-1.419,1.428-1.41,3.361-0.012,4.655c-0.998-1.023-2.402-1.309-3.563-2.037
		C76.689,49.82,76.298,49.608,75.88,49.983z"/>
	<path class="st5" d="M86.074,59.711c2.216,0.202,4.432,0.409,6.649,0.605c2.812,0.249,5.625,0.49,8.437,0.731
		c0.033,0.003,0.07-0.031,0.228-0.105c-1.323-1.167-2.721-2.091-4.399-2.472c-4.016-0.911-8.045-1.767-12.068-2.646
		c-1.223-0.129-2.331-0.877-3.616-0.673c-0.283,0.47,0.118,0.718,0.354,0.986c0.702,0.797,1.562,1.42,2.308,2.087
		c-0.793-0.381-1.208-1.597-2.422-1.329c-0.084,0.114-0.096,0.234-0.039,0.363c0.884,1.18,2.221,1.726,3.437,2.437
		C85.295,59.901,85.694,59.916,86.074,59.711z"/>
	<path class="st6" d="M23.442,30.1c-0.707-0.332-1.415-0.663-2.122-0.995c-0.388,0.26-0.296,0.69-0.368,1.058
		c-0.142,0.726-0.265,1.445-0.746,2.059c-0.48,0.612-0.351,1.133,0.322,1.552c0.859,0.535,1.717,1.072,2.563,1.628
		c0.691,0.347,1.383,0.691,2.086,0.025c0.787-0.783,1.662-1.52,1.546-2.803c-0.033-0.124-0.088-0.238-0.162-0.343
		C25.741,31.24,24.498,30.803,23.442,30.1z"/>
	<path class="st7" d="M23.252,35.144c-0.851-0.554-1.68-1.143-2.56-1.647c-0.527-0.302-0.709-0.575-0.278-1.079
		c0.822-0.96,0.919-2.122,0.905-3.313c-0.302-0.523-0.712-0.803-1.339-0.593c1.265,2.036-0.319,4.497-2.402,4.88
		c2.361,2.704,5.464,4.273,8.695,5.626c0.631,0.264,1.176,0.83,1.956,0.685c-0.017-0.292,0.08-0.58,0.023-0.876
		c-0.11-0.395-0.289-0.757-0.689-0.906C25.922,37.309,24.76,35.958,23.252,35.144z"/>
	<path class="st8" d="M33.436,36.065c-1.728-1.644-3.46-3.285-5.181-4.937c-0.165-0.158-0.327-0.185-0.526-0.156
		c-0.173,0.181-0.347,0.362-0.52,0.542c-0.42,0.167-0.668,0.457-0.663,0.929L26.51,32.46c0.979,1.557,2.495,2.68,3.445,4.263
		c0.097,0.073,0.203,0.125,0.318,0.162C31.459,37.124,32.671,37.454,33.436,36.065z"/>
	<path class="st9" d="M33.436,36.065c-0.897,0.943-2.048,0.703-3.153,0.677c-0.204,0.677-0.155,1.37-0.123,2.061
		c0.597,0.565,1.476,0.774,1.921,1.529c0.196,0.107,0.393,0.214,0.589,0.321c0.331,0.289,0.59,0.325,0.51-0.225
		c-0.136-0.942-0.418-1.808-1.544-2.117c0.357-0.03,0.513,0.219,0.707,0.371c0.245,0.192,0.521,0.349,0.718,0.602
		c0.26,0.333,0.663,0.403,1.031,0.524c0.385,0.127,0.586-0.131,0.718-0.433c0.131-0.3,0.192-0.617-0.16-0.825
		c-0.361-0.214-0.691-0.457-0.956-0.772c0.742,0.769,1.664,1.296,2.561,1.855c0.177,0.172,0.354,0.345,0.532,0.518
		c0.674-0.279,0.355-0.742,0.217-1.172C35.814,38.007,34.625,37.036,33.436,36.065z"/>
	<path class="st10" d="M75.88,49.983c1.404,0.289,2.524,1.186,3.785,1.78c0.381,0.18,0.727,0.432,1.207,0.615
		c-1.183-1.631-1.284-3.269-0.234-4.942c-1.854,0.681-3.704,1.318-5.744,0.919c-0.667-0.13-1.24-0.437-1.855-0.664
		c0.407,1.031,1.577,1.083,2.267,1.757C75.49,49.629,75.82,49.658,75.88,49.983z"/>
	<path class="st11" d="M86.074,59.711c-1.334-0.34-2.467-1.061-3.541-1.887c-0.335-0.258-0.593-0.62-1.024-0.744
		c-0.423-0.266-0.763,0.014-1.124,0.166c-0.798,0.301-1.619,0.523-2.444,0.734c-0.275,0.07-0.817-0.002-0.549,0.605
		c1.063,0.714,2.322,0.732,3.513,0.992c0.248,0.054,0.549-0.079,0.731,0.208c0.82-0.873,1.633-0.066,2.408,0.076
		c0.95,0.174,1.854,0.602,2.781,0.91c0.374,0.124,0.756,0.176,1.169-0.05C87.6,59.879,86.454,60.501,86.074,59.711z"/>
	<path class="st12" d="M17.578,33.393c1.191,0.292,2.724-0.856,3.035-2.371c0.185-0.901,0.668-1.952-0.633-2.509
		C18.083,29.306,16.936,31.637,17.578,33.393z"/>
	<path class="st13" d="M65.546,38.943c-2.081-1.5-4.643-2.057-6.868-3.585c0.094,1.014,0.913,1.326,1.339,1.915
		c0.414,0.572,1.307,0.723,1.384,1.585c1.551,0.464,2.558,2.042,4.371,2.14c-0.354-0.612-1.253-0.833-0.98-1.749
		C64.943,38.742,65.355,39.178,65.546,38.943z"/>
	<path class="st14" d="M71.596,39.304c-1.94-1.595-4.357-2.319-6.497-3.587c0.347,1.011,1.199,1.581,1.851,2.315
		c0.298,0.335,0.829,0.507,0.811,1.081c1.157,0.42,1.999,1.342,3.058,1.915c0.401,0.217,0.834,0.376,1.583,0.709
		C71.617,40.842,70.428,40.35,71.596,39.304z"/>
	<path class="st15" d="M77.953,39.533c-1.627-1.67-4.014-1.978-5.995-3.56c0.27,1.313,1.194,1.742,1.739,2.454
		c0.239,0.312,0.813,0.419,0.642,0.996c1.074,0.05,1.619,0.991,2.427,1.485c0.669,0.409,1.325,0.793,2.18,0.991
		C77.976,41.343,77.821,40.491,77.953,39.533z"/>
	<path class="st16" d="M98.574,37.325c-0.232,0.196-0.397,0.41-0.078,0.661c0.707,0.556,1.255,1.302,2.065,1.734
		c0.809-0.551,1.622-1.098,2.426-1.656c0.275-0.191,0.706-0.329,0.506-0.792c-0.196-0.455-0.571-0.569-1.07-0.489
		C101.144,36.987,99.858,37.146,98.574,37.325z"/>
	<path class="st17" d="M81.636,59.784c-0.81-0.876-2-0.624-2.986-0.986c-0.429-0.158-0.909-0.199-1.327-0.42
		c-0.056-0.12-0.147-0.202-0.271-0.246c-0.731-0.018-1.403-0.548-2.171-0.256c0.471,0.938,1.294,1.537,2.07,2.189
		c0.38,0.32,0.781,0.293,1.211,0.229C79.319,60.124,80.477,59.954,81.636,59.784z"/>
	<path class="st18" d="M36.255,39.632c-0.748-0.855-1.759-1.341-2.858-2.134c0.298,0.601,0.584,0.847,0.942,1.019
		c0.43,0.206,0.41,0.513,0.214,0.87c-0.259,0.47-0.575,0.274-0.873,0.064c-0.692-0.489-1.308-1.098-2.234-1.298
		c1.247,0.395,0.999,1.657,1.539,2.454c-0.105,0.015-0.21,0.031-0.315,0.047c0.396,0.559,1.101,0.992,1.568,0.635
		c0.557-0.426-0.423-0.836-0.457-1.41c0.428,0.307,0.831,0.59,1.227,0.883c0.401,0.298,0.966,0.503,1.283,0.21
		c0.389-0.36-0.135-0.74-0.347-1.091c-0.045-0.075-0.413-0.23-0.022-0.343C36.016,39.51,36.143,39.597,36.255,39.632z"/>
	<path class="st19" d="M74.88,57.876c0.731,0.208,1.421,0.64,2.233,0.418c0.18-0.432-0.154-0.602-0.434-0.669
		c-3.118-0.74-6.092-1.97-9.212-2.703c-0.073-0.017-0.154,0.007-0.231,0.02c-0.357,0.014-0.714,0.028-1.07,0.042
		c-0.019,0.183,0.081,0.294,0.239,0.344C69.217,56.219,72.014,57.163,74.88,57.876z"/>
	<path class="st20" d="M30.195,38.756c0.421-0.654,0.364-1.33,0.088-2.015c-0.063-0.038-0.126-0.074-0.19-0.109
		c-0.461,0.178-0.604,0.606-0.791,0.998c-0.18,0.643-0.744,1.01-1.103,1.525c-0.291,0.199-0.351,0.386,0.03,0.548
		c0.755,0.11,1.384-0.121,1.886-0.696c0.082-0.035,0.121-0.084,0.118-0.147C30.229,38.801,30.216,38.766,30.195,38.756z"/>
	<path class="st21" d="M81.288,55.239c1.24,0.011,2.375,0.679,3.633,0.585c-0.038-0.109-0.076-0.217-0.114-0.326
		c-1.183-0.054-2.281-0.386-3.319-0.959c-0.369-0.203-0.795-0.627-1.206-0.025c-0.588,0.69-0.467,1.227,0.345,1.616
		C81.396,56.243,80.816,55.35,81.288,55.239z"/>
	<path class="st22" d="M26.546,32.443c0.322-0.237,0.502-0.576,0.663-0.929c-1.351-0.219-2.505-0.962-3.768-1.414
		C24.477,30.881,25.512,31.662,26.546,32.443z"/>
	<path class="st23" d="M37.004,38.978c-0.072,0.391-0.144,0.781-0.217,1.172c0.126,0.33,0.443,0.409,0.716,0.547
		c0.321,0.162,0.69,0.318,0.99,0.082c0.368-0.29-0.037-0.634-0.056-0.959C37.864,39.7,37.507,39.214,37.004,38.978z"/>
	<path class="st18" d="M30.195,38.756c-0.027,0.084-0.053,0.167-0.08,0.251c0.61,0.508,1.215,1.026,1.966,1.325
		C31.918,39.249,30.938,39.144,30.195,38.756z"/>
	<path class="st24" d="M7.909,6.108c0.6,0.176,1.177,1.008,1.816,0.064C9.122,6.089,8.525,5.83,7.909,6.108z"/>
	<path class="st5" d="M44.961,36.99c1.698,0.98,3.419,1.924,5.082,2.959c0.68,0.423,1.301,0.613,2.09,0.421
		c1.257-0.306,2.533-0.536,3.801-0.798c0.134-1.166-0.878-1.325-1.559-1.777c-0.306,0.118-0.451,0.383-0.593,0.65
		c-0.656,1.119-0.93,1.218-2.258,0.813c-1.528-0.598-3.04-1.234-4.512-1.911c-0.029-0.307,0.227-0.331,0.342-0.468
		c0.133-0.159,0.251-0.327,0.129-0.521c-0.086-0.137-0.275-0.173-0.423-0.125c-1.782,0.582-2.891-0.38-3.87-1.663
		c-0.14-0.183-0.431-0.187-0.604-0.503c0.824-0.388,1.354-1.095,1.866-1.823c0.543-0.964,1.16-1.919,0.41-3.055
		c-0.152-0.389-0.295-0.791-0.854-0.597c-0.031,1.043,0.193,2.121-0.448,3.08c-0.242,0.362-0.508,0.7-0.84,0.978
		c-0.325,0.271-0.687,0.695-1.123,0.43c-0.483-0.293-0.299-0.846-0.174-1.293c0.18-0.644,0.473-1.244,0.817-1.819
		c0.177-0.296,0.443-0.568,0.309-0.965c-0.606,0.103-1.208,0.147-1.795-0.098c-0.393-0.42-0.862-0.477-1.383-0.293
		c-1.373-0.102-2.615-0.698-3.92-1.056c-0.707-0.194-1.372-0.234-2.066-0.058c0.065,0.177,0.076,0.443,0.202,0.519
		c2.72,1.636,4.502,4.35,7.072,6.148C42.063,35.149,43.525,36.051,44.961,36.99z"/>
	<path class="st25" d="M67.236,54.942c2.999,1.256,6.104,2.181,9.263,2.928c0.281,0.066,0.549,0.076,0.614,0.423
		c0,0,0.107,0.038,0.107,0.038s0.103,0.047,0.103,0.047c1.082-0.266,2.208-0.375,3.212-0.915c-0.124-0.369-0.428-0.563-0.751-0.706
		c-2.8-1.242-5.55-2.6-8.427-3.666c-0.117,0.045-0.235,0.09-0.353,0.135C69.882,54.091,68.554,54.506,67.236,54.942z"/>
	<path class="st26" d="M44.163,32.258c-0.603,0.71-1.13,1.513-2.419,1.744c1.424,0.811,2.144,2.06,3.47,2.657
		c0.812,0.366,1.412-0.17,2.432-0.238c-0.615,0.346-0.967,0.544-1.532,0.862c1.922,0.786,3.579,1.77,5.484,2.186
		c0.771,0.159,1.269-0.137,1.491-0.892c-0.597-0.505-0.674-1.078-0.27-1.753c0.199-0.333,0.355-0.697,0.459-1.078
		c-0.179-0.222-0.358-0.444-0.538-0.666c-0.497,0.247-0.469,0.78-0.638,1.199c-0.218,0.538-0.553,0.724-1.102,0.483
		c-0.359-0.157-0.701-0.34-1.042-0.534c-0.693-0.393-0.926-0.887-0.516-1.641c0.336-0.618,0.545-1.296,0.796-1.953
		c-0.077-0.313-0.34-0.392-0.599-0.476c-0.664,0.34-0.565,1.071-0.836,1.613c-0.235,0.469-0.208,1.287-1.109,1.032
		c-1.148-0.325-1.816-1.246-1.528-2.088c0.227-0.665,0.629-1.268,0.711-1.986c0.028-0.245-0.081-0.459-0.158-0.68
		c-0.072-0.037-0.144-0.075-0.216-0.112c-0.757,0.426-0.59,1.295-0.906,1.934C45.227,32.615,44.872,32.978,44.163,32.258z"/>
	<path class="st27" d="M46.716,30.049c-0.066,1.004-0.539,1.87-0.96,2.746c-0.3,0.626-0.345,1.115,0.406,1.421
		c0.139,0.057,0.25,0.183,0.374,0.276c1.708,1.278,2.29,1.043,2.759-1.101c0.091-0.416,0.226-0.823,0.341-1.234
		c-0.574-0.445-1.135-0.909-1.729-1.327c-0.299-0.21-0.234-0.33,0.013-0.486C47.564,30.066,47.107,30.194,46.716,30.049z"/>
	<path class="st28" d="M39.37,28.614c0.434,0.225,0.906,0.268,1.383,0.293c0.112-0.617-0.419-0.809-0.77-1.047
		c-2.997-2.034-5.926-4.166-9.112-5.92c-1.723-0.948-3.318-2.129-5.042-3.101C30.173,22.333,34.991,25.17,39.37,28.614z"/>
	<path class="st29" d="M42.548,29.005c-0.739,0.973-1.395,1.984-1.567,3.235c-0.068,0.497-0.063,0.988,0.423,1.243
		c0.427,0.224,0.815-0.012,1.185-0.281c1.626-1.185,2.194-3,1.418-4.608C43.428,28.402,43.003,28.757,42.548,29.005z"/>
	<path class="st27" d="M44.163,32.258c-0.174,0.606,0.345,0.767,0.695,0.886c0.391,0.133,0.556-0.295,0.737-0.587
		c0.5-0.806,0.569-1.759,0.906-2.62c-0.384-0.605-0.986-0.733-1.639-0.747C45.108,30.322,44.696,31.304,44.163,32.258z"/>
	<path class="st30" d="M10.969,6.991c-0.062,0.408-0.147,0.818,0.377,0.97c0.225,0.065,0.557,0.414,0.669-0.008
		c0.12-0.452-0.244-0.793-0.6-1.056C11.239,6.767,11.061,6.74,10.969,6.991z"/>
	<path class="st31" d="M10.094,7.307c0.246,0.166,0.432,0.15,0.493-0.096c0.063-0.253,0.182-0.581-0.106-0.745
		c-0.268-0.153-0.574,0.005-0.703,0.249C9.607,7.038,9.941,7.172,10.094,7.307z"/>
	<path class="st32" d="M50.236,32.635c-0.407,0.262-1.594,2.701-1.484,3.051c0.119,0.383,2.613,1.791,3.009,1.681
		c0.404-0.111,0.474-0.509,0.588-0.822c0.172-0.473,0.264-0.975,0.39-1.464C52.023,34.144,51.136,33.383,50.236,32.635z"/>
	<path class="st13" d="M54.404,37.847c0.237,0.818,1.418,0.797,1.531,1.725c0.863,0.063,1.432,0.699,2.123,1.094
		c0.494,0.282,0.955,0.629,1.898,0.561c-1.119-0.548-1.62-1.168-1.165-2.168c-1.424-1.116-3.138-1.65-4.761-2.367
		C53.862,37.172,53.993,37.555,54.404,37.847z"/>
	<path class="st33" d="M53.277,35.747c-0.799,0.441-0.888,1.317-1.126,2.043c-0.164,0.502,0.284,0.819,0.861,0.732
		c0.54-0.17,0.65-0.659,0.822-1.104c0.049-0.208,0.028-0.408-0.07-0.598C53.683,36.425,53.666,36.002,53.277,35.747z"/>
	<path class="st34" d="M53.763,36.82c-0.035,0.147-0.07,0.294-0.105,0.441c-0.012,0.283-0.183,0.512-0.262,0.771
		c-0.16,0.524,0.022,0.751,0.576,0.626c0.144-0.27,0.287-0.541,0.431-0.811c-0.125-0.385-0.249-0.77-0.374-1.154
		C53.941,36.735,53.852,36.778,53.763,36.82z"/>
	<path class="st35" d="M71.357,53.09c0.116,0.524,0.609,0.577,0.983,0.744c2.727,1.22,5.462,2.421,8.195,3.628
		c0.325-0.128,0.65-0.255,0.975-0.383c0.026-0.055,0.061-0.104,0.104-0.146c0.167-0.379-0.1-0.529-0.36-0.684
		c-1.989-1.054-4.094-1.872-6.061-2.97c-0.816-0.456-1.597-0.982-2.558-1.093C72.209,52.488,71.783,52.789,71.357,53.09z"/>
	<path class="st36" d="M72.635,52.187c1.397,0.938,2.855,1.766,4.397,2.443c1.405,0.617,2.809,1.234,4.213,1.852
		c0.178-0.317,0.007-0.377-0.267-0.36c-0.573-0.388-1.171-0.764-0.697-1.606c-0.343,0.133-0.495,0.611-1.084,0.232
		c-1.704-1.094-3.496-2.051-5.245-3.075c-0.116-0.068-0.167-0.25-0.248-0.378C73.348,51.59,72.992,51.889,72.635,52.187z"/>
	<path class="st37" d="M80.978,56.12c0.089,0.12,0.178,0.241,0.267,0.361c0.186,0.099,0.34,0.225,0.368,0.453
		c1.033,0.284,1.695,1.182,2.73,1.523c-1.018-1.073-2.036-2.145-3.054-3.217C80.702,55.083,80.702,55.083,80.978,56.12z"/>
	<path class="st38" d="M29.517,37.93c0.192-0.433,0.384-0.865,0.576-1.298c-0.798-1.731-2.193-2.95-3.583-4.172
		c0.11,1.224-0.782,1.91-1.456,2.712C26.434,36.266,28.008,37.045,29.517,37.93z"/>
	<path class="st39" d="M29.517,37.93c-1.276-1.262-2.789-2.14-4.464-2.758c-0.612,0.743-1.205,0.202-1.802-0.028
		c1.322,1.125,2.44,2.532,4.227,3.007c0.496,0.132,0.396,0.729,0.72,1.005C28.859,38.985,29.294,38.572,29.517,37.93z"/>
	<path class="st40" d="M53.973,38.658c-0.972-0.27-0.06-0.965-0.314-1.397c-0.216,0.42-0.431,0.841-0.647,1.261
		c-0.302,0.57-0.865,0.749-1.415,0.947C52.714,40.117,53.41,39.879,53.973,38.658z"/>
</g>
</svg>
